{
DisplayStrings = (
/uniE027,
/uniE028,
/uniE029,
/uniE02A,
/uniE02B,
/uniE02C,
/uniE02D,
/uniE02E,
/uniE030,
"",
"",
/uniE031,
/uniE032,
/uniE033,
/uniE034,
"",
/uniE035,
/uniE036,
/uniE037,
/uniE038,
/uniE039,
/uniE03A,
/uniE03D,
/uniE03B,
/uniE03C,
/uniE02F
);
date = "2012-10-18 16:49:12 +0000";
familyName = "animicons";
fontMaster = (
{
ascender = 800;
capHeight = 700;
descender = "-200";
id = "976E1085-9D9E-4132-ADB4-8B20859A3B8B";
xHeight = 500;
}
);
glyphs = (
{
glyphname = uniE000;
lastChange = "2012-10-18 19:55:16 -0700";
layers = (
{
layerId = "976E1085-9D9E-4132-ADB4-8B20859A3B8B";
name = Regular;
paths = (
{
closed = 1;
nodes = (
"517 556 OFFCURVE",
"508 551 OFFCURVE",
"497 551 CURVE SMOOTH",
"475 551 OFFCURVE",
"458 569 OFFCURVE",
"458 590 CURVE SMOOTH",
"458 612 OFFCURVE",
"475 629 OFFCURVE",
"497 629 CURVE SMOOTH",
"519 629 OFFCURVE",
"536 612 OFFCURVE",
"536 590 CURVE SMOOTH",
"536 580 OFFCURVE",
"533 570 OFFCURVE",
"525 563 CURVE SMOOTH"
);
},
{
closed = 1;
nodes = (
"502 550 LINE",
"531 531 LINE",
"718 49 LINE",
"724 33 OFFCURVE",
"715 14 OFFCURVE",
"701 9 CURVE",
"698 8 OFFCURVE",
"695 7 OFFCURVE",
"690 7 CURVE SMOOTH",
"675 7 OFFCURVE",
"667 14 OFFCURVE",
"662 26 CURVE SMOOTH",
"652 50 LINE",
"342 50 LINE",
"332 26 LINE",
"327 14 OFFCURVE",
"318 7 OFFCURVE",
"304 7 CURVE SMOOTH",
"299 7 OFFCURVE",
"295 8 OFFCURVE",
"293 9 CURVE",
"278 14 OFFCURVE",
"270 33 OFFCURVE",
"276 49 CURVE",
"463 531 LINE",
"492 550 LINE"
);
},
{
closed = 1;
nodes = (
"450 327 LINE",
"544 327 LINE",
"497 450 LINE"
);
},
{
closed = 1;
nodes = (
"441 297 LINE",
"499 240 LINE",
"556 297 LINE"
);
},
{
closed = 1;
nodes = (
"425 167 LINE",
"477 218 LINE",
"427 269 LINE",
"397 195 LINE"
);
},
{
closed = 1;
nodes = (
"520 218 LINE",
"572 167 LINE",
"597 191 LINE",
"568 266 LINE"
);
},
{
closed = 1;
nodes = (
"499 197 LINE",
"447 145 LINE",
"499 93 LINE",
"551 145 LINE"
);
},
{
closed = 1;
nodes = (
"468 80 LINE",
"385 162 LINE",
"353 80 LINE"
);
},
{
closed = 1;
nodes = (
"640 80 LINE",
"610 161 LINE",
"529 80 LINE"
);
}
);
width = 953;
}
);
},
{
glyphname = uniE001;
lastChange = "2012-10-18 19:55:25 -0700";
layers = (
{
layerId = "976E1085-9D9E-4132-ADB4-8B20859A3B8B";
name = Regular;
paths = (
{
closed = 1;
nodes = (
"382 624 LINE",
"365 607 OFFCURVE",
"356 585 OFFCURVE",
"356 561 CURVE SMOOTH",
"356 537 OFFCURVE",
"364 517 OFFCURVE",
"380 500 CURVE",
"357 477 LINE",
"331 502 OFFCURVE",
"319 530 OFFCURVE",
"319 563 CURVE SMOOTH",
"319 595 OFFCURVE",
"332 624 OFFCURVE",
"359 650 CURVE"
);
},
{
closed = 1;
nodes = (
"616 499 LINE",
"633 516 OFFCURVE",
"642 537 OFFCURVE",
"642 563 CURVE SMOOTH",
"642 585 OFFCURVE",
"634 606 OFFCURVE",
"617 623 CURVE",
"641 648 LINE",
"666 620 OFFCURVE",
"678 590 OFFCURVE",
"678 560 CURVE SMOOTH",
"678 528 OFFCURVE",
"665 499 OFFCURVE",
"640 475 CURVE"
);
},
{
closed = 1;
nodes = (
"517 556 OFFCURVE",
"508 551 OFFCURVE",
"497 551 CURVE SMOOTH",
"475 551 OFFCURVE",
"458 569 OFFCURVE",
"458 590 CURVE SMOOTH",
"458 612 OFFCURVE",
"475 629 OFFCURVE",
"497 629 CURVE SMOOTH",
"519 629 OFFCURVE",
"536 612 OFFCURVE",
"536 590 CURVE SMOOTH",
"536 580 OFFCURVE",
"533 570 OFFCURVE",
"525 563 CURVE SMOOTH"
);
},
{
closed = 1;
nodes = (
"502 550 LINE",
"531 531 LINE",
"718 49 LINE",
"724 33 OFFCURVE",
"715 14 OFFCURVE",
"701 9 CURVE",
"698 8 OFFCURVE",
"695 7 OFFCURVE",
"690 7 CURVE SMOOTH",
"675 7 OFFCURVE",
"667 14 OFFCURVE",
"662 26 CURVE SMOOTH",
"652 50 LINE",
"342 50 LINE",
"332 26 LINE",
"327 14 OFFCURVE",
"318 7 OFFCURVE",
"304 7 CURVE SMOOTH",
"299 7 OFFCURVE",
"295 8 OFFCURVE",
"293 9 CURVE",
"278 14 OFFCURVE",
"270 33 OFFCURVE",
"276 49 CURVE",
"463 531 LINE",
"492 550 LINE"
);
},
{
closed = 1;
nodes = (
"450 327 LINE",
"544 327 LINE",
"497 450 LINE"
);
},
{
closed = 1;
nodes = (
"441 297 LINE",
"499 240 LINE",
"556 297 LINE"
);
},
{
closed = 1;
nodes = (
"425 167 LINE",
"477 218 LINE",
"427 269 LINE",
"397 195 LINE"
);
},
{
closed = 1;
nodes = (
"520 218 LINE",
"572 167 LINE",
"597 191 LINE",
"568 266 LINE"
);
},
{
closed = 1;
nodes = (
"499 197 LINE",
"447 145 LINE",
"499 93 LINE",
"551 145 LINE"
);
},
{
closed = 1;
nodes = (
"468 80 LINE",
"385 162 LINE",
"353 80 LINE"
);
},
{
closed = 1;
nodes = (
"640 80 LINE",
"610 161 LINE",
"529 80 LINE"
);
}
);
width = 953;
}
);
},
{
glyphname = uniE002;
lastChange = "2012-10-18 19:23:46 -0700";
layers = (
{
layerId = "976E1085-9D9E-4132-ADB4-8B20859A3B8B";
name = Regular;
paths = (
{
closed = 1;
nodes = (
"293 671 LINE",
"263 643 OFFCURVE",
"249 606 OFFCURVE",
"249 562 CURVE SMOOTH",
"249 519 OFFCURVE",
"263 484 OFFCURVE",
"293 453 CURVE",
"268 427 LINE",
"231 464 OFFCURVE",
"211 509 OFFCURVE",
"210 565 CURVE",
"211 618 OFFCURVE",
"230 663 OFFCURVE",
"267 698 CURVE"
);
},
{
closed = 1;
nodes = (
"705 452 LINE",
"735 481 OFFCURVE",
"749 517 OFFCURVE",
"749 561 CURVE",
"749 603 OFFCURVE",
"735 640 OFFCURVE",
"705 670 CURVE",
"730 695 LINE",
"767 659 OFFCURVE",
"786 613 OFFCURVE",
"788 558 CURVE",
"786 505 OFFCURVE",
"767 462 OFFCURVE",
"731 425 CURVE"
);
},
{
closed = 1;
nodes = (
"382 624 LINE",
"365 607 OFFCURVE",
"356 585 OFFCURVE",
"356 561 CURVE SMOOTH",
"356 537 OFFCURVE",
"364 517 OFFCURVE",
"380 500 CURVE",
"357 477 LINE",
"331 502 OFFCURVE",
"319 530 OFFCURVE",
"319 563 CURVE SMOOTH",
"319 595 OFFCURVE",
"332 624 OFFCURVE",
"359 650 CURVE"
);
},
{
closed = 1;
nodes = (
"616 499 LINE",
"633 516 OFFCURVE",
"642 537 OFFCURVE",
"642 563 CURVE SMOOTH",
"642 585 OFFCURVE",
"634 606 OFFCURVE",
"617 623 CURVE",
"641 648 LINE",
"666 620 OFFCURVE",
"678 590 OFFCURVE",
"678 560 CURVE SMOOTH",
"678 528 OFFCURVE",
"665 499 OFFCURVE",
"640 475 CURVE"
);
},
{
closed = 1;
nodes = (
"517 556 OFFCURVE",
"508 551 OFFCURVE",
"497 551 CURVE SMOOTH",
"475 551 OFFCURVE",
"458 569 OFFCURVE",
"458 590 CURVE SMOOTH",
"458 612 OFFCURVE",
"475 629 OFFCURVE",
"497 629 CURVE SMOOTH",
"519 629 OFFCURVE",
"536 612 OFFCURVE",
"536 590 CURVE SMOOTH",
"536 580 OFFCURVE",
"533 570 OFFCURVE",
"525 563 CURVE SMOOTH"
);
},
{
closed = 1;
nodes = (
"502 550 LINE",
"531 531 LINE",
"718 49 LINE",
"724 33 OFFCURVE",
"715 14 OFFCURVE",
"701 9 CURVE",
"698 8 OFFCURVE",
"695 7 OFFCURVE",
"690 7 CURVE SMOOTH",
"675 7 OFFCURVE",
"667 14 OFFCURVE",
"662 26 CURVE SMOOTH",
"652 50 LINE",
"342 50 LINE",
"332 26 LINE",
"327 14 OFFCURVE",
"318 7 OFFCURVE",
"304 7 CURVE SMOOTH",
"299 7 OFFCURVE",
"295 8 OFFCURVE",
"293 9 CURVE",
"278 14 OFFCURVE",
"270 33 OFFCURVE",
"276 49 CURVE",
"463 531 LINE",
"492 550 LINE"
);
},
{
closed = 1;
nodes = (
"450 327 LINE",
"544 327 LINE",
"497 450 LINE"
);
},
{
closed = 1;
nodes = (
"441 297 LINE",
"499 240 LINE",
"556 297 LINE"
);
},
{
closed = 1;
nodes = (
"425 167 LINE",
"477 218 LINE",
"427 269 LINE",
"397 195 LINE"
);
},
{
closed = 1;
nodes = (
"520 218 LINE",
"572 167 LINE",
"597 191 LINE",
"568 266 LINE"
);
},
{
closed = 1;
nodes = (
"499 197 LINE",
"447 145 LINE",
"499 93 LINE",
"551 145 LINE"
);
},
{
closed = 1;
nodes = (
"468 80 LINE",
"385 162 LINE",
"353 80 LINE"
);
},
{
closed = 1;
nodes = (
"640 80 LINE",
"610 161 LINE",
"529 80 LINE"
);
}
);
width = 953;
}
);
},
{
glyphname = uniE003;
lastChange = "2012-10-18 11:09:20 -0700";
layers = (
{
layerId = "976E1085-9D9E-4132-ADB4-8B20859A3B8B";
name = Regular;
paths = (
{
closed = 1;
nodes = (
"561 697 LINE",
"561 536 LINE",
"660 536 LINE",
"483 368 LINE",
"305 536 LINE",
"403 536 LINE",
"403 697 LINE"
);
},
{
closed = 1;
nodes = (
"621 251 LINE",
"685 251 LINE",
"790 181 LINE",
"806 173 OFFCURVE",
"815 151 OFFCURVE",
"810 133 CURVE",
"792 33 LINE",
"788 16 OFFCURVE",
"769 2 OFFCURVE",
"751 2 CURVE SMOOTH",
"215 2 LINE",
"196 2 OFFCURVE",
"177 16 OFFCURVE",
"173 33 CURVE SMOOTH",
"155 133 LINE",
"150 151 OFFCURVE",
"159 173 OFFCURVE",
"175 181 CURVE",
"280 251 LINE",
"345 251 LINE",
"232 166 LINE",
"349 166 LINE",
"354 166 OFFCURVE",
"356 164 OFFCURVE",
"358 162 CURVE",
"384 88 LINE",
"581 88 LINE",
"607 162 LINE",
"609 164 OFFCURVE",
"611 166 OFFCURVE",
"616 166 CURVE SMOOTH",
"732 166 LINE"
);
}
);
width = 953;
}
);
},
{
glyphname = uniE004;
lastChange = "2012-10-18 11:09:24 -0700";
layers = (
{
layerId = "976E1085-9D9E-4132-ADB4-8B20859A3B8B";
name = Regular;
paths = (
{
closed = 1;
nodes = (
"561 627 LINE",
"561 466 LINE",
"660 466 LINE",
"483 298 LINE",
"305 466 LINE",
"403 466 LINE",
"403 627 LINE"
);
},
{
closed = 1;
nodes = (
"621 251 LINE",
"685 251 LINE",
"790 181 LINE",
"806 173 OFFCURVE",
"815 151 OFFCURVE",
"810 133 CURVE",
"792 33 LINE",
"788 16 OFFCURVE",
"769 2 OFFCURVE",
"751 2 CURVE SMOOTH",
"215 2 LINE",
"196 2 OFFCURVE",
"177 16 OFFCURVE",
"173 33 CURVE SMOOTH",
"155 133 LINE",
"150 151 OFFCURVE",
"159 173 OFFCURVE",
"175 181 CURVE",
"280 251 LINE",
"345 251 LINE",
"232 166 LINE",
"349 166 LINE",
"354 166 OFFCURVE",
"356 164 OFFCURVE",
"358 162 CURVE",
"384 88 LINE",
"581 88 LINE",
"607 162 LINE",
"609 164 OFFCURVE",
"611 166 OFFCURVE",
"616 166 CURVE SMOOTH",
"732 166 LINE"
);
}
);
width = 953;
}
);
},
{
glyphname = uniE005;
lastChange = "2012-10-18 11:09:28 -0700";
layers = (
{
layerId = "976E1085-9D9E-4132-ADB4-8B20859A3B8B";
name = Regular;
paths = (
{
closed = 1;
nodes = (
"561 507 LINE",
"561 346 LINE",
"660 346 LINE",
"483 178 LINE",
"305 346 LINE",
"403 346 LINE",
"403 507 LINE"
);
},
{
closed = 1;
nodes = (
"621 251 LINE",
"685 251 LINE",
"790 181 LINE",
"806 173 OFFCURVE",
"815 151 OFFCURVE",
"810 133 CURVE",
"792 33 LINE",
"788 16 OFFCURVE",
"769 2 OFFCURVE",
"751 2 CURVE SMOOTH",
"215 2 LINE",
"196 2 OFFCURVE",
"177 16 OFFCURVE",
"173 33 CURVE SMOOTH",
"155 133 LINE",
"150 151 OFFCURVE",
"159 173 OFFCURVE",
"175 181 CURVE",
"280 251 LINE",
"345 251 LINE",
"232 166 LINE",
"349 166 LINE",
"354 166 OFFCURVE",
"356 164 OFFCURVE",
"358 162 CURVE",
"384 88 LINE",
"581 88 LINE",
"607 162 LINE",
"609 164 OFFCURVE",
"611 166 OFFCURVE",
"616 166 CURVE SMOOTH",
"732 166 LINE"
);
}
);
width = 953;
}
);
},
{
glyphname = uniE006;
lastChange = "2012-10-18 19:54:47 -0700";
layers = (
{
layerId = "976E1085-9D9E-4132-ADB4-8B20859A3B8B";
name = Regular;
paths = (
{
closed = 1;
nodes = (
"64 175 LINE",
"64 647 LINE",
"64 676 OFFCURVE",
"88 700 OFFCURVE",
"116 700 CURVE SMOOTH",
"430 700 LINE",
"458 700 OFFCURVE",
"482 676 OFFCURVE",
"482 647 CURVE SMOOTH",
"482 619 OFFCURVE",
"506 596 OFFCURVE",
"534 596 CURVE SMOOTH",
"735 596 LINE",
"763 596 OFFCURVE",
"787 571 OFFCURVE",
"787 542 CURVE SMOOTH",
"787 442 LINE",
"230 442 LINE",
"207 442 OFFCURVE",
"186 434 OFFCURVE",
"168 421 CURVE SMOOTH",
"149 409 OFFCURVE",
"135 390 OFFCURVE",
"127 369 CURVE SMOOTH"
);
},
{
closed = 1;
nodes = (
"64 3 LINE",
"65 174 LINE",
"129 381 LINE",
"133 395 OFFCURVE",
"192 442 OFFCURVE",
"207 442 CURVE SMOOTH",
"787 442 LINE",
"782 28 LINE",
"778 15 OFFCURVE",
"761 3 OFFCURVE",
"747 3 CURVE SMOOTH"
);
}
);
width = 953;
}
);
},
{
glyphname = uniE007;
lastChange = "2012-10-18 19:04:35 -0700";
layers = (
{
layerId = "976E1085-9D9E-4132-ADB4-8B20859A3B8B";
name = Regular;
paths = (
{
closed = 1;
nodes = (
"64 175 LINE",
"64 647 LINE",
"64 676 OFFCURVE",
"88 700 OFFCURVE",
"116 700 CURVE SMOOTH",
"430 700 LINE",
"458 700 OFFCURVE",
"482 676 OFFCURVE",
"482 647 CURVE SMOOTH",
"482 619 OFFCURVE",
"506 596 OFFCURVE",
"534 596 CURVE SMOOTH",
"735 596 LINE",
"763 596 OFFCURVE",
"787 571 OFFCURVE",
"787 542 CURVE SMOOTH",
"787 442 LINE",
"230 442 LINE",
"207 442 OFFCURVE",
"186 434 OFFCURVE",
"168 421 CURVE SMOOTH",
"149 409 OFFCURVE",
"135 390 OFFCURVE",
"127 369 CURVE SMOOTH"
);
},
{
closed = 1;
nodes = (
"83 3 LINE",
"195 347 LINE",
"199 361 OFFCURVE",
"216 372 OFFCURVE",
"231 372 CURVE SMOOTH",
"900 372 LINE",
"782 28 LINE",
"778 15 OFFCURVE",
"761 3 OFFCURVE",
"747 3 CURVE SMOOTH"
);
}
);
width = 953;
}
);
},
{
glyphname = uniE008;
lastChange = "2012-10-18 19:17:04 -0700";
layers = (
{
annotations = (
{
position = "{696.86313518793474, 581.12568713541259}";
type = Arrow;
},
{
position = "{745.05205372762464, 225.7161368641799}";
type = Arrow;
},
{
position = "{319.86859524410949, 406.45713347005676}";
type = Arrow;
}
);
layerId = "976E1085-9D9E-4132-ADB4-8B20859A3B8B";
name = Regular;
paths = (
{
closed = 1;
nodes = (
"79 418 LINE",
"79 420 OFFCURVE",
"83 423 OFFCURVE",
"88 426 CURVE",
"101 432 OFFCURVE",
"118 436 OFFCURVE",
"133 439 CURVE",
"149 443 LINE",
"150 457 OFFCURVE",
"153 470 OFFCURVE",
"160 481 CURVE",
"152 490 OFFCURVE",
"145 498 OFFCURVE",
"137 506 CURVE SMOOTH",
"130 513 OFFCURVE",
"122 521 OFFCURVE",
"114 528 CURVE",
"112 532 LINE",
"112 534 OFFCURVE",
"114 538 OFFCURVE",
"119 546 CURVE",
"129 560 OFFCURVE",
"143 578 OFFCURVE",
"155 592 CURVE",
"160 597 OFFCURVE",
"165 601 OFFCURVE",
"166 601 CURVE SMOOTH",
"167 601 OFFCURVE",
"170 601 OFFCURVE",
"175 597 CURVE",
"186 592 OFFCURVE",
"201 583 OFFCURVE",
"214 575 CURVE",
"226 567 LINE",
"237 576 OFFCURVE",
"249 583 OFFCURVE",
"261 588 CURVE",
"261 628 LINE SMOOTH",
"261 637 OFFCURVE",
"261 644 OFFCURVE",
"262 651 CURVE SMOOTH",
"263 657 OFFCURVE",
"265 661 OFFCURVE",
"268 662 CURVE",
"343 671 LINE",
"345 671 OFFCURVE",
"349 668 OFFCURVE",
"352 662 CURVE",
"357 649 OFFCURVE",
"361 633 OFFCURVE",
"364 616 CURVE",
"366 609 OFFCURVE",
"368 604 OFFCURVE",
"368 602 CURVE",
"382 600 OFFCURVE",
"395 596 OFFCURVE",
"407 592 CURVE",
"431 614 LINE",
"439 622 OFFCURVE",
"447 629 OFFCURVE",
"454 637 CURVE",
"457 638 LINE",
"458 639 OFFCURVE",
"463 636 OFFCURVE",
"470 632 CURVE",
"485 621 OFFCURVE",
"503 608 OFFCURVE",
"516 597 CURVE",
"523 590 OFFCURVE",
"527 587 OFFCURVE",
"527 585 CURVE SMOOTH",
"527 584 OFFCURVE",
"525 581 OFFCURVE",
"522 575 CURVE SMOOTH",
"516 563 OFFCURVE",
"507 549 OFFCURVE",
"501 537 CURVE",
"496 531 OFFCURVE",
"495 527 OFFCURVE",
"493 525 CURVE",
"501 515 OFFCURVE",
"508 503 OFFCURVE",
"515 488 CURVE",
"518 488 OFFCURVE",
"523 488 OFFCURVE",
"531 489 CURVE",
"546 488 OFFCURVE",
"563 488 OFFCURVE",
"577 485 CURVE",
"584 485 OFFCURVE",
"587 483 OFFCURVE",
"587 481 CURVE",
"597 406 LINE",
"597 403 OFFCURVE",
"595 401 OFFCURVE",
"588 398 CURVE SMOOTH",
"575 392 OFFCURVE",
"559 387 OFFCURVE",
"543 384 CURVE",
"535 382 OFFCURVE",
"531 381 OFFCURVE",
"529 380 CURVE",
"526 368 OFFCURVE",
"523 354 OFFCURVE",
"517 342 CURVE",
"526 334 OFFCURVE",
"533 325 OFFCURVE",
"540 318 CURVE SMOOTH",
"547 311 OFFCURVE",
"555 303 OFFCURVE",
"564 296 CURVE",
"565 292 LINE",
"565 290 OFFCURVE",
"563 286 OFFCURVE",
"558 278 CURVE SMOOTH",
"548 263 OFFCURVE",
"534 245 OFFCURVE",
"521 232 CURVE",
"516 226 OFFCURVE",
"512 222 OFFCURVE",
"511 222 CURVE SMOOTH",
"510 222 OFFCURVE",
"506 223 OFFCURVE",
"501 227 CURVE",
"482 237 LINE SMOOTH",
"475 241 OFFCURVE",
"468 245 OFFCURVE",
"463 249 CURVE",
"456 252 OFFCURVE",
"453 255 OFFCURVE",
"451 256 CURVE",
"439 248 OFFCURVE",
"428 240 OFFCURVE",
"415 235 CURVE",
"416 230 OFFCURVE",
"417 212 OFFCURVE",
"416 196 CURVE",
"415 186 OFFCURVE",
"415 179 OFFCURVE",
"414 173 CURVE SMOOTH",
"413 166 OFFCURVE",
"410 163 OFFCURVE",
"408 162 CURVE",
"333 153 LINE",
"331 152 OFFCURVE",
"329 155 OFFCURVE",
"326 162 CURVE",
"319 173 OFFCURVE",
"315 191 OFFCURVE",
"312 207 CURVE",
"310 213 OFFCURVE",
"308 218 OFFCURVE",
"308 221 CURVE",
"296 224 OFFCURVE",
"282 227 OFFCURVE",
"269 232 CURVE",
"254 217 OFFCURVE",
"238 202 OFFCURVE",
"223 186 CURVE",
"219 185 LINE",
"218 184 OFFCURVE",
"214 187 OFFCURVE",
"207 192 CURVE",
"192 201 OFFCURVE",
"175 215 OFFCURVE",
"161 228 CURVE",
"154 234 OFFCURVE",
"151 237 OFFCURVE",
"150 239 CURVE",
"155 249 LINE",
"159 255 OFFCURVE",
"162 260 OFFCURVE",
"166 268 CURVE SMOOTH",
"173 281 OFFCURVE",
"181 294 OFFCURVE",
"183 298 CURVE",
"175 309 OFFCURVE",
"168 321 OFFCURVE",
"161 336 CURVE",
"158 335 OFFCURVE",
"153 335 OFFCURVE",
"145 335 CURVE",
"130 336 OFFCURVE",
"113 335 OFFCURVE",
"100 338 CURVE",
"94 338 OFFCURVE",
"89 339 OFFCURVE",
"89 341 CURVE"
);
},
{
closed = 1;
nodes = (
"264 381 OFFCURVE",
"276 362 OFFCURVE",
"291 351 CURVE SMOOTH",
"307 339 OFFCURVE",
"328 333 OFFCURVE",
"348 335 CURVE",
"369 338 OFFCURVE",
"387 349 OFFCURVE",
"400 365 CURVE SMOOTH",
"411 379 OFFCURVE",
"417 400 OFFCURVE",
"415 421 CURVE",
"412 442 OFFCURVE",
"400 461 OFFCURVE",
"386 473 CURVE",
"370 484 OFFCURVE",
"349 491 OFFCURVE",
"328 488 CURVE SMOOTH",
"286 482 OFFCURVE",
"256 444 OFFCURVE",
"262 402 CURVE"
);
},
{
closed = 1;
nodes = (
"597 587 LINE",
"597 588 OFFCURVE",
"598 589 OFFCURVE",
"601 591 CURVE",
"606 593 OFFCURVE",
"614 595 OFFCURVE",
"621 597 CURVE",
"628 598 LINE",
"629 605 OFFCURVE",
"630 611 OFFCURVE",
"633 616 CURVE",
"629 620 OFFCURVE",
"626 623 OFFCURVE",
"623 627 CURVE SMOOTH",
"620 630 OFFCURVE",
"616 634 OFFCURVE",
"612 637 CURVE",
"611 639 LINE",
"611 639 OFFCURVE",
"612 641 OFFCURVE",
"615 645 CURVE",
"619 651 OFFCURVE",
"625 659 OFFCURVE",
"631 666 CURVE",
"633 668 OFFCURVE",
"635 670 OFFCURVE",
"636 670 CURVE SMOOTH",
"636 670 OFFCURVE",
"638 670 OFFCURVE",
"640 668 CURVE",
"645 666 OFFCURVE",
"652 662 OFFCURVE",
"657 658 CURVE",
"663 654 LINE",
"668 658 OFFCURVE",
"673 662 OFFCURVE",
"679 664 CURVE",
"679 682 LINE SMOOTH",
"679 686 OFFCURVE",
"679 689 OFFCURVE",
"679 692 CURVE SMOOTH",
"680 695 OFFCURVE",
"681 697 OFFCURVE",
"682 697 CURVE",
"716 701 LINE",
"717 701 OFFCURVE",
"718 700 OFFCURVE",
"720 697 CURVE",
"722 691 OFFCURVE",
"724 684 OFFCURVE",
"725 677 CURVE",
"726 673 OFFCURVE",
"727 671 OFFCURVE",
"727 670 CURVE",
"733 669 OFFCURVE",
"739 668 OFFCURVE",
"745 666 CURVE",
"756 676 LINE",
"759 679 OFFCURVE",
"763 682 OFFCURVE",
"766 686 CURVE",
"767 686 LINE",
"768 687 OFFCURVE",
"770 686 OFFCURVE",
"773 684 CURVE",
"780 679 OFFCURVE",
"788 673 OFFCURVE",
"794 668 CURVE",
"797 665 OFFCURVE",
"799 663 OFFCURVE",
"799 663 CURVE SMOOTH",
"799 662 OFFCURVE",
"798 661 OFFCURVE",
"797 658 CURVE SMOOTH",
"794 653 OFFCURVE",
"790 646 OFFCURVE",
"787 641 CURVE",
"785 638 OFFCURVE",
"784 636 OFFCURVE",
"784 635 CURVE",
"787 631 OFFCURVE",
"790 625 OFFCURVE",
"793 619 CURVE",
"795 619 OFFCURVE",
"797 619 OFFCURVE",
"801 619 CURVE",
"807 619 OFFCURVE",
"815 619 OFFCURVE",
"821 617 CURVE",
"825 617 OFFCURVE",
"826 616 OFFCURVE",
"826 616 CURVE",
"831 582 LINE",
"831 580 OFFCURVE",
"830 579 OFFCURVE",
"826 578 CURVE SMOOTH",
"821 575 OFFCURVE",
"813 573 OFFCURVE",
"806 572 CURVE",
"802 571 OFFCURVE",
"801 570 OFFCURVE",
"800 570 CURVE",
"798 565 OFFCURVE",
"797 558 OFFCURVE",
"794 553 CURVE",
"798 549 OFFCURVE",
"802 545 OFFCURVE",
"805 542 CURVE SMOOTH",
"808 539 OFFCURVE",
"812 535 OFFCURVE",
"816 532 CURVE",
"816 530 LINE",
"816 529 OFFCURVE",
"815 527 OFFCURVE",
"813 524 CURVE SMOOTH",
"808 517 OFFCURVE",
"802 509 OFFCURVE",
"796 503 CURVE",
"794 500 OFFCURVE",
"792 499 OFFCURVE",
"792 499 CURVE SMOOTH",
"791 499 OFFCURVE",
"789 499 OFFCURVE",
"787 501 CURVE",
"779 505 LINE SMOOTH",
"775 507 OFFCURVE",
"772 509 OFFCURVE",
"770 511 CURVE",
"767 512 OFFCURVE",
"765 513 OFFCURVE",
"765 514 CURVE",
"759 510 OFFCURVE",
"754 507 OFFCURVE",
"748 504 CURVE",
"749 502 OFFCURVE",
"749 494 OFFCURVE",
"749 487 CURVE",
"748 482 OFFCURVE",
"748 479 OFFCURVE",
"748 476 CURVE SMOOTH",
"747 473 OFFCURVE",
"746 472 OFFCURVE",
"745 471 CURVE",
"711 467 LINE",
"710 467 OFFCURVE",
"709 468 OFFCURVE",
"708 471 CURVE",
"705 476 OFFCURVE",
"703 485 OFFCURVE",
"702 492 CURVE",
"701 494 OFFCURVE",
"700 497 OFFCURVE",
"700 498 CURVE",
"695 499 OFFCURVE",
"688 501 OFFCURVE",
"682 503 CURVE",
"676 496 OFFCURVE",
"668 490 OFFCURVE",
"662 482 CURVE",
"660 482 LINE",
"659 481 OFFCURVE",
"657 483 OFFCURVE",
"654 485 CURVE",
"648 489 OFFCURVE",
"640 495 OFFCURVE",
"634 501 CURVE",
"630 504 OFFCURVE",
"629 505 OFFCURVE",
"629 506 CURVE",
"631 511 LINE",
"633 513 OFFCURVE",
"634 516 OFFCURVE",
"636 519 CURVE SMOOTH",
"639 525 OFFCURVE",
"643 531 OFFCURVE",
"643 533 CURVE",
"640 538 OFFCURVE",
"637 543 OFFCURVE",
"634 550 CURVE",
"632 550 OFFCURVE",
"630 550 OFFCURVE",
"626 550 CURVE",
"620 550 OFFCURVE",
"612 550 OFFCURVE",
"606 551 CURVE",
"603 551 OFFCURVE",
"601 551 OFFCURVE",
"601 552 CURVE"
);
},
{
closed = 1;
nodes = (
"680 570 OFFCURVE",
"685 562 OFFCURVE",
"692 557 CURVE SMOOTH",
"699 551 OFFCURVE",
"709 549 OFFCURVE",
"718 550 CURVE",
"728 551 OFFCURVE",
"736 556 OFFCURVE",
"742 563 CURVE SMOOTH",
"746 569 OFFCURVE",
"749 579 OFFCURVE",
"748 588 CURVE",
"747 598 OFFCURVE",
"742 607 OFFCURVE",
"735 612 CURVE",
"728 617 OFFCURVE",
"718 620 OFFCURVE",
"709 619 CURVE SMOOTH",
"690 616 OFFCURVE",
"676 599 OFFCURVE",
"679 580 CURVE"
);
},
{
closed = 1;
nodes = (
"582 232 LINE",
"582 233 OFFCURVE",
"584 235 OFFCURVE",
"588 237 CURVE",
"597 241 OFFCURVE",
"608 244 OFFCURVE",
"619 246 CURVE",
"630 249 LINE",
"630 258 OFFCURVE",
"632 267 OFFCURVE",
"637 275 CURVE",
"632 281 OFFCURVE",
"627 286 OFFCURVE",
"621 292 CURVE SMOOTH",
"617 297 OFFCURVE",
"611 302 OFFCURVE",
"606 307 CURVE",
"604 310 LINE",
"604 311 OFFCURVE",
"606 314 OFFCURVE",
"609 319 CURVE",
"616 329 OFFCURVE",
"625 341 OFFCURVE",
"634 351 CURVE",
"637 355 OFFCURVE",
"641 357 OFFCURVE",
"641 357 CURVE SMOOTH",
"642 357 OFFCURVE",
"644 357 OFFCURVE",
"647 355 CURVE",
"655 351 OFFCURVE",
"665 345 OFFCURVE",
"674 339 CURVE",
"683 334 LINE",
"690 340 OFFCURVE",
"698 345 OFFCURVE",
"707 348 CURVE",
"707 376 LINE SMOOTH",
"707 382 OFFCURVE",
"707 387 OFFCURVE",
"707 392 CURVE SMOOTH",
"708 396 OFFCURVE",
"709 399 OFFCURVE",
"711 399 CURVE",
"763 405 LINE",
"764 405 OFFCURVE",
"767 403 OFFCURVE",
"769 399 CURVE",
"773 390 OFFCURVE",
"775 379 OFFCURVE",
"777 368 CURVE",
"779 363 OFFCURVE",
"780 359 OFFCURVE",
"780 358 CURVE",
"790 357 OFFCURVE",
"799 354 OFFCURVE",
"807 351 CURVE",
"823 366 LINE",
"829 372 OFFCURVE",
"834 377 OFFCURVE",
"839 382 CURVE",
"841 383 LINE",
"842 383 OFFCURVE",
"845 381 OFFCURVE",
"850 379 CURVE",
"861 371 OFFCURVE",
"873 362 OFFCURVE",
"882 355 CURVE",
"887 350 OFFCURVE",
"889 348 OFFCURVE",
"889 346 CURVE SMOOTH",
"889 346 OFFCURVE",
"888 344 OFFCURVE",
"886 339 CURVE SMOOTH",
"882 331 OFFCURVE",
"876 322 OFFCURVE",
"872 313 CURVE",
"868 309 OFFCURVE",
"867 306 OFFCURVE",
"866 305 CURVE",
"872 298 OFFCURVE",
"876 290 OFFCURVE",
"881 280 CURVE",
"883 280 OFFCURVE",
"887 280 OFFCURVE",
"892 280 CURVE",
"902 280 OFFCURVE",
"914 280 OFFCURVE",
"924 278 CURVE",
"929 278 OFFCURVE",
"931 276 OFFCURVE",
"931 275 CURVE",
"938 223 LINE",
"938 221 OFFCURVE",
"936 220 OFFCURVE",
"931 218 CURVE SMOOTH",
"922 214 OFFCURVE",
"911 210 OFFCURVE",
"900 208 CURVE",
"895 207 OFFCURVE",
"892 206 OFFCURVE",
"891 205 CURVE",
"889 197 OFFCURVE",
"887 188 OFFCURVE",
"883 179 CURVE",
"889 174 OFFCURVE",
"894 168 OFFCURVE",
"898 163 CURVE SMOOTH",
"903 158 OFFCURVE",
"909 152 OFFCURVE",
"915 148 CURVE",
"916 145 LINE",
"916 144 OFFCURVE",
"914 141 OFFCURVE",
"911 135 CURVE SMOOTH",
"904 125 OFFCURVE",
"894 113 OFFCURVE",
"885 104 CURVE",
"882 100 OFFCURVE",
"879 97 OFFCURVE",
"878 97 CURVE SMOOTH",
"878 97 OFFCURVE",
"875 97 OFFCURVE",
"872 100 CURVE",
"858 107 LINE",
"854 110 OFFCURVE",
"849 113 OFFCURVE",
"845 115 CURVE",
"841 117 OFFCURVE",
"839 119 OFFCURVE",
"837 120 CURVE",
"829 115 OFFCURVE",
"821 109 OFFCURVE",
"812 106 CURVE",
"813 102 OFFCURVE",
"814 90 OFFCURVE",
"813 79 CURVE",
"812 72 OFFCURVE",
"812 67 OFFCURVE",
"812 63 CURVE SMOOTH",
"811 58 OFFCURVE",
"809 56 OFFCURVE",
"808 56 CURVE",
"756 49 LINE",
"755 49 OFFCURVE",
"753 51 OFFCURVE",
"751 56 CURVE",
"746 63 OFFCURVE",
"744 76 OFFCURVE",
"742 86 CURVE",
"740 91 OFFCURVE",
"739 94 OFFCURVE",
"739 96 CURVE",
"731 98 OFFCURVE",
"721 100 OFFCURVE",
"712 104 CURVE",
"702 93 OFFCURVE",
"691 83 OFFCURVE",
"680 72 CURVE",
"678 71 LINE",
"677 71 OFFCURVE",
"674 73 OFFCURVE",
"669 76 CURVE",
"659 82 OFFCURVE",
"647 92 OFFCURVE",
"638 101 CURVE",
"633 105 OFFCURVE",
"631 107 OFFCURVE",
"630 108 CURVE",
"634 115 LINE",
"636 119 OFFCURVE",
"639 123 OFFCURVE",
"641 128 CURVE SMOOTH",
"646 137 OFFCURVE",
"652 146 OFFCURVE",
"653 149 CURVE",
"647 157 OFFCURVE",
"643 165 OFFCURVE",
"638 175 CURVE",
"636 174 OFFCURVE",
"632 174 OFFCURVE",
"627 174 CURVE",
"617 175 OFFCURVE",
"605 174 OFFCURVE",
"596 177 CURVE",
"592 177 OFFCURVE",
"588 177 OFFCURVE",
"588 179 CURVE"
);
},
{
closed = 1;
nodes = (
"709 206 OFFCURVE",
"717 193 OFFCURVE",
"727 185 CURVE SMOOTH",
"738 177 OFFCURVE",
"753 173 OFFCURVE",
"766 174 CURVE",
"781 177 OFFCURVE",
"793 184 OFFCURVE",
"802 195 CURVE SMOOTH",
"810 205 OFFCURVE",
"814 219 OFFCURVE",
"812 234 CURVE",
"810 248 OFFCURVE",
"802 261 OFFCURVE",
"792 269 CURVE",
"781 277 OFFCURVE",
"767 282 OFFCURVE",
"753 280 CURVE SMOOTH",
"724 275 OFFCURVE",
"703 249 OFFCURVE",
"707 221 CURVE"
);
}
);
width = 953;
}
);
},
{
glyphname = uniE009;
lastChange = "2012-10-18 19:18:03 -0700";
layers = (
{
annotations = (
{
position = "{696.86313518793474, 581.12568713541259}";
type = Arrow;
},
{
position = "{745.05205372762464, 225.7161368641799}";
type = Arrow;
},
{
position = "{319.86859524410949, 406.45713347005676}";
type = Arrow;
}
);
layerId = "976E1085-9D9E-4132-ADB4-8B20859A3B8B";
name = Regular;
paths = (
{
closed = 1;
nodes = (
"85 352 LINE",
"85 354 OFFCURVE",
"88 358 OFFCURVE",
"92 362 CURVE",
"103 371 OFFCURVE",
"118 379 OFFCURVE",
"132 386 CURVE",
"147 394 LINE",
"144 408 OFFCURVE",
"144 421 OFFCURVE",
"148 433 CURVE",
"138 440 OFFCURVE",
"129 446 OFFCURVE",
"119 452 CURVE SMOOTH",
"110 457 OFFCURVE",
"101 462 OFFCURVE",
"91 467 CURVE",
"88 470 LINE",
"88 472 OFFCURVE",
"89 477 OFFCURVE",
"91 486 CURVE",
"97 502 OFFCURVE",
"106 523 OFFCURVE",
"114 539 CURVE",
"118 546 OFFCURVE",
"122 551 OFFCURVE",
"123 551 CURVE SMOOTH",
"124 551 OFFCURVE",
"127 552 OFFCURVE",
"132 549 CURVE",
"144 547 OFFCURVE",
"161 542 OFFCURVE",
"176 538 CURVE",
"189 533 LINE",
"198 545 OFFCURVE",
"208 555 OFFCURVE",
"218 563 CURVE",
"208 601 LINE SMOOTH",
"205 610 OFFCURVE",
"204 617 OFFCURVE",
"203 624 CURVE SMOOTH",
"202 630 OFFCURVE",
"203 634 OFFCURVE",
"206 636 CURVE",
"276 664 LINE",
"278 664 OFFCURVE",
"283 662 OFFCURVE",
"287 657 CURVE",
"295 646 OFFCURVE",
"303 632 OFFCURVE",
"310 616 CURVE",
"314 610 OFFCURVE",
"317 605 OFFCURVE",
"318 603 CURVE",
"332 605 OFFCURVE",
"345 605 OFFCURVE",
"358 604 CURVE",
"376 631 LINE",
"381 641 OFFCURVE",
"387 650 OFFCURVE",
"392 659 CURVE",
"395 661 LINE",
"395 662 OFFCURVE",
"401 661 OFFCURVE",
"409 659 CURVE",
"426 652 OFFCURVE",
"447 644 OFFCURVE",
"462 636 CURVE",
"471 631 OFFCURVE",
"475 630 OFFCURVE",
"476 628 CURVE SMOOTH",
"476 627 OFFCURVE",
"475 623 OFFCURVE",
"474 617 CURVE SMOOTH",
"471 604 OFFCURVE",
"466 588 OFFCURVE",
"463 575 CURVE",
"460 568 OFFCURVE",
"460 563 OFFCURVE",
"458 561 CURVE",
"469 553 OFFCURVE",
"478 544 OFFCURVE",
"489 531 CURVE",
"492 532 OFFCURVE",
"497 533 OFFCURVE",
"504 536 CURVE",
"519 539 OFFCURVE",
"535 543 OFFCURVE",
"550 544 CURVE",
"556 546 OFFCURVE",
"560 544 OFFCURVE",
"560 542 CURVE",
"589 472 LINE",
"590 470 OFFCURVE",
"589 467 OFFCURVE",
"583 462 CURVE SMOOTH",
"572 453 OFFCURVE",
"557 444 OFFCURVE",
"543 437 CURVE",
"535 433 OFFCURVE",
"532 431 OFFCURVE",
"530 430 CURVE",
"530 418 OFFCURVE",
"531 403 OFFCURVE",
"528 390 CURVE",
"539 385 OFFCURVE",
"548 378 OFFCURVE",
"557 373 CURVE SMOOTH",
"565 368 OFFCURVE",
"575 362 OFFCURVE",
"585 358 CURVE",
"587 354 LINE",
"588 352 OFFCURVE",
"587 348 OFFCURVE",
"584 339 CURVE SMOOTH",
"578 322 OFFCURVE",
"569 301 OFFCURVE",
"560 285 CURVE",
"557 278 OFFCURVE",
"554 273 OFFCURVE",
"553 273 CURVE SMOOTH",
"552 272 OFFCURVE",
"548 272 OFFCURVE",
"542 275 CURVE",
"521 280 LINE SMOOTH",
"513 282 OFFCURVE",
"506 284 OFFCURVE",
"500 286 CURVE",
"492 288 OFFCURVE",
"489 290 OFFCURVE",
"486 290 CURVE",
"477 279 OFFCURVE",
"468 269 OFFCURVE",
"457 261 CURVE",
"459 256 OFFCURVE",
"465 239 OFFCURVE",
"468 223 CURVE",
"469 213 OFFCURVE",
"471 207 OFFCURVE",
"472 200 CURVE SMOOTH",
"473 193 OFFCURVE",
"470 190 OFFCURVE",
"469 188 CURVE",
"399 160 LINE",
"397 159 OFFCURVE",
"394 161 OFFCURVE",
"389 167 CURVE",
"380 176 OFFCURVE",
"371 193 OFFCURVE",
"364 207 CURVE",
"361 213 OFFCURVE",
"358 217 OFFCURVE",
"357 220 CURVE",
"345 220 OFFCURVE",
"330 219 OFFCURVE",
"317 220 CURVE",
"306 202 OFFCURVE",
"294 184 OFFCURVE",
"284 164 CURVE",
"280 162 LINE",
"279 161 OFFCURVE",
"275 163 OFFCURVE",
"267 166 CURVE",
"250 171 OFFCURVE",
"230 180 OFFCURVE",
"213 189 CURVE",
"205 193 OFFCURVE",
"201 195 OFFCURVE",
"200 197 CURVE",
"202 208 LINE",
"204 215 OFFCURVE",
"206 220 OFFCURVE",
"208 229 CURVE SMOOTH",
"211 243 OFFCURVE",
"216 258 OFFCURVE",
"217 262 CURVE",
"206 271 OFFCURVE",
"196 281 OFFCURVE",
"186 293 CURVE",
"183 292 OFFCURVE",
"178 290 OFFCURVE",
"170 288 CURVE",
"156 286 OFFCURVE",
"139 280 OFFCURVE",
"126 280 CURVE",
"120 278 OFFCURVE",
"115 278 OFFCURVE",
"115 280 CURVE"
);
},
{
closed = 1;
nodes = (
"274 363 OFFCURVE",
"290 348 OFFCURVE",
"307 341 CURVE SMOOTH",
"326 334 OFFCURVE",
"348 333 OFFCURVE",
"367 340 CURVE",
"386 349 OFFCURVE",
"401 364 OFFCURVE",
"409 383 CURVE SMOOTH",
"416 399 OFFCURVE",
"417 421 OFFCURVE",
"409 440 CURVE",
"401 460 OFFCURVE",
"385 475 OFFCURVE",
"368 483 CURVE",
"350 490 OFFCURVE",
"328 491 OFFCURVE",
"308 483 CURVE SMOOTH",
"269 467 OFFCURVE",
"250 422 OFFCURVE",
"266 383 CURVE"
);
},
{
closed = 1;
nodes = (
"622 511 LINE",
"622 511 OFFCURVE",
"622 513 OFFCURVE",
"623 516 CURVE",
"626 522 OFFCURVE",
"630 528 OFFCURVE",
"635 534 CURVE",
"639 540 LINE",
"635 545 OFFCURVE",
"633 550 OFFCURVE",
"632 556 CURVE",
"626 557 OFFCURVE",
"622 557 OFFCURVE",
"617 558 CURVE SMOOTH",
"612 558 OFFCURVE",
"607 559 OFFCURVE",
"602 559 CURVE",
"600 560 LINE",
"600 560 OFFCURVE",
"599 562 OFFCURVE",
"599 566 CURVE",
"598 574 OFFCURVE",
"598 584 OFFCURVE",
"598 593 CURVE",
"598 596 OFFCURVE",
"598 599 OFFCURVE",
"599 599 CURVE SMOOTH",
"599 599 OFFCURVE",
"600 600 OFFCURVE",
"603 600 CURVE",
"608 602 OFFCURVE",
"616 603 OFFCURVE",
"623 604 CURVE",
"629 605 LINE",
"631 611 OFFCURVE",
"633 617 OFFCURVE",
"635 622 CURVE",
"624 636 LINE SMOOTH",
"621 639 OFFCURVE",
"619 642 OFFCURVE",
"617 644 CURVE SMOOTH",
"616 647 OFFCURVE",
"615 649 OFFCURVE",
"616 650 CURVE",
"639 675 LINE",
"640 675 OFFCURVE",
"642 676 OFFCURVE",
"645 674 CURVE",
"651 671 OFFCURVE",
"657 667 OFFCURVE",
"663 662 CURVE",
"665 660 OFFCURVE",
"668 659 OFFCURVE",
"668 658 CURVE",
"674 662 OFFCURVE",
"679 664 OFFCURVE",
"685 666 CURVE",
"686 681 LINE",
"687 686 OFFCURVE",
"688 691 OFFCURVE",
"688 695 CURVE",
"688 697 LINE",
"688 697 OFFCURVE",
"691 698 OFFCURVE",
"695 698 CURVE",
"703 699 OFFCURVE",
"713 700 OFFCURVE",
"721 700 CURVE",
"725 699 OFFCURVE",
"727 700 OFFCURVE",
"728 699 CURVE SMOOTH",
"728 698 OFFCURVE",
"729 697 OFFCURVE",
"729 694 CURVE SMOOTH",
"731 688 OFFCURVE",
"732 681 OFFCURVE",
"733 675 CURVE",
"733 671 OFFCURVE",
"734 669 OFFCURVE",
"734 668 CURVE",
"739 667 OFFCURVE",
"745 665 OFFCURVE",
"752 662 CURVE",
"753 663 OFFCURVE",
"755 664 OFFCURVE",
"757 667 CURVE",
"763 671 OFFCURVE",
"769 676 OFFCURVE",
"774 679 CURVE",
"777 681 OFFCURVE",
"778 681 OFFCURVE",
"779 680 CURVE",
"804 657 LINE",
"805 656 OFFCURVE",
"805 655 OFFCURVE",
"804 652 CURVE SMOOTH",
"801 646 OFFCURVE",
"797 640 OFFCURVE",
"792 634 CURVE",
"790 631 OFFCURVE",
"789 630 OFFCURVE",
"788 629 CURVE",
"791 624 OFFCURVE",
"794 618 OFFCURVE",
"795 612 CURVE",
"801 612 OFFCURVE",
"806 611 OFFCURVE",
"810 610 CURVE SMOOTH",
"815 610 OFFCURVE",
"820 610 OFFCURVE",
"825 610 CURVE",
"827 609 LINE",
"827 608 OFFCURVE",
"828 606 OFFCURVE",
"828 602 CURVE SMOOTH",
"829 594 OFFCURVE",
"830 584 OFFCURVE",
"829 575 CURVE",
"829 572 OFFCURVE",
"829 569 OFFCURVE",
"828 569 CURVE SMOOTH",
"828 569 OFFCURVE",
"826 568 OFFCURVE",
"823 568 CURVE",
"814 566 LINE",
"810 565 OFFCURVE",
"807 564 OFFCURVE",
"804 564 CURVE",
"801 563 OFFCURVE",
"799 563 OFFCURVE",
"798 563 CURVE",
"796 557 OFFCURVE",
"794 551 OFFCURVE",
"791 545 CURVE",
"793 544 OFFCURVE",
"799 538 OFFCURVE",
"803 532 CURVE",
"806 529 OFFCURVE",
"808 526 OFFCURVE",
"809 524 CURVE SMOOTH",
"811 521 OFFCURVE",
"811 519 OFFCURVE",
"810 518 CURVE",
"787 493 LINE",
"787 492 OFFCURVE",
"785 493 OFFCURVE",
"782 494 CURVE",
"776 496 OFFCURVE",
"770 501 OFFCURVE",
"764 506 CURVE",
"762 507 OFFCURVE",
"759 508 OFFCURVE",
"759 509 CURVE",
"754 507 OFFCURVE",
"748 504 OFFCURVE",
"742 502 CURVE",
"741 492 OFFCURVE",
"740 482 OFFCURVE",
"739 473 CURVE",
"738 471 LINE",
"738 470 OFFCURVE",
"736 470 OFFCURVE",
"732 470 CURVE",
"724 469 OFFCURVE",
"714 469 OFFCURVE",
"706 469 CURVE",
"702 469 OFFCURVE",
"700 469 OFFCURVE",
"699 470 CURVE",
"698 474 LINE",
"697 478 OFFCURVE",
"697 480 OFFCURVE",
"696 484 CURVE SMOOTH",
"695 491 OFFCURVE",
"694 498 OFFCURVE",
"693 499 CURVE",
"687 501 OFFCURVE",
"681 503 OFFCURVE",
"674 506 CURVE",
"674 505 OFFCURVE",
"672 504 OFFCURVE",
"669 501 CURVE",
"664 497 OFFCURVE",
"658 492 OFFCURVE",
"653 489 CURVE",
"651 487 OFFCURVE",
"649 486 OFFCURVE",
"648 487 CURVE"
);
},
{
closed = 1;
nodes = (
"697 552 OFFCURVE",
"706 549 OFFCURVE",
"715 549 CURVE SMOOTH",
"724 550 OFFCURVE",
"733 554 OFFCURVE",
"739 560 CURVE",
"746 568 OFFCURVE",
"749 577 OFFCURVE",
"748 586 CURVE SMOOTH",
"748 594 OFFCURVE",
"744 603 OFFCURVE",
"737 610 CURVE",
"730 616 OFFCURVE",
"720 619 OFFCURVE",
"712 619 CURVE",
"703 618 OFFCURVE",
"694 614 OFFCURVE",
"688 607 CURVE SMOOTH",
"675 593 OFFCURVE",
"676 571 OFFCURVE",
"690 558 CURVE"
);
},
{
closed = 1;
nodes = (
"604 141 LINE",
"603 142 OFFCURVE",
"604 145 OFFCURVE",
"606 148 CURVE",
"612 157 OFFCURVE",
"620 165 OFFCURVE",
"628 172 CURVE",
"636 180 LINE",
"632 188 OFFCURVE",
"629 197 OFFCURVE",
"630 206 CURVE",
"622 209 OFFCURVE",
"615 211 OFFCURVE",
"607 213 CURVE SMOOTH",
"601 215 OFFCURVE",
"593 217 OFFCURVE",
"586 218 CURVE",
"584 220 LINE",
"583 221 OFFCURVE",
"583 224 OFFCURVE",
"583 230 CURVE",
"584 242 OFFCURVE",
"586 258 OFFCURVE",
"588 270 CURVE",
"589 275 OFFCURVE",
"591 279 OFFCURVE",
"592 279 CURVE SMOOTH",
"592 280 OFFCURVE",
"594 281 OFFCURVE",
"598 280 CURVE",
"607 281 OFFCURVE",
"619 281 OFFCURVE",
"629 281 CURVE",
"639 280 LINE",
"642 289 OFFCURVE",
"647 298 OFFCURVE",
"652 305 CURVE",
"639 328 LINE SMOOTH",
"635 334 OFFCURVE",
"633 338 OFFCURVE",
"631 342 CURVE SMOOTH",
"630 346 OFFCURVE",
"629 349 OFFCURVE",
"631 351 CURVE",
"672 382 LINE",
"673 383 OFFCURVE",
"677 383 OFFCURVE",
"681 380 CURVE",
"688 374 OFFCURVE",
"696 366 OFFCURVE",
"704 357 CURVE",
"707 354 OFFCURVE",
"710 351 OFFCURVE",
"711 350 CURVE",
"720 354 OFFCURVE",
"729 356 OFFCURVE",
"738 358 CURVE",
"744 379 LINE",
"746 387 OFFCURVE",
"749 394 OFFCURVE",
"750 401 CURVE",
"751 402 LINE",
"752 403 OFFCURVE",
"756 403 OFFCURVE",
"761 403 CURVE",
"774 402 OFFCURVE",
"789 401 OFFCURVE",
"801 399 CURVE",
"807 397 OFFCURVE",
"811 396 OFFCURVE",
"811 395 CURVE SMOOTH",
"812 395 OFFCURVE",
"811 392 OFFCURVE",
"812 388 CURVE SMOOTH",
"812 378 OFFCURVE",
"812 367 OFFCURVE",
"813 358 CURVE",
"812 352 OFFCURVE",
"812 350 OFFCURVE",
"812 348 CURVE",
"820 345 OFFCURVE",
"828 340 OFFCURVE",
"838 334 CURVE",
"840 335 OFFCURVE",
"843 336 OFFCURVE",
"847 340 CURVE",
"856 344 OFFCURVE",
"866 350 OFFCURVE",
"876 353 CURVE",
"880 356 OFFCURVE",
"882 356 OFFCURVE",
"883 354 CURVE",
"915 313 LINE",
"916 312 OFFCURVE",
"915 310 OFFCURVE",
"912 306 CURVE SMOOTH",
"907 297 OFFCURVE",
"899 289 OFFCURVE",
"891 282 CURVE",
"887 278 OFFCURVE",
"884 276 OFFCURVE",
"884 274 CURVE",
"886 266 OFFCURVE",
"889 257 OFFCURVE",
"890 248 CURVE",
"898 246 OFFCURVE",
"905 243 OFFCURVE",
"912 241 CURVE SMOOTH",
"918 240 OFFCURVE",
"926 238 OFFCURVE",
"934 237 CURVE",
"936 235 LINE",
"936 234 OFFCURVE",
"936 230 OFFCURVE",
"936 224 CURVE SMOOTH",
"936 212 OFFCURVE",
"933 196 OFFCURVE",
"930 184 CURVE",
"929 179 OFFCURVE",
"928 175 OFFCURVE",
"928 174 CURVE SMOOTH",
"927 174 OFFCURVE",
"925 173 OFFCURVE",
"920 174 CURVE",
"905 173 LINE",
"900 173 OFFCURVE",
"894 173 OFFCURVE",
"890 174 CURVE",
"885 173 OFFCURVE",
"882 174 OFFCURVE",
"880 174 CURVE",
"876 165 OFFCURVE",
"872 156 OFFCURVE",
"866 149 CURVE",
"869 146 OFFCURVE",
"876 136 OFFCURVE",
"881 126 CURVE",
"883 120 OFFCURVE",
"886 116 OFFCURVE",
"887 112 CURVE SMOOTH",
"889 107 OFFCURVE",
"888 104 OFFCURVE",
"888 103 CURVE",
"846 72 LINE",
"845 70 OFFCURVE",
"843 71 OFFCURVE",
"839 75 CURVE",
"831 79 OFFCURVE",
"822 88 OFFCURVE",
"815 96 CURVE",
"812 99 OFFCURVE",
"809 102 OFFCURVE",
"808 103 CURVE",
"800 101 OFFCURVE",
"790 98 OFFCURVE",
"781 96 CURVE",
"777 82 OFFCURVE",
"773 68 OFFCURVE",
"770 53 CURVE",
"768 51 LINE",
"767 50 OFFCURVE",
"764 51 OFFCURVE",
"758 51 CURVE",
"746 51 OFFCURVE",
"731 54 OFFCURVE",
"718 56 CURVE",
"712 58 OFFCURVE",
"709 58 OFFCURVE",
"708 59 CURVE",
"707 67 LINE",
"708 72 OFFCURVE",
"708 76 OFFCURVE",
"707 82 CURVE SMOOTH",
"707 92 OFFCURVE",
"707 103 OFFCURVE",
"707 106 CURVE",
"698 109 OFFCURVE",
"690 114 OFFCURVE",
"681 120 CURVE",
"679 119 OFFCURVE",
"676 117 OFFCURVE",
"672 114 CURVE",
"662 110 OFFCURVE",
"653 103 OFFCURVE",
"644 100 CURVE",
"640 98 OFFCURVE",
"637 97 OFFCURVE",
"636 98 CURVE"
);
},
{
closed = 1;
nodes = (
"726 183 OFFCURVE",
"740 176 OFFCURVE",
"753 175 CURVE SMOOTH",
"766 173 OFFCURVE",
"781 177 OFFCURVE",
"792 185 CURVE",
"803 194 OFFCURVE",
"810 207 OFFCURVE",
"812 221 CURVE SMOOTH",
"814 233 OFFCURVE",
"810 247 OFFCURVE",
"802 259 CURVE",
"793 271 OFFCURVE",
"779 278 OFFCURVE",
"767 280 CURVE",
"753 281 OFFCURVE",
"738 278 OFFCURVE",
"727 269 CURVE SMOOTH",
"704 250 OFFCURVE",
"700 218 OFFCURVE",
"718 195 CURVE"
);
}
);
width = 953;
}
);
},
{
glyphname = uniE00A;
lastChange = "2012-10-18 20:01:53 -0700";
layers = (
{
annotations = (
{
position = "{696.86313518793474, 581.12568713541259}";
type = Arrow;
},
{
position = "{745.05205372762464, 225.7161368641799}";
type = Arrow;
},
{
position = "{319.86859524410949, 406.45713347005676}";
type = Arrow;
}
);
layerId = "976E1085-9D9E-4132-ADB4-8B20859A3B8B";
name = Regular;
paths = (
{
closed = 1;
nodes = (
"111 285 LINE",
"110 286 OFFCURVE",
"112 291 OFFCURVE",
"115 296 CURVE",
"123 308 OFFCURVE",
"136 320 OFFCURVE",
"147 330 CURVE",
"159 342 LINE",
"153 354 OFFCURVE",
"149 367 OFFCURVE",
"149 380 CURVE",
"138 384 OFFCURVE",
"127 387 OFFCURVE",
"117 390 CURVE SMOOTH",
"107 392 OFFCURVE",
"96 395 OFFCURVE",
"86 397 CURVE",
"82 399 LINE",
"81 401 OFFCURVE",
"80 406 OFFCURVE",
"81 415 CURVE",
"82 432 OFFCURVE",
"85 455 OFFCURVE",
"88 473 CURVE",
"90 480 OFFCURVE",
"92 486 OFFCURVE",
"93 486 CURVE SMOOTH",
"94 487 OFFCURVE",
"97 488 OFFCURVE",
"103 487 CURVE",
"115 489 OFFCURVE",
"132 489 OFFCURVE",
"148 488 CURVE",
"162 488 LINE",
"167 501 OFFCURVE",
"174 513 OFFCURVE",
"182 524 CURVE",
"161 558 LINE SMOOTH",
"157 566 OFFCURVE",
"153 572 OFFCURVE",
"150 578 CURVE SMOOTH",
"148 584 OFFCURVE",
"148 588 OFFCURVE",
"150 591 CURVE",
"210 637 LINE",
"212 638 OFFCURVE",
"217 637 OFFCURVE",
"222 634 CURVE",
"233 625 OFFCURVE",
"245 613 OFFCURVE",
"256 600 CURVE",
"261 595 OFFCURVE",
"265 592 OFFCURVE",
"266 590 CURVE",
"280 595 OFFCURVE",
"293 599 OFFCURVE",
"305 601 CURVE",
"315 632 LINE",
"317 643 OFFCURVE",
"321 653 OFFCURVE",
"323 664 CURVE",
"325 666 LINE",
"325 668 OFFCURVE",
"331 668 OFFCURVE",
"339 668 CURVE",
"357 666 OFFCURVE",
"380 664 OFFCURVE",
"396 661 CURVE",
"406 659 OFFCURVE",
"411 658 OFFCURVE",
"412 656 CURVE SMOOTH",
"412 655 OFFCURVE",
"412 652 OFFCURVE",
"413 645 CURVE SMOOTH",
"414 632 OFFCURVE",
"413 615 OFFCURVE",
"414 602 CURVE",
"413 594 OFFCURVE",
"414 590 OFFCURVE",
"413 587 CURVE",
"425 583 OFFCURVE",
"437 576 OFFCURVE",
"451 567 CURVE",
"454 568 OFFCURVE",
"458 571 OFFCURVE",
"464 576 CURVE",
"478 583 OFFCURVE",
"492 591 OFFCURVE",
"506 596 CURVE",
"512 599 OFFCURVE",
"516 599 OFFCURVE",
"517 597 CURVE",
"563 538 LINE",
"565 535 OFFCURVE",
"564 533 OFFCURVE",
"560 526 CURVE SMOOTH",
"552 515 OFFCURVE",
"540 502 OFFCURVE",
"528 492 CURVE",
"522 486 OFFCURVE",
"519 483 OFFCURVE",
"518 481 CURVE",
"522 469 OFFCURVE",
"526 456 OFFCURVE",
"527 442 CURVE",
"539 440 OFFCURVE",
"550 436 OFFCURVE",
"559 433 CURVE SMOOTH",
"569 431 OFFCURVE",
"580 428 OFFCURVE",
"591 426 CURVE",
"594 424 LINE",
"595 422 OFFCURVE",
"595 417 OFFCURVE",
"595 408 CURVE SMOOTH",
"594 390 OFFCURVE",
"591 367 OFFCURVE",
"587 349 CURVE",
"585 342 OFFCURVE",
"584 336 OFFCURVE",
"583 336 CURVE SMOOTH",
"582 335 OFFCURVE",
"578 334 OFFCURVE",
"572 335 CURVE",
"550 334 LINE SMOOTH",
"542 334 OFFCURVE",
"534 334 OFFCURVE",
"528 335 CURVE",
"520 334 OFFCURVE",
"516 335 OFFCURVE",
"514 334 CURVE",
"508 322 OFFCURVE",
"502 309 OFFCURVE",
"494 298 CURVE",
"497 294 OFFCURVE",
"507 279 OFFCURVE",
"514 265 CURVE",
"519 256 OFFCURVE",
"522 250 OFFCURVE",
"524 244 CURVE SMOOTH",
"527 238 OFFCURVE",
"526 234 OFFCURVE",
"525 232 CURVE",
"465 186 LINE",
"464 184 OFFCURVE",
"460 185 OFFCURVE",
"454 190 CURVE",
"443 196 OFFCURVE",
"430 209 OFFCURVE",
"419 222 CURVE",
"415 226 OFFCURVE",
"410 229 OFFCURVE",
"409 232 CURVE",
"397 228 OFFCURVE",
"383 223 OFFCURVE",
"370 221 CURVE",
"364 201 OFFCURVE",
"358 180 OFFCURVE",
"353 158 CURVE",
"351 155 LINE",
"350 154 OFFCURVE",
"345 154 OFFCURVE",
"337 155 CURVE",
"319 155 OFFCURVE",
"297 159 OFFCURVE",
"279 163 CURVE",
"270 164 OFFCURVE",
"266 165 OFFCURVE",
"264 167 CURVE",
"263 178 LINE",
"263 185 OFFCURVE",
"263 191 OFFCURVE",
"263 200 CURVE SMOOTH",
"262 214 OFFCURVE",
"262 230 OFFCURVE",
"262 234 CURVE",
"250 240 OFFCURVE",
"237 246 OFFCURVE",
"224 256 CURVE",
"222 253 OFFCURVE",
"217 251 OFFCURVE",
"210 247 CURVE",
"197 240 OFFCURVE",
"183 230 OFFCURVE",
"170 226 CURVE",
"165 223 OFFCURVE",
"160 222 OFFCURVE",
"159 223 CURVE"
);
},
{
closed = 1;
nodes = (
"289 347 OFFCURVE",
"309 337 OFFCURVE",
"328 335 CURVE SMOOTH",
"348 333 OFFCURVE",
"369 338 OFFCURVE",
"385 350 CURVE",
"402 363 OFFCURVE",
"412 382 OFFCURVE",
"415 402 CURVE SMOOTH",
"417 420 OFFCURVE",
"411 441 OFFCURVE",
"399 458 CURVE",
"386 475 OFFCURVE",
"366 485 OFFCURVE",
"348 488 CURVE",
"328 489 OFFCURVE",
"307 485 OFFCURVE",
"290 472 CURVE SMOOTH",
"257 445 OFFCURVE",
"251 397 OFFCURVE",
"277 364 CURVE"
);
},
{
closed = 1;
nodes = (
"692 468 LINE",
"691 468 OFFCURVE",
"690 470 OFFCURVE",
"689 473 CURVE",
"687 479 OFFCURVE",
"687 487 OFFCURVE",
"686 494 CURVE",
"686 501 LINE",
"680 503 OFFCURVE",
"674 505 OFFCURVE",
"670 509 CURVE",
"665 506 OFFCURVE",
"661 503 OFFCURVE",
"657 500 CURVE SMOOTH",
"653 498 OFFCURVE",
"649 495 OFFCURVE",
"645 492 CURVE",
"643 491 LINE",
"642 491 OFFCURVE",
"641 492 OFFCURVE",
"638 495 CURVE",
"632 501 OFFCURVE",
"625 508 OFFCURVE",
"620 515 CURVE",
"618 517 OFFCURVE",
"616 520 OFFCURVE",
"617 520 CURVE SMOOTH",
"617 521 OFFCURVE",
"617 522 OFFCURVE",
"619 524 CURVE",
"622 528 OFFCURVE",
"627 535 OFFCURVE",
"632 540 CURVE",
"636 545 LINE",
"633 550 OFFCURVE",
"631 556 OFFCURVE",
"629 562 CURVE",
"611 565 LINE SMOOTH",
"607 565 OFFCURVE",
"604 566 OFFCURVE",
"601 567 CURVE SMOOTH",
"599 568 OFFCURVE",
"597 569 OFFCURVE",
"597 570 CURVE",
"598 604 LINE",
"598 605 OFFCURVE",
"600 607 OFFCURVE",
"603 608 CURVE",
"609 609 OFFCURVE",
"617 610 OFFCURVE",
"624 610 CURVE",
"628 610 OFFCURVE",
"630 611 OFFCURVE",
"631 610 CURVE",
"633 616 OFFCURVE",
"636 622 OFFCURVE",
"638 627 CURVE",
"630 639 LINE",
"627 643 OFFCURVE",
"625 648 OFFCURVE",
"622 651 CURVE",
"621 653 LINE",
"621 653 OFFCURVE",
"623 655 OFFCURVE",
"625 658 CURVE",
"631 664 OFFCURVE",
"638 671 OFFCURVE",
"644 676 CURVE",
"648 679 OFFCURVE",
"649 680 OFFCURVE",
"650 680 CURVE SMOOTH",
"651 680 OFFCURVE",
"652 679 OFFCURVE",
"654 677 CURVE SMOOTH",
"659 673 OFFCURVE",
"665 668 OFFCURVE",
"670 665 CURVE",
"672 662 OFFCURVE",
"674 661 OFFCURVE",
"674 660 CURVE",
"679 663 OFFCURVE",
"685 666 OFFCURVE",
"692 668 CURVE",
"693 669 OFFCURVE",
"693 671 OFFCURVE",
"693 675 CURVE",
"695 681 OFFCURVE",
"696 689 OFFCURVE",
"698 695 CURVE",
"699 698 OFFCURVE",
"700 699 OFFCURVE",
"701 699 CURVE",
"735 698 LINE",
"736 698 OFFCURVE",
"737 697 OFFCURVE",
"738 694 CURVE SMOOTH",
"740 687 OFFCURVE",
"741 680 OFFCURVE",
"741 672 CURVE",
"741 669 OFFCURVE",
"741 667 OFFCURVE",
"742 666 CURVE",
"747 664 OFFCURVE",
"753 661 OFFCURVE",
"758 658 CURVE",
"762 661 OFFCURVE",
"766 664 OFFCURVE",
"770 666 CURVE SMOOTH",
"774 669 OFFCURVE",
"778 672 OFFCURVE",
"782 675 CURVE",
"783 676 LINE",
"784 675 OFFCURVE",
"786 674 OFFCURVE",
"789 671 CURVE SMOOTH",
"795 666 OFFCURVE",
"802 658 OFFCURVE",
"807 652 CURVE",
"809 649 OFFCURVE",
"811 647 OFFCURVE",
"811 646 CURVE SMOOTH",
"811 646 OFFCURVE",
"810 644 OFFCURVE",
"808 642 CURVE",
"802 635 LINE",
"800 632 OFFCURVE",
"797 629 OFFCURVE",
"795 627 CURVE",
"793 624 OFFCURVE",
"792 623 OFFCURVE",
"791 622 CURVE",
"794 616 OFFCURVE",
"797 611 OFFCURVE",
"798 605 CURVE",
"800 605 OFFCURVE",
"808 604 OFFCURVE",
"815 602 CURVE",
"820 601 OFFCURVE",
"823 600 OFFCURVE",
"825 600 CURVE SMOOTH",
"829 599 OFFCURVE",
"830 597 OFFCURVE",
"830 596 CURVE",
"828 562 LINE",
"829 561 OFFCURVE",
"827 560 OFFCURVE",
"824 559 CURVE",
"819 557 OFFCURVE",
"810 557 OFFCURVE",
"803 557 CURVE",
"800 556 OFFCURVE",
"798 556 OFFCURVE",
"796 556 CURVE",
"794 551 OFFCURVE",
"792 545 OFFCURVE",
"789 539 CURVE",
"794 531 OFFCURVE",
"800 523 OFFCURVE",
"806 515 CURVE",
"806 513 LINE",
"806 513 OFFCURVE",
"805 511 OFFCURVE",
"802 509 CURVE",
"797 503 OFFCURVE",
"789 496 OFFCURVE",
"782 491 CURVE",
"779 488 OFFCURVE",
"778 487 OFFCURVE",
"777 487 CURVE",
"773 490 LINE",
"770 492 OFFCURVE",
"768 494 OFFCURVE",
"765 496 CURVE SMOOTH",
"760 500 OFFCURVE",
"755 505 OFFCURVE",
"753 506 CURVE",
"747 503 OFFCURVE",
"742 501 OFFCURVE",
"734 499 CURVE",
"735 497 OFFCURVE",
"734 495 OFFCURVE",
"734 491 CURVE",
"732 485 OFFCURVE",
"731 477 OFFCURVE",
"729 472 CURVE",
"729 469 OFFCURVE",
"728 467 OFFCURVE",
"727 467 CURVE"
);
},
{
closed = 1;
nodes = (
"722 548 OFFCURVE",
"731 552 OFFCURVE",
"737 558 CURVE SMOOTH",
"744 564 OFFCURVE",
"748 573 OFFCURVE",
"748 582 CURVE",
"749 592 OFFCURVE",
"745 600 OFFCURVE",
"739 607 CURVE SMOOTH",
"733 613 OFFCURVE",
"725 617 OFFCURVE",
"715 618 CURVE",
"705 618 OFFCURVE",
"696 614 OFFCURVE",
"690 609 CURVE",
"684 603 OFFCURVE",
"679 594 OFFCURVE",
"679 584 CURVE SMOOTH",
"678 565 OFFCURVE",
"693 549 OFFCURVE",
"712 548 CURVE"
);
},
{
closed = 1;
nodes = (
"669 73 LINE",
"668 73 OFFCURVE",
"667 77 OFFCURVE",
"667 81 CURVE",
"668 91 OFFCURVE",
"671 102 OFFCURVE",
"675 112 CURVE",
"678 123 LINE",
"669 128 OFFCURVE",
"663 134 OFFCURVE",
"658 142 CURVE",
"650 141 OFFCURVE",
"643 139 OFFCURVE",
"636 137 CURVE SMOOTH",
"629 135 OFFCURVE",
"622 133 OFFCURVE",
"615 130 CURVE",
"612 131 LINE",
"611 131 OFFCURVE",
"609 134 OFFCURVE",
"606 139 CURVE",
"601 150 OFFCURVE",
"594 165 OFFCURVE",
"590 176 CURVE",
"589 181 OFFCURVE",
"588 185 OFFCURVE",
"588 186 CURVE SMOOTH",
"589 187 OFFCURVE",
"590 189 OFFCURVE",
"594 190 CURVE",
"600 195 OFFCURVE",
"611 201 OFFCURVE",
"620 206 CURVE",
"629 211 LINE",
"627 220 OFFCURVE",
"627 230 OFFCURVE",
"628 239 CURVE",
"604 252 LINE SMOOTH",
"599 255 OFFCURVE",
"594 258 OFFCURVE",
"590 260 CURVE SMOOTH",
"587 263 OFFCURVE",
"585 266 OFFCURVE",
"586 268 CURVE",
"606 316 LINE",
"606 317 OFFCURVE",
"609 318 OFFCURVE",
"614 318 CURVE",
"623 317 OFFCURVE",
"634 314 OFFCURVE",
"646 310 CURVE",
"650 309 OFFCURVE",
"654 308 OFFCURVE",
"655 308 CURVE",
"661 315 OFFCURVE",
"668 322 OFFCURVE",
"674 328 CURVE",
"669 350 LINE",
"667 357 OFFCURVE",
"666 364 OFFCURVE",
"663 371 CURVE",
"664 373 LINE",
"663 374 OFFCURVE",
"667 376 OFFCURVE",
"671 379 CURVE",
"683 384 OFFCURVE",
"697 391 OFFCURVE",
"708 395 CURVE",
"714 397 OFFCURVE",
"718 398 OFFCURVE",
"719 397 CURVE SMOOTH",
"719 397 OFFCURVE",
"720 395 OFFCURVE",
"723 391 CURVE SMOOTH",
"728 383 OFFCURVE",
"734 373 OFFCURVE",
"739 366 CURVE",
"741 361 OFFCURVE",
"743 359 OFFCURVE",
"743 357 CURVE",
"752 358 OFFCURVE",
"762 359 OFFCURVE",
"773 358 CURVE",
"774 360 OFFCURVE",
"776 363 OFFCURVE",
"778 368 CURVE",
"783 376 OFFCURVE",
"789 387 OFFCURVE",
"796 394 CURVE",
"798 398 OFFCURVE",
"800 399 OFFCURVE",
"801 399 CURVE",
"850 380 LINE",
"851 379 OFFCURVE",
"852 377 OFFCURVE",
"851 372 CURVE SMOOTH",
"851 362 OFFCURVE",
"848 350 OFFCURVE",
"845 340 CURVE",
"843 334 OFFCURVE",
"843 332 OFFCURVE",
"842 330 CURVE",
"849 324 OFFCURVE",
"856 318 OFFCURVE",
"861 310 CURVE",
"869 313 OFFCURVE",
"877 314 OFFCURVE",
"883 316 CURVE SMOOTH",
"890 318 OFFCURVE",
"897 320 OFFCURVE",
"905 323 CURVE",
"907 322 LINE",
"909 322 OFFCURVE",
"910 319 OFFCURVE",
"913 313 CURVE SMOOTH",
"919 302 OFFCURVE",
"925 288 OFFCURVE",
"929 276 CURVE",
"931 271 OFFCURVE",
"932 267 OFFCURVE",
"931 266 CURVE SMOOTH",
"931 266 OFFCURVE",
"929 264 OFFCURVE",
"925 262 CURVE",
"913 254 LINE",
"908 251 OFFCURVE",
"903 248 OFFCURVE",
"899 247 CURVE",
"895 243 OFFCURVE",
"892 243 OFFCURVE",
"891 242 CURVE",
"892 232 OFFCURVE",
"893 223 OFFCURVE",
"891 213 CURVE",
"895 212 OFFCURVE",
"906 207 OFFCURVE",
"915 201 CURVE",
"921 197 OFFCURVE",
"925 194 OFFCURVE",
"928 192 CURVE SMOOTH",
"932 189 OFFCURVE",
"933 186 OFFCURVE",
"933 184 CURVE",
"913 136 LINE",
"913 135 OFFCURVE",
"911 135 OFFCURVE",
"905 135 CURVE",
"896 135 OFFCURVE",
"884 138 OFFCURVE",
"874 142 CURVE",
"869 143 OFFCURVE",
"866 143 OFFCURVE",
"864 144 CURVE",
"858 138 OFFCURVE",
"852 131 OFFCURVE",
"844 124 CURVE",
"848 110 OFFCURVE",
"852 96 OFFCURVE",
"857 81 CURVE",
"856 79 LINE",
"856 78 OFFCURVE",
"853 76 OFFCURVE",
"848 74 CURVE",
"837 68 OFFCURVE",
"823 62 OFFCURVE",
"811 58 CURVE",
"805 56 OFFCURVE",
"802 55 OFFCURVE",
"800 55 CURVE",
"796 62 LINE",
"794 66 OFFCURVE",
"792 70 OFFCURVE",
"788 75 CURVE SMOOTH",
"783 83 OFFCURVE",
"778 92 OFFCURVE",
"776 95 CURVE",
"767 94 OFFCURVE",
"757 94 OFFCURVE",
"746 94 CURVE",
"745 92 OFFCURVE",
"744 89 OFFCURVE",
"741 84 CURVE",
"735 76 OFFCURVE",
"730 65 OFFCURVE",
"724 58 CURVE",
"722 55 OFFCURVE",
"720 52 OFFCURVE",
"719 53 CURVE"
);
},
{
closed = 1;
nodes = (
"753 171 OFFCURVE",
"769 172 OFFCURVE",
"780 177 CURVE SMOOTH",
"793 183 OFFCURVE",
"803 194 OFFCURVE",
"809 206 CURVE",
"814 220 OFFCURVE",
"814 234 OFFCURVE",
"808 248 CURVE SMOOTH",
"804 259 OFFCURVE",
"793 270 OFFCURVE",
"780 275 CURVE",
"766 281 OFFCURVE",
"751 280 OFFCURVE",
"739 275 CURVE",
"727 269 OFFCURVE",
"716 259 OFFCURVE",
"710 246 CURVE SMOOTH",
"700 218 OFFCURVE",
"713 188 OFFCURVE",
"740 177 CURVE"
);
}
);
width = 953;
}
);
},
{
glyphname = uniE00B;
lastChange = "2012-10-18 20:02:08 -0700";
layers = (
{
annotations = (
{
position = "{696.86313518793474, 581.12568713541259}";
type = Arrow;
},
{
position = "{745.05205372762464, 225.7161368641799}";
type = Arrow;
},
{
position = "{319.86859524410949, 406.45713347005676}";
type = Arrow;
}
);
layerId = "976E1085-9D9E-4132-ADB4-8B20859A3B8B";
name = Regular;
paths = (
{
closed = 1;
nodes = (
"150 230 LINE",
"149 232 OFFCURVE",
"150 237 OFFCURVE",
"151 242 CURVE",
"156 256 OFFCURVE",
"165 271 OFFCURVE",
"173 284 CURVE",
"182 298 LINE",
"172 308 OFFCURVE",
"165 320 OFFCURVE",
"162 332 CURVE",
"150 333 OFFCURVE",
"140 334 OFFCURVE",
"128 334 CURVE SMOOTH",
"118 333 OFFCURVE",
"107 333 OFFCURVE",
"97 333 CURVE",
"92 334 LINE",
"91 335 OFFCURVE",
"89 340 OFFCURVE",
"87 349 CURVE",
"84 366 OFFCURVE",
"81 388 OFFCURVE",
"80 407 CURVE",
"80 414 OFFCURVE",
"80 420 OFFCURVE",
"81 421 CURVE SMOOTH",
"82 422 OFFCURVE",
"84 424 OFFCURVE",
"90 424 CURVE",
"102 429 OFFCURVE",
"118 433 OFFCURVE",
"133 437 CURVE",
"147 440 LINE",
"149 454 OFFCURVE",
"152 467 OFFCURVE",
"157 479 CURVE",
"129 507 LINE SMOOTH",
"122 514 OFFCURVE",
"117 519 OFFCURVE",
"113 524 CURVE SMOOTH",
"109 529 OFFCURVE",
"108 533 OFFCURVE",
"109 536 CURVE",
"156 596 LINE",
"157 597 OFFCURVE",
"162 598 OFFCURVE",
"168 596 CURVE",
"181 591 OFFCURVE",
"195 582 OFFCURVE",
"209 572 CURVE",
"216 569 OFFCURVE",
"221 567 OFFCURVE",
"222 565 CURVE",
"234 574 OFFCURVE",
"245 580 OFFCURVE",
"257 586 CURVE",
"258 619 LINE",
"258 630 OFFCURVE",
"259 641 OFFCURVE",
"258 651 CURVE",
"259 654 LINE",
"259 655 OFFCURVE",
"265 657 OFFCURVE",
"273 659 CURVE",
"291 662 OFFCURVE",
"313 666 OFFCURVE",
"330 667 CURVE",
"340 667 OFFCURVE",
"345 668 OFFCURVE",
"346 667 CURVE SMOOTH",
"347 666 OFFCURVE",
"347 662 OFFCURVE",
"350 656 CURVE SMOOTH",
"354 643 OFFCURVE",
"358 627 OFFCURVE",
"362 614 CURVE",
"363 607 OFFCURVE",
"365 603 OFFCURVE",
"365 600 CURVE",
"378 599 OFFCURVE",
"391 595 OFFCURVE",
"407 590 CURVE",
"409 592 OFFCURVE",
"412 596 OFFCURVE",
"417 602 CURVE",
"428 612 OFFCURVE",
"440 624 OFFCURVE",
"452 632 CURVE",
"457 637 OFFCURVE",
"461 638 OFFCURVE",
"462 636 CURVE",
"523 591 LINE",
"525 589 OFFCURVE",
"525 586 OFFCURVE",
"522 579 CURVE SMOOTH",
"517 565 OFFCURVE",
"509 550 OFFCURVE",
"500 537 CURVE",
"496 530 OFFCURVE",
"494 526 OFFCURVE",
"493 524 CURVE",
"500 513 OFFCURVE",
"508 502 OFFCURVE",
"512 489 CURVE",
"524 490 OFFCURVE",
"535 488 OFFCURVE",
"545 488 CURVE SMOOTH",
"555 488 OFFCURVE",
"566 488 OFFCURVE",
"578 490 CURVE",
"581 488 LINE",
"583 486 OFFCURVE",
"584 482 OFFCURVE",
"586 473 CURVE SMOOTH",
"590 455 OFFCURVE",
"593 433 OFFCURVE",
"593 414 CURVE",
"594 407 OFFCURVE",
"594 401 OFFCURVE",
"593 400 CURVE SMOOTH",
"592 400 OFFCURVE",
"589 397 OFFCURVE",
"583 397 CURVE",
"562 390 LINE SMOOTH",
"554 388 OFFCURVE",
"547 386 OFFCURVE",
"540 385 CURVE",
"533 382 OFFCURVE",
"529 382 OFFCURVE",
"527 381 CURVE",
"524 367 OFFCURVE",
"522 354 OFFCURVE",
"517 341 CURVE",
"521 338 OFFCURVE",
"534 326 OFFCURVE",
"545 314 CURVE",
"551 307 OFFCURVE",
"556 302 OFFCURVE",
"560 297 CURVE SMOOTH",
"564 291 OFFCURVE",
"564 287 OFFCURVE",
"564 285 CURVE",
"517 225 LINE",
"517 223 OFFCURVE",
"513 224 OFFCURVE",
"506 226 CURVE",
"493 229 OFFCURVE",
"478 239 OFFCURVE",
"464 248 CURVE",
"458 251 OFFCURVE",
"453 253 OFFCURVE",
"451 255 CURVE",
"441 249 OFFCURVE",
"429 241 OFFCURVE",
"416 235 CURVE",
"416 214 OFFCURVE",
"416 192 OFFCURVE",
"417 170 CURVE",
"414 166 LINE",
"414 165 OFFCURVE",
"410 164 OFFCURVE",
"401 163 CURVE",
"384 158 OFFCURVE",
"362 156 OFFCURVE",
"343 155 CURVE",
"334 155 OFFCURVE",
"330 155 OFFCURVE",
"328 155 CURVE",
"324 166 LINE",
"322 173 OFFCURVE",
"321 179 OFFCURVE",
"318 187 CURVE SMOOTH",
"314 201 OFFCURVE",
"310 216 OFFCURVE",
"309 220 CURVE",
"295 222 OFFCURVE",
"282 226 OFFCURVE",
"266 231 CURVE",
"265 228 OFFCURVE",
"261 225 OFFCURVE",
"256 219 CURVE",
"244 209 OFFCURVE",
"233 196 OFFCURVE",
"222 189 CURVE",
"218 185 OFFCURVE",
"214 182 OFFCURVE",
"212 183 CURVE"
);
},
{
closed = 1;
nodes = (
"307 336 OFFCURVE",
"328 331 OFFCURVE",
"347 334 CURVE SMOOTH",
"367 337 OFFCURVE",
"386 348 OFFCURVE",
"398 364 CURVE",
"411 381 OFFCURVE",
"416 401 OFFCURVE",
"413 422 CURVE SMOOTH",
"411 439 OFFCURVE",
"400 458 OFFCURVE",
"384 472 CURVE",
"367 484 OFFCURVE",
"345 489 OFFCURVE",
"327 488 CURVE",
"308 484 OFFCURVE",
"288 474 OFFCURVE",
"275 457 CURVE SMOOTH",
"250 423 OFFCURVE",
"256 375 OFFCURVE",
"290 349 CURVE"
);
},
{
closed = 1;
nodes = (
"771 481 LINE",
"770 480 OFFCURVE",
"768 481 OFFCURVE",
"765 482 CURVE",
"760 486 OFFCURVE",
"754 492 OFFCURVE",
"750 497 CURVE",
"745 502 LINE",
"739 499 OFFCURVE",
"733 497 OFFCURVE",
"727 497 CURVE",
"726 492 OFFCURVE",
"724 488 OFFCURVE",
"723 483 CURVE SMOOTH",
"722 478 OFFCURVE",
"721 473 OFFCURVE",
"720 469 CURVE",
"719 467 LINE",
"718 467 OFFCURVE",
"716 466 OFFCURVE",
"712 466 CURVE",
"704 467 OFFCURVE",
"694 468 OFFCURVE",
"686 470 CURVE",
"682 470 OFFCURVE",
"680 471 OFFCURVE",
"679 472 CURVE SMOOTH",
"679 472 OFFCURVE",
"679 473 OFFCURVE",
"679 476 CURVE",
"678 482 OFFCURVE",
"678 490 OFFCURVE",
"678 496 CURVE",
"679 503 LINE",
"673 505 OFFCURVE",
"667 508 OFFCURVE",
"662 512 CURVE",
"647 502 LINE SMOOTH",
"643 500 OFFCURVE",
"641 499 OFFCURVE",
"638 497 CURVE SMOOTH",
"635 496 OFFCURVE",
"633 496 OFFCURVE",
"632 497 CURVE",
"611 524 LINE",
"611 525 OFFCURVE",
"611 527 OFFCURVE",
"612 530 CURVE",
"616 535 OFFCURVE",
"622 540 OFFCURVE",
"627 545 CURVE",
"630 547 OFFCURVE",
"631 549 OFFCURVE",
"632 550 CURVE",
"629 556 OFFCURVE",
"628 562 OFFCURVE",
"627 567 CURVE",
"613 571 LINE",
"608 573 OFFCURVE",
"603 574 OFFCURVE",
"598 575 CURVE",
"597 576 LINE",
"597 576 OFFCURVE",
"597 579 OFFCURVE",
"597 582 CURVE",
"597 591 OFFCURVE",
"598 601 OFFCURVE",
"599 608 CURVE",
"600 612 OFFCURVE",
"601 615 OFFCURVE",
"601 615 CURVE SMOOTH",
"602 615 OFFCURVE",
"603 615 OFFCURVE",
"606 616 CURVE SMOOTH",
"613 616 OFFCURVE",
"620 616 OFFCURVE",
"626 616 CURVE",
"630 616 OFFCURVE",
"631 616 OFFCURVE",
"633 616 CURVE",
"635 621 OFFCURVE",
"638 627 OFFCURVE",
"642 633 CURVE",
"641 634 OFFCURVE",
"640 636 OFFCURVE",
"638 639 CURVE",
"635 645 OFFCURVE",
"631 652 OFFCURVE",
"628 658 CURVE",
"627 661 OFFCURVE",
"627 662 OFFCURVE",
"628 663 CURVE",
"654 684 LINE",
"656 685 OFFCURVE",
"657 684 OFFCURVE",
"660 682 CURVE SMOOTH",
"665 679 OFFCURVE",
"671 674 OFFCURVE",
"675 668 CURVE",
"678 666 OFFCURVE",
"679 664 OFFCURVE",
"680 664 CURVE",
"686 665 OFFCURVE",
"692 668 OFFCURVE",
"698 668 CURVE",
"699 673 OFFCURVE",
"701 678 OFFCURVE",
"702 682 CURVE SMOOTH",
"703 687 OFFCURVE",
"704 692 OFFCURVE",
"705 697 CURVE",
"706 698 LINE",
"707 699 OFFCURVE",
"709 699 OFFCURVE",
"713 699 CURVE SMOOTH",
"721 698 OFFCURVE",
"731 697 OFFCURVE",
"739 695 CURVE",
"743 695 OFFCURVE",
"745 694 OFFCURVE",
"746 694 CURVE SMOOTH",
"746 693 OFFCURVE",
"746 692 OFFCURVE",
"746 689 CURVE",
"747 679 LINE SMOOTH",
"747 675 OFFCURVE",
"747 672 OFFCURVE",
"746 669 CURVE",
"747 665 OFFCURVE",
"746 664 OFFCURVE",
"746 663 CURVE",
"752 660 OFFCURVE",
"758 657 OFFCURVE",
"763 653 CURVE",
"765 655 OFFCURVE",
"771 660 OFFCURVE",
"778 663 CURVE",
"782 665 OFFCURVE",
"785 667 OFFCURVE",
"787 668 CURVE SMOOTH",
"790 669 OFFCURVE",
"792 668 OFFCURVE",
"793 668 CURVE",
"814 641 LINE",
"815 640 OFFCURVE",
"814 639 OFFCURVE",
"812 636 CURVE",
"809 631 OFFCURVE",
"803 625 OFFCURVE",
"798 620 CURVE",
"796 618 OFFCURVE",
"795 616 OFFCURVE",
"793 615 CURVE",
"795 610 OFFCURVE",
"797 604 OFFCURVE",
"798 598 CURVE",
"807 595 OFFCURVE",
"817 593 OFFCURVE",
"827 591 CURVE",
"828 589 LINE",
"829 589 OFFCURVE",
"828 587 OFFCURVE",
"828 583 CURVE",
"828 575 OFFCURVE",
"827 565 OFFCURVE",
"825 557 CURVE",
"824 553 OFFCURVE",
"824 551 OFFCURVE",
"823 550 CURVE",
"818 550 LINE",
"815 550 OFFCURVE",
"812 550 OFFCURVE",
"808 549 CURVE SMOOTH",
"802 549 OFFCURVE",
"795 549 OFFCURVE",
"793 549 CURVE",
"790 543 OFFCURVE",
"787 538 OFFCURVE",
"783 532 CURVE",
"784 531 OFFCURVE",
"785 529 OFFCURVE",
"787 526 CURVE",
"790 520 OFFCURVE",
"795 513 OFFCURVE",
"797 508 CURVE",
"798 505 OFFCURVE",
"799 503 OFFCURVE",
"798 503 CURVE"
);
},
{
closed = 1;
nodes = (
"742 561 OFFCURVE",
"746 570 OFFCURVE",
"747 578 CURVE SMOOTH",
"748 587 OFFCURVE",
"745 597 OFFCURVE",
"740 604 CURVE",
"734 612 OFFCURVE",
"725 616 OFFCURVE",
"716 617 CURVE SMOOTH",
"708 618 OFFCURVE",
"699 616 OFFCURVE",
"691 610 CURVE",
"684 604 OFFCURVE",
"679 595 OFFCURVE",
"678 587 CURVE",
"677 578 OFFCURVE",
"679 568 OFFCURVE",
"685 561 CURVE SMOOTH",
"698 546 OFFCURVE",
"719 543 OFFCURVE",
"734 555 CURVE"
);
},
{
closed = 1;
nodes = (
"759 47 LINE",
"757 47 OFFCURVE",
"755 50 OFFCURVE",
"753 53 CURVE",
"749 62 OFFCURVE",
"746 74 OFFCURVE",
"743 84 CURVE",
"740 95 LINE",
"731 95 OFFCURVE",
"722 97 OFFCURVE",
"714 102 CURVE",
"708 96 OFFCURVE",
"703 91 OFFCURVE",
"697 86 CURVE SMOOTH",
"693 81 OFFCURVE",
"687 75 OFFCURVE",
"683 70 CURVE",
"680 68 LINE",
"679 68 OFFCURVE",
"676 69 OFFCURVE",
"670 73 CURVE",
"660 79 OFFCURVE",
"648 89 OFFCURVE",
"638 97 CURVE",
"634 100 OFFCURVE",
"632 103 OFFCURVE",
"632 104 CURVE SMOOTH",
"632 105 OFFCURVE",
"632 107 OFFCURVE",
"634 110 CURVE",
"637 118 OFFCURVE",
"643 128 OFFCURVE",
"649 137 CURVE",
"654 146 LINE",
"648 153 OFFCURVE",
"643 161 OFFCURVE",
"639 169 CURVE",
"611 169 LINE SMOOTH",
"605 169 OFFCURVE",
"600 168 OFFCURVE",
"596 169 CURVE SMOOTH",
"591 170 OFFCURVE",
"589 171 OFFCURVE",
"588 173 CURVE",
"580 224 LINE",
"580 226 OFFCURVE",
"582 229 OFFCURVE",
"586 231 CURVE",
"595 234 OFFCURVE",
"606 237 OFFCURVE",
"618 240 CURVE",
"623 241 OFFCURVE",
"626 243 OFFCURVE",
"627 243 CURVE",
"629 252 OFFCURVE",
"631 261 OFFCURVE",
"634 270 CURVE",
"618 286 LINE",
"612 291 OFFCURVE",
"607 297 OFFCURVE",
"602 301 CURVE",
"601 303 LINE",
"600 304 OFFCURVE",
"602 307 OFFCURVE",
"605 312 CURVE",
"612 323 OFFCURVE",
"621 335 OFFCURVE",
"628 345 CURVE",
"633 349 OFFCURVE",
"635 352 OFFCURVE",
"636 352 CURVE SMOOTH",
"637 352 OFFCURVE",
"639 351 OFFCURVE",
"643 349 CURVE SMOOTH",
"652 345 OFFCURVE",
"661 339 OFFCURVE",
"670 335 CURVE",
"674 332 OFFCURVE",
"677 331 OFFCURVE",
"678 330 CURVE",
"685 336 OFFCURVE",
"693 341 OFFCURVE",
"703 346 CURVE",
"703 348 OFFCURVE",
"703 351 OFFCURVE",
"702 357 CURVE",
"703 367 OFFCURVE",
"702 379 OFFCURVE",
"704 388 CURVE",
"704 393 OFFCURVE",
"705 395 OFFCURVE",
"707 395 CURVE",
"758 403 LINE",
"760 404 OFFCURVE",
"762 402 OFFCURVE",
"764 397 CURVE SMOOTH",
"768 389 OFFCURVE",
"772 378 OFFCURVE",
"774 367 CURVE",
"776 361 OFFCURVE",
"776 359 OFFCURVE",
"777 357 CURVE",
"785 355 OFFCURVE",
"795 354 OFFCURVE",
"803 350 CURVE",
"809 356 OFFCURVE",
"815 361 OFFCURVE",
"820 366 CURVE SMOOTH",
"824 371 OFFCURVE",
"830 376 OFFCURVE",
"834 383 CURVE",
"837 383 LINE",
"838 384 OFFCURVE",
"841 382 OFFCURVE",
"847 379 CURVE SMOOTH",
"857 372 OFFCURVE",
"870 363 OFFCURVE",
"879 354 CURVE",
"883 351 OFFCURVE",
"886 348 OFFCURVE",
"886 348 CURVE SMOOTH",
"886 347 OFFCURVE",
"885 344 OFFCURVE",
"883 341 CURVE",
"876 327 LINE",
"874 323 OFFCURVE",
"871 318 OFFCURVE",
"868 314 CURVE",
"866 309 OFFCURVE",
"864 307 OFFCURVE",
"864 306 CURVE",
"869 298 OFFCURVE",
"875 290 OFFCURVE",
"879 281 CURVE",
"882 282 OFFCURVE",
"894 283 OFFCURVE",
"905 283 CURVE",
"912 282 OFFCURVE",
"917 282 OFFCURVE",
"921 282 CURVE SMOOTH",
"926 281 OFFCURVE",
"928 279 OFFCURVE",
"929 278 CURVE",
"936 226 LINE",
"937 225 OFFCURVE",
"935 224 OFFCURVE",
"930 222 CURVE",
"923 217 OFFCURVE",
"911 213 OFFCURVE",
"900 211 CURVE",
"896 210 OFFCURVE",
"892 208 OFFCURVE",
"890 208 CURVE",
"888 200 OFFCURVE",
"887 190 OFFCURVE",
"883 181 CURVE",
"894 171 OFFCURVE",
"904 160 OFFCURVE",
"916 150 CURVE",
"916 148 LINE",
"917 147 OFFCURVE",
"915 144 OFFCURVE",
"912 139 CURVE",
"906 129 OFFCURVE",
"897 117 OFFCURVE",
"888 107 CURVE",
"884 102 OFFCURVE",
"882 100 OFFCURVE",
"881 99 CURVE",
"874 103 LINE",
"869 105 OFFCURVE",
"866 107 OFFCURVE",
"860 110 CURVE SMOOTH",
"851 114 OFFCURVE",
"842 120 OFFCURVE",
"839 121 CURVE",
"832 115 OFFCURVE",
"824 110 OFFCURVE",
"814 105 CURVE",
"814 103 OFFCURVE",
"815 100 OFFCURVE",
"815 94 CURVE",
"814 84 OFFCURVE",
"815 72 OFFCURVE",
"813 63 CURVE",
"814 59 OFFCURVE",
"813 56 OFFCURVE",
"812 56 CURVE"
);
},
{
closed = 1;
nodes = (
"781 175 OFFCURVE",
"794 184 OFFCURVE",
"801 194 CURVE SMOOTH",
"809 205 OFFCURVE",
"813 220 OFFCURVE",
"811 234 CURVE",
"809 248 OFFCURVE",
"801 260 OFFCURVE",
"790 269 CURVE SMOOTH",
"780 276 OFFCURVE",
"765 280 OFFCURVE",
"751 278 CURVE",
"737 276 OFFCURVE",
"724 267 OFFCURVE",
"716 257 CURVE",
"708 246 OFFCURVE",
"704 232 OFFCURVE",
"706 217 CURVE SMOOTH",
"711 188 OFFCURVE",
"738 169 OFFCURVE",
"767 173 CURVE"
);
}
);
width = 953;
}
);
},
{
glyphname = uniE00C;
lastChange = "2012-10-18 20:02:14 -0700";
layers = (
{
layerId = "976E1085-9D9E-4132-ADB4-8B20859A3B8B";
name = Regular;
paths = (
{
closed = 1;
nodes = (
"61 133 LINE",
"61 151 OFFCURVE",
"77 167 OFFCURVE",
"96 167 CURVE SMOOTH",
"866 167 LINE",
"887 167 OFFCURVE",
"903 151 OFFCURVE",
"903 133 CURVE SMOOTH",
"903 33 LINE",
"903 15 OFFCURVE",
"887 -1 OFFCURVE",
"866 -1 CURVE SMOOTH",
"96 -1 LINE",
"77 -1 OFFCURVE",
"61 15 OFFCURVE",
"61 33 CURVE SMOOTH"
);
},
{
closed = 1;
nodes = (
"61 399 LINE",
"61 417 OFFCURVE",
"77 433 OFFCURVE",
"96 433 CURVE SMOOTH",
"866 433 LINE",
"887 433 OFFCURVE",
"903 417 OFFCURVE",
"903 399 CURVE SMOOTH",
"903 301 LINE",
"903 281 OFFCURVE",
"887 265 OFFCURVE",
"866 265 CURVE SMOOTH",
"96 265 LINE",
"77 265 OFFCURVE",
"61 281 OFFCURVE",
"61 301 CURVE SMOOTH"
);
},
{
closed = 1;
nodes = (
"61 665 LINE",
"61 683 OFFCURVE",
"77 700 OFFCURVE",
"96 700 CURVE SMOOTH",
"866 700 LINE",
"887 700 OFFCURVE",
"903 683 OFFCURVE",
"903 665 CURVE SMOOTH",
"903 566 LINE",
"903 547 OFFCURVE",
"887 531 OFFCURVE",
"866 531 CURVE SMOOTH",
"96 531 LINE",
"77 531 OFFCURVE",
"61 547 OFFCURVE",
"61 566 CURVE SMOOTH"
);
},
{
closed = 1;
nodes = (
"404 315 LINE",
"861 315 LINE",
"861 385 LINE",
"404 385 LINE"
);
},
{
closed = 1;
nodes = (
"545 49 LINE",
"861 49 LINE",
"861 118 LINE",
"545 118 LINE"
);
},
{
closed = 1;
nodes = (
"685 580 LINE",
"861 580 LINE",
"861 650 LINE",
"685 650 LINE"
);
}
);
width = 953;
}
);
},
{
glyphname = uniE00D;
lastChange = "2012-10-18 20:02:16 -0700";
layers = (
{
layerId = "976E1085-9D9E-4132-ADB4-8B20859A3B8B";
name = Regular;
paths = (
{
closed = 1;
nodes = (
"61 133 LINE",
"61 151 OFFCURVE",
"77 167 OFFCURVE",
"96 167 CURVE SMOOTH",
"866 167 LINE",
"887 167 OFFCURVE",
"903 151 OFFCURVE",
"903 133 CURVE SMOOTH",
"903 33 LINE",
"903 15 OFFCURVE",
"887 -1 OFFCURVE",
"866 -1 CURVE SMOOTH",
"96 -1 LINE",
"77 -1 OFFCURVE",
"61 15 OFFCURVE",
"61 33 CURVE SMOOTH"
);
},
{
closed = 1;
nodes = (
"61 399 LINE",
"61 417 OFFCURVE",
"77 433 OFFCURVE",
"96 433 CURVE SMOOTH",
"866 433 LINE",
"887 433 OFFCURVE",
"903 417 OFFCURVE",
"903 399 CURVE SMOOTH",
"903 301 LINE",
"903 281 OFFCURVE",
"887 265 OFFCURVE",
"866 265 CURVE SMOOTH",
"96 265 LINE",
"77 265 OFFCURVE",
"61 281 OFFCURVE",
"61 301 CURVE SMOOTH"
);
},
{
closed = 1;
nodes = (
"61 665 LINE",
"61 683 OFFCURVE",
"77 700 OFFCURVE",
"96 700 CURVE SMOOTH",
"866 700 LINE",
"887 700 OFFCURVE",
"903 683 OFFCURVE",
"903 665 CURVE SMOOTH",
"903 566 LINE",
"903 547 OFFCURVE",
"887 531 OFFCURVE",
"866 531 CURVE SMOOTH",
"96 531 LINE",
"77 531 OFFCURVE",
"61 547 OFFCURVE",
"61 566 CURVE SMOOTH"
);
},
{
closed = 1;
nodes = (
"704 315 LINE",
"861 315 LINE",
"861 385 LINE",
"704 385 LINE"
);
},
{
closed = 1;
nodes = (
"275 49 LINE",
"861 49 LINE",
"861 118 LINE",
"275 118 LINE"
);
},
{
closed = 1;
nodes = (
"785 580 LINE",
"861 580 LINE",
"861 650 LINE",
"785 650 LINE"
);
}
);
width = 953;
}
);
},
{
glyphname = uniE00E;
lastChange = "2012-10-18 20:02:20 -0700";
layers = (
{
layerId = "976E1085-9D9E-4132-ADB4-8B20859A3B8B";
name = Regular;
paths = (
{
closed = 1;
nodes = (
"61 133 LINE",
"61 151 OFFCURVE",
"77 167 OFFCURVE",
"96 167 CURVE SMOOTH",
"866 167 LINE",
"887 167 OFFCURVE",
"903 151 OFFCURVE",
"903 133 CURVE SMOOTH",
"903 33 LINE",
"903 15 OFFCURVE",
"887 -1 OFFCURVE",
"866 -1 CURVE SMOOTH",
"96 -1 LINE",
"77 -1 OFFCURVE",
"61 15 OFFCURVE",
"61 33 CURVE SMOOTH"
);
},
{
closed = 1;
nodes = (
"61 399 LINE",
"61 417 OFFCURVE",
"77 433 OFFCURVE",
"96 433 CURVE SMOOTH",
"866 433 LINE",
"887 433 OFFCURVE",
"903 417 OFFCURVE",
"903 399 CURVE SMOOTH",
"903 301 LINE",
"903 281 OFFCURVE",
"887 265 OFFCURVE",
"866 265 CURVE SMOOTH",
"96 265 LINE",
"77 265 OFFCURVE",
"61 281 OFFCURVE",
"61 301 CURVE SMOOTH"
);
},
{
closed = 1;
nodes = (
"61 665 LINE",
"61 683 OFFCURVE",
"77 700 OFFCURVE",
"96 700 CURVE SMOOTH",
"866 700 LINE",
"887 700 OFFCURVE",
"903 683 OFFCURVE",
"903 665 CURVE SMOOTH",
"903 566 LINE",
"903 547 OFFCURVE",
"887 531 OFFCURVE",
"866 531 CURVE SMOOTH",
"96 531 LINE",
"77 531 OFFCURVE",
"61 547 OFFCURVE",
"61 566 CURVE SMOOTH"
);
},
{
closed = 1;
nodes = (
"814 315 LINE",
"861 315 LINE",
"861 385 LINE",
"814 385 LINE"
);
},
{
closed = 1;
nodes = (
"135 49 LINE",
"861 49 LINE",
"861 118 LINE",
"135 118 LINE"
);
},
{
closed = 1;
nodes = (
"860 580 LINE",
"861 580 LINE",
"861 650 LINE",
"860 650 LINE"
);
}
);
width = 953;
}
);
},
{
glyphname = uniE010;
lastChange = "2012-10-18 19:30:44 -0700";
layers = (
{
layerId = "976E1085-9D9E-4132-ADB4-8B20859A3B8B";
name = Regular;
paths = (
{
closed = 1;
nodes = (
"65 646 LINE",
"65 674 OFFCURVE",
"89 698 OFFCURVE",
"119 698 CURVE SMOOTH",
"853 698 LINE",
"883 698 OFFCURVE",
"905 674 OFFCURVE",
"905 646 CURVE SMOOTH",
"905 50 LINE",
"905 22 OFFCURVE",
"883 -3 OFFCURVE",
"853 -3 CURVE SMOOTH",
"119 -3 LINE",
"89 -3 OFFCURVE",
"65 22 OFFCURVE",
"65 50 CURVE SMOOTH"
);
},
{
closed = 1;
nodes = (
"135 67 LINE",
"836 67 LINE",
"836 629 LINE",
"135 629 LINE"
);
},
{
closed = 1;
nodes = (
"205 118 LINE",
"205 183 LINE",
"297 183 LINE",
"297 118 LINE"
);
},
{
closed = 1;
nodes = (
"361 118 LINE",
"361 182 LINE",
"453 182 LINE",
"453 118 LINE"
);
},
{
closed = 1;
nodes = (
"518 118 LINE",
"518 186 LINE",
"611 186 LINE",
"611 118 LINE"
);
},
{
closed = 1;
nodes = (
"672 118 LINE",
"672 188 LINE",
"765 188 LINE",
"765 118 LINE"
);
}
);
width = 953;
}
);
},
{
glyphname = uniE011;
lastChange = "2012-10-18 19:32:07 -0700";
layers = (
{
layerId = "976E1085-9D9E-4132-ADB4-8B20859A3B8B";
name = Regular;
paths = (
{
closed = 1;
nodes = (
"65 646 LINE",
"65 674 OFFCURVE",
"89 698 OFFCURVE",
"119 698 CURVE SMOOTH",
"853 698 LINE",
"883 698 OFFCURVE",
"905 674 OFFCURVE",
"905 646 CURVE SMOOTH",
"905 50 LINE",
"905 22 OFFCURVE",
"883 -3 OFFCURVE",
"853 -3 CURVE SMOOTH",
"119 -3 LINE",
"89 -3 OFFCURVE",
"65 22 OFFCURVE",
"65 50 CURVE SMOOTH"
);
},
{
closed = 1;
nodes = (
"135 67 LINE",
"836 67 LINE",
"836 629 LINE",
"135 629 LINE"
);
},
{
closed = 1;
nodes = (
"205 118 LINE",
"205 195 LINE",
"297 195 LINE",
"297 118 LINE"
);
},
{
closed = 1;
nodes = (
"361 118 LINE",
"361 232 LINE",
"453 232 LINE",
"453 118 LINE"
);
},
{
closed = 1;
nodes = (
"518 118 LINE",
"518 195 LINE",
"611 195 LINE",
"611 118 LINE"
);
},
{
closed = 1;
nodes = (
"672 118 LINE",
"672 258 LINE",
"765 258 LINE",
"765 118 LINE"
);
}
);
width = 953;
}
);
},
{
glyphname = uniE012;
lastChange = "2012-10-18 19:32:19 -0700";
layers = (
{
layerId = "976E1085-9D9E-4132-ADB4-8B20859A3B8B";
name = Regular;
paths = (
{
closed = 1;
nodes = (
"65 646 LINE",
"65 674 OFFCURVE",
"89 698 OFFCURVE",
"119 698 CURVE SMOOTH",
"853 698 LINE",
"883 698 OFFCURVE",
"905 674 OFFCURVE",
"905 646 CURVE SMOOTH",
"905 50 LINE",
"905 22 OFFCURVE",
"883 -3 OFFCURVE",
"853 -3 CURVE SMOOTH",
"119 -3 LINE",
"89 -3 OFFCURVE",
"65 22 OFFCURVE",
"65 50 CURVE SMOOTH"
);
},
{
closed = 1;
nodes = (
"135 67 LINE",
"836 67 LINE",
"836 629 LINE",
"135 629 LINE"
);
},
{
closed = 1;
nodes = (
"205 118 LINE",
"205 214 LINE",
"297 214 LINE",
"297 118 LINE"
);
},
{
closed = 1;
nodes = (
"361 118 LINE",
"361 282 LINE",
"453 282 LINE",
"453 118 LINE"
);
},
{
closed = 1;
nodes = (
"518 118 LINE",
"518 213 LINE",
"611 213 LINE",
"611 118 LINE"
);
},
{
closed = 1;
nodes = (
"672 118 LINE",
"672 368 LINE",
"765 368 LINE",
"765 118 LINE"
);
}
);
width = 953;
}
);
},
{
glyphname = uniE013;
lastChange = "2012-10-18 19:31:01 -0700";
layers = (
{
layerId = "976E1085-9D9E-4132-ADB4-8B20859A3B8B";
name = Regular;
paths = (
{
closed = 1;
nodes = (
"65 646 LINE",
"65 674 OFFCURVE",
"89 698 OFFCURVE",
"119 698 CURVE SMOOTH",
"853 698 LINE",
"883 698 OFFCURVE",
"905 674 OFFCURVE",
"905 646 CURVE SMOOTH",
"905 50 LINE",
"905 22 OFFCURVE",
"883 -3 OFFCURVE",
"853 -3 CURVE SMOOTH",
"119 -3 LINE",
"89 -3 OFFCURVE",
"65 22 OFFCURVE",
"65 50 CURVE SMOOTH"
);
},
{
closed = 1;
nodes = (
"135 67 LINE",
"836 67 LINE",
"836 629 LINE",
"135 629 LINE"
);
},
{
closed = 1;
nodes = (
"205 118 LINE",
"205 283 LINE",
"297 283 LINE",
"297 118 LINE"
);
},
{
closed = 1;
nodes = (
"361 118 LINE",
"361 472 LINE",
"453 472 LINE",
"453 118 LINE"
);
},
{
closed = 1;
nodes = (
"518 118 LINE",
"518 388 LINE",
"611 388 LINE",
"611 118 LINE"
);
},
{
closed = 1;
nodes = (
"672 118 LINE",
"672 538 LINE",
"765 538 LINE",
"765 118 LINE"
);
}
);
width = 953;
}
);
},
{
glyphname = uniE014;
lastChange = "2012-10-18 19:33:29 -0700";
layers = (
{
layerId = "976E1085-9D9E-4132-ADB4-8B20859A3B8B";
name = Regular;
paths = (
{
closed = 1;
nodes = (
"96 51 OFFCURVE",
"100 62 OFFCURVE",
"107 71 CURVE",
"444 657 LINE",
"453 673 OFFCURVE",
"467 689 OFFCURVE",
"486 689 CURVE SMOOTH",
"505 689 OFFCURVE",
"519 673 OFFCURVE",
"528 657 CURVE SMOOTH",
"867 71 LINE",
"872 62 OFFCURVE",
"877 52 OFFCURVE",
"877 40 CURVE SMOOTH",
"877 11 OFFCURVE",
"850 -1 OFFCURVE",
"824 -1 CURVE SMOOTH",
"148 -1 LINE",
"123 -1 OFFCURVE",
"96 11 OFFCURVE",
"96 40 CURVE SMOOTH"
);
},
{
closed = 1;
nodes = (
"440 211 LINE",
"440 202 OFFCURVE",
"447 195 OFFCURVE",
"456 195 CURVE SMOOTH",
"517 195 LINE",
"526 195 OFFCURVE",
"532 202 OFFCURVE",
"532 211 CURVE SMOOTH",
"539 489 LINE",
"539 497 OFFCURVE",
"531 504 OFFCURVE",
"523 504 CURVE SMOOTH",
"450 504 LINE",
"441 504 OFFCURVE",
"434 497 OFFCURVE",
"434 489 CURVE SMOOTH"
);
},
{
closed = 1;
nodes = (
"438 72 LINE",
"438 63 OFFCURVE",
"444 58 OFFCURVE",
"452 58 CURVE SMOOTH",
"520 58 LINE",
"530 58 OFFCURVE",
"536 62 OFFCURVE",
"536 72 CURVE",
"536 138 LINE",
"536 147 OFFCURVE",
"530 154 OFFCURVE",
"520 154 CURVE SMOOTH",
"452 154 LINE",
"444 154 OFFCURVE",
"438 148 OFFCURVE",
"438 138 CURVE SMOOTH"
);
}
);
width = 953;
}
);
},
{
glyphname = uniE015;
lastChange = "2012-10-18 19:34:50 -0700";
layers = (
{
layerId = "976E1085-9D9E-4132-ADB4-8B20859A3B8B";
name = Regular;
paths = (
{
closed = 1;
nodes = (
"96 51 OFFCURVE",
"100 62 OFFCURVE",
"107 71 CURVE",
"444 657 LINE",
"453 673 OFFCURVE",
"467 689 OFFCURVE",
"486 689 CURVE SMOOTH",
"505 689 OFFCURVE",
"519 673 OFFCURVE",
"528 657 CURVE SMOOTH",
"867 71 LINE",
"872 62 OFFCURVE",
"877 52 OFFCURVE",
"877 40 CURVE SMOOTH",
"877 11 OFFCURVE",
"850 -1 OFFCURVE",
"824 -1 CURVE SMOOTH",
"148 -1 LINE",
"123 -1 OFFCURVE",
"96 11 OFFCURVE",
"96 40 CURVE SMOOTH"
);
},
{
closed = 1;
nodes = (
"451 243 LINE",
"451 236 OFFCURVE",
"456 231 OFFCURVE",
"463 231 CURVE SMOOTH",
"508 231 LINE",
"515 231 OFFCURVE",
"519 236 OFFCURVE",
"519 243 CURVE SMOOTH",
"525 450 LINE",
"525 456 OFFCURVE",
"519 461 OFFCURVE",
"513 461 CURVE SMOOTH",
"458 461 LINE",
"452 461 OFFCURVE",
"447 456 OFFCURVE",
"447 450 CURVE SMOOTH"
);
},
{
closed = 1;
nodes = (
"450 140 LINE",
"450 133 OFFCURVE",
"454 129 OFFCURVE",
"460 129 CURVE SMOOTH",
"511 129 LINE",
"518 129 OFFCURVE",
"522 132 OFFCURVE",
"522 140 CURVE",
"522 189 LINE",
"522 195 OFFCURVE",
"518 201 OFFCURVE",
"511 201 CURVE SMOOTH",
"460 201 LINE",
"454 201 OFFCURVE",
"450 196 OFFCURVE",
"450 189 CURVE SMOOTH"
);
}
);
width = 953;
}
);
},
{
glyphname = uniE016;
lastChange = "2012-10-18 19:35:31 -0700";
layers = (
{
layerId = "976E1085-9D9E-4132-ADB4-8B20859A3B8B";
name = Regular;
paths = (
{
closed = 1;
nodes = (
"333 681 LINE",
"337 689 OFFCURVE",
"347 696 OFFCURVE",
"357 696 CURVE SMOOTH",
"444 696 LINE",
"440 620 LINE",
"517 620 LINE",
"513 696 LINE",
"600 696 LINE",
"609 696 OFFCURVE",
"620 690 OFFCURVE",
"624 681 CURVE SMOOTH",
"889 26 LINE",
"892 18 OFFCURVE",
"887 11 OFFCURVE",
"878 11 CURVE SMOOTH",
"548 11 LINE",
"536 239 LINE",
"421 239 LINE",
"409 11 LINE",
"79 11 LINE",
"70 11 OFFCURVE",
"64 17 OFFCURVE",
"68 26 CURVE SMOOTH"
);
},
{
closed = 1;
nodes = (
"427 366 LINE",
"529 366 LINE",
"521 551 LINE",
"436 551 LINE"
);
}
);
width = 953;
}
);
},
{
glyphname = uniE017;
lastChange = "2012-10-18 19:36:47 -0700";
layers = (
{
layerId = "976E1085-9D9E-4132-ADB4-8B20859A3B8B";
name = Regular;
paths = (
{
closed = 1;
nodes = (
"333 681 LINE",
"337 689 OFFCURVE",
"347 696 OFFCURVE",
"357 696 CURVE SMOOTH",
"444 696 LINE",
"440 570 LINE",
"517 570 LINE",
"513 696 LINE",
"600 696 LINE",
"609 696 OFFCURVE",
"620 690 OFFCURVE",
"624 681 CURVE SMOOTH",
"889 26 LINE",
"892 18 OFFCURVE",
"887 11 OFFCURVE",
"878 11 CURVE SMOOTH",
"548 11 LINE",
"536 189 LINE",
"421 189 LINE",
"409 11 LINE",
"79 11 LINE",
"70 11 OFFCURVE",
"64 17 OFFCURVE",
"68 26 CURVE SMOOTH"
);
},
{
closed = 1;
nodes = (
"427 316 LINE",
"529 316 LINE",
"521 501 LINE",
"436 501 LINE"
);
}
);
width = 953;
}
);
},
{
glyphname = uniE018;
lastChange = "2012-10-18 19:37:52 -0700";
layers = (
{
layerId = "976E1085-9D9E-4132-ADB4-8B20859A3B8B";
name = Regular;
paths = (
{
closed = 1;
nodes = (
"333 681 LINE",
"337 689 OFFCURVE",
"347 696 OFFCURVE",
"357 696 CURVE SMOOTH",
"444 696 LINE",
"513 696 LINE",
"600 696 LINE",
"609 696 OFFCURVE",
"620 690 OFFCURVE",
"624 681 CURVE SMOOTH",
"889 26 LINE",
"892 18 OFFCURVE",
"887 11 OFFCURVE",
"878 11 CURVE SMOOTH",
"548 11 LINE",
"536 139 LINE",
"421 139 LINE",
"409 11 LINE",
"79 11 LINE",
"70 11 OFFCURVE",
"64 17 OFFCURVE",
"68 26 CURVE SMOOTH"
);
},
{
closed = 1;
nodes = (
"427 256 LINE",
"529 256 LINE",
"521 441 LINE",
"436 441 LINE"
);
},
{
closed = 1;
nodes = (
"435 531 LINE",
"520 531 LINE",
"513 685 LINE",
"442 685 LINE"
);
}
);
width = 953;
}
);
},
{
glyphname = uniE019;
lastChange = "2012-10-18 19:39:28 -0700";
layers = (
{
layerId = "976E1085-9D9E-4132-ADB4-8B20859A3B8B";
name = Regular;
paths = (
{
closed = 1;
nodes = (
"333 681 LINE",
"337 689 OFFCURVE",
"347 696 OFFCURVE",
"357 696 CURVE SMOOTH",
"444 696 LINE",
"513 696 LINE",
"600 696 LINE",
"609 696 OFFCURVE",
"620 690 OFFCURVE",
"624 681 CURVE SMOOTH",
"889 26 LINE",
"892 18 OFFCURVE",
"887 11 OFFCURVE",
"878 11 CURVE SMOOTH",
"548 11 LINE",
"536 79 LINE",
"421 79 LINE",
"409 11 LINE",
"79 11 LINE",
"70 11 OFFCURVE",
"64 17 OFFCURVE",
"68 26 CURVE SMOOTH"
);
},
{
closed = 1;
nodes = (
"427 196 LINE",
"529 196 LINE",
"521 381 LINE",
"436 381 LINE"
);
},
{
closed = 1;
nodes = (
"435 471 LINE",
"520 471 LINE",
"513 625 LINE",
"442 625 LINE"
);
}
);
width = 953;
}
);
},
{
glyphname = uniE01A;
lastChange = "2012-10-18 20:03:17 -0700";
layers = (
{
layerId = "976E1085-9D9E-4132-ADB4-8B20859A3B8B";
name = Regular;
paths = (
{
closed = 1;
nodes = (
"120 375 LINE",
"120 403 OFFCURVE",
"143 426 OFFCURVE",
"171 426 CURVE SMOOTH",
"319 426 LINE",
"334 434 OFFCURVE",
"338 445 OFFCURVE",
"352 455 CURVE SMOOTH",
"406 495 OFFCURVE",
"471 504 OFFCURVE",
"616 469 CURVE SMOOTH",
"626 467 OFFCURVE",
"636 464 OFFCURVE",
"646 465 CURVE",
"656 466 OFFCURVE",
"666 466 OFFCURVE",
"676 466 CURVE SMOOTH",
"707 466 OFFCURVE",
"737 460 OFFCURVE",
"761 447 CURVE SMOOTH",
"784 433 OFFCURVE",
"800 409 OFFCURVE",
"800 371 CURVE SMOOTH",
"800 355 OFFCURVE",
"797 340 OFFCURVE",
"791 323 CURVE",
"797 311 OFFCURVE",
"799 298 OFFCURVE",
"799 285 CURVE SMOOTH",
"799 262 OFFCURVE",
"793 242 OFFCURVE",
"782 224 CURVE",
"787 191 OFFCURVE",
"777 155 OFFCURVE",
"754 129 CURVE",
"752 82 OFFCURVE",
"726 51 OFFCURVE",
"691 32 CURVE SMOOTH",
"656 13 OFFCURVE",
"612 6 OFFCURVE",
"573 6 CURVE SMOOTH",
"532 6 OFFCURVE",
"490 13 OFFCURVE",
"450 23 CURVE SMOOTH",
"430 28 OFFCURVE",
"411 35 OFFCURVE",
"391 41 CURVE SMOOTH",
"371 47 OFFCURVE",
"351 51 OFFCURVE",
"330 51 CURVE SMOOTH",
"171 51 LINE",
"143 51 OFFCURVE",
"120 73 OFFCURVE",
"120 102 CURVE SMOOTH"
);
},
{
closed = 1;
nodes = (
"220 117 OFFCURVE",
"234 103 OFFCURVE",
"254 103 CURVE SMOOTH",
"273 103 OFFCURVE",
"288 118 OFFCURVE",
"288 137 CURVE SMOOTH",
"288 156 OFFCURVE",
"273 171 OFFCURVE",
"254 171 CURVE SMOOTH",
"234 171 OFFCURVE",
"220 156 OFFCURVE",
"220 137 CURVE SMOOTH"
);
},
{
closed = 1;
nodes = (
"329 102 LINE",
"369 102 OFFCURVE",
"406 90 OFFCURVE",
"444 80 CURVE SMOOTH",
"483 69 OFFCURVE",
"524 58 OFFCURVE",
"573 58 CURVE SMOOTH",
"598 58 OFFCURVE",
"631 60 OFFCURVE",
"657 72 CURVE SMOOTH",
"683 83 OFFCURVE",
"703 102 OFFCURVE",
"703 136 CURVE SMOOTH",
"703 142 OFFCURVE",
"703 146 OFFCURVE",
"702 152 CURVE",
"722 161 OFFCURVE",
"732 185 OFFCURVE",
"732 206 CURVE SMOOTH",
"732 217 OFFCURVE",
"729 227 OFFCURVE",
"723 235 CURVE",
"740 249 OFFCURVE",
"749 266 OFFCURVE",
"749 287 CURVE SMOOTH",
"749 300 OFFCURVE",
"740 312 OFFCURVE",
"732 320 CURVE",
"741 337 OFFCURVE",
"750 352 OFFCURVE",
"750 371 CURVE SMOOTH",
"750 391 OFFCURVE",
"739 403 OFFCURVE",
"724 409 CURVE SMOOTH",
"710 414 OFFCURVE",
"691 414 OFFCURVE",
"676 414 CURVE SMOOTH",
"663 414 OFFCURVE",
"650 414 OFFCURVE",
"637 413 CURVE SMOOTH",
"624 412 OFFCURVE",
"611 406 OFFCURVE",
"599 412 CURVE SMOOTH",
"512 457 OFFCURVE",
"419 466 OFFCURVE",
"358 391 CURVE SMOOTH",
"352 383 OFFCURVE",
"341 380 OFFCURVE",
"330 375 CURVE",
"329 375 LINE"
);
}
);
width = 953;
}
);
},
{
glyphname = uniE01B;
lastChange = "2012-10-18 20:03:19 -0700";
layers = (
{
layerId = "976E1085-9D9E-4132-ADB4-8B20859A3B8B";
name = Regular;
paths = (
{
closed = 1;
nodes = (
"120 375 LINE",
"120 403 OFFCURVE",
"143 426 OFFCURVE",
"171 426 CURVE SMOOTH",
"319 426 LINE",
"334 434 OFFCURVE",
"341 442 OFFCURVE",
"352 455 CURVE SMOOTH",
"361 467 OFFCURVE",
"370 477 OFFCURVE",
"381 488 CURVE SMOOTH",
"400 507 OFFCURVE",
"414 517 OFFCURVE",
"426 527 CURVE",
"477 559 LINE SMOOTH",
"556 608 OFFCURVE",
"630 494 OFFCURVE",
"616 463 CURVE",
"626 463 OFFCURVE",
"636 464 OFFCURVE",
"646 465 CURVE",
"656 466 OFFCURVE",
"666 466 OFFCURVE",
"676 466 CURVE SMOOTH",
"707 466 OFFCURVE",
"737 460 OFFCURVE",
"761 447 CURVE SMOOTH",
"784 433 OFFCURVE",
"800 409 OFFCURVE",
"800 371 CURVE SMOOTH",
"800 355 OFFCURVE",
"797 340 OFFCURVE",
"791 323 CURVE",
"797 311 OFFCURVE",
"799 298 OFFCURVE",
"799 285 CURVE SMOOTH",
"799 262 OFFCURVE",
"793 242 OFFCURVE",
"782 224 CURVE",
"787 191 OFFCURVE",
"777 155 OFFCURVE",
"754 129 CURVE",
"752 82 OFFCURVE",
"726 51 OFFCURVE",
"691 32 CURVE SMOOTH",
"656 13 OFFCURVE",
"612 6 OFFCURVE",
"573 6 CURVE SMOOTH",
"532 6 OFFCURVE",
"490 13 OFFCURVE",
"450 23 CURVE SMOOTH",
"430 28 OFFCURVE",
"411 35 OFFCURVE",
"391 41 CURVE SMOOTH",
"371 47 OFFCURVE",
"351 51 OFFCURVE",
"330 51 CURVE SMOOTH",
"171 51 LINE",
"143 51 OFFCURVE",
"120 73 OFFCURVE",
"120 102 CURVE SMOOTH"
);
},
{
closed = 1;
nodes = (
"220 117 OFFCURVE",
"234 103 OFFCURVE",
"254 103 CURVE SMOOTH",
"273 103 OFFCURVE",
"288 118 OFFCURVE",
"288 137 CURVE SMOOTH",
"288 156 OFFCURVE",
"273 171 OFFCURVE",
"254 171 CURVE SMOOTH",
"234 171 OFFCURVE",
"220 156 OFFCURVE",
"220 137 CURVE SMOOTH"
);
},
{
closed = 1;
nodes = (
"329 102 LINE",
"369 102 OFFCURVE",
"406 90 OFFCURVE",
"444 80 CURVE SMOOTH",
"483 69 OFFCURVE",
"524 58 OFFCURVE",
"573 58 CURVE SMOOTH",
"598 58 OFFCURVE",
"631 60 OFFCURVE",
"657 72 CURVE SMOOTH",
"683 83 OFFCURVE",
"703 102 OFFCURVE",
"703 136 CURVE SMOOTH",
"703 142 OFFCURVE",
"703 146 OFFCURVE",
"702 152 CURVE",
"722 161 OFFCURVE",
"732 185 OFFCURVE",
"732 206 CURVE SMOOTH",
"732 217 OFFCURVE",
"729 227 OFFCURVE",
"723 235 CURVE",
"740 249 OFFCURVE",
"749 266 OFFCURVE",
"749 287 CURVE SMOOTH",
"749 300 OFFCURVE",
"740 312 OFFCURVE",
"732 320 CURVE",
"741 337 OFFCURVE",
"750 352 OFFCURVE",
"750 371 CURVE SMOOTH",
"750 391 OFFCURVE",
"739 403 OFFCURVE",
"724 409 CURVE SMOOTH",
"710 414 OFFCURVE",
"691 414 OFFCURVE",
"676 414 CURVE SMOOTH",
"663 414 OFFCURVE",
"650 414 OFFCURVE",
"637 413 CURVE SMOOTH",
"624 412 OFFCURVE",
"611 412 OFFCURVE",
"599 412 CURVE SMOOTH",
"581 412 OFFCURVE",
"563 413 OFFCURVE",
"547 420 CURVE",
"547 443 OFFCURVE",
"576 460 OFFCURVE",
"570 485 CURVE SMOOTH",
"550 572 OFFCURVE",
"476 520 OFFCURVE",
"446 494 CURVE SMOOTH",
"420 472 OFFCURVE",
"408 443 OFFCURVE",
"396 429 CURVE SMOOTH",
"385 414 OFFCURVE",
"373 402 OFFCURVE",
"358 391 CURVE SMOOTH",
"350 385 OFFCURVE",
"341 380 OFFCURVE",
"330 375 CURVE",
"329 375 LINE"
);
}
);
width = 953;
}
);
},
{
glyphname = uniE01C;
lastChange = "2012-10-18 20:03:21 -0700";
layers = (
{
layerId = "976E1085-9D9E-4132-ADB4-8B20859A3B8B";
name = Regular;
paths = (
{
closed = 1;
nodes = (
"120 375 LINE",
"120 403 OFFCURVE",
"143 426 OFFCURVE",
"171 426 CURVE SMOOTH",
"319 426 LINE",
"334 434 OFFCURVE",
"341 442 OFFCURVE",
"352 455 CURVE SMOOTH",
"361 467 OFFCURVE",
"370 477 OFFCURVE",
"381 488 CURVE SMOOTH",
"390 497 OFFCURVE",
"401 507 OFFCURVE",
"413 517 CURVE SMOOTH",
"437 536 OFFCURVE",
"447 556 OFFCURVE",
"451 576 CURVE SMOOTH",
"453 586 OFFCURVE",
"455 596 OFFCURVE",
"456 606 CURVE SMOOTH",
"459 627 OFFCURVE",
"462 647 OFFCURVE",
"472 662 CURVE SMOOTH",
"481 677 OFFCURVE",
"497 687 OFFCURVE",
"526 687 CURVE SMOOTH",
"561 687 OFFCURVE",
"590 671 OFFCURVE",
"610 647 CURVE SMOOTH",
"630 622 OFFCURVE",
"642 589 OFFCURVE",
"642 557 CURVE SMOOTH",
"642 523 OFFCURVE",
"630 494 OFFCURVE",
"616 463 CURVE",
"626 463 OFFCURVE",
"636 464 OFFCURVE",
"646 465 CURVE",
"656 466 OFFCURVE",
"666 466 OFFCURVE",
"676 466 CURVE SMOOTH",
"707 466 OFFCURVE",
"737 460 OFFCURVE",
"761 447 CURVE SMOOTH",
"784 433 OFFCURVE",
"800 409 OFFCURVE",
"800 371 CURVE SMOOTH",
"800 355 OFFCURVE",
"797 340 OFFCURVE",
"791 323 CURVE",
"797 311 OFFCURVE",
"799 298 OFFCURVE",
"799 285 CURVE SMOOTH",
"799 262 OFFCURVE",
"793 242 OFFCURVE",
"782 224 CURVE",
"787 191 OFFCURVE",
"777 155 OFFCURVE",
"754 129 CURVE",
"752 82 OFFCURVE",
"726 51 OFFCURVE",
"691 32 CURVE SMOOTH",
"656 13 OFFCURVE",
"612 6 OFFCURVE",
"573 6 CURVE SMOOTH",
"532 6 OFFCURVE",
"490 13 OFFCURVE",
"450 23 CURVE SMOOTH",
"430 28 OFFCURVE",
"411 35 OFFCURVE",
"391 41 CURVE SMOOTH",
"371 47 OFFCURVE",
"351 51 OFFCURVE",
"330 51 CURVE SMOOTH",
"171 51 LINE",
"143 51 OFFCURVE",
"120 73 OFFCURVE",
"120 102 CURVE SMOOTH"
);
},
{
closed = 1;
nodes = (
"220 117 OFFCURVE",
"234 103 OFFCURVE",
"254 103 CURVE SMOOTH",
"273 103 OFFCURVE",
"288 118 OFFCURVE",
"288 137 CURVE SMOOTH",
"288 156 OFFCURVE",
"273 171 OFFCURVE",
"254 171 CURVE SMOOTH",
"234 171 OFFCURVE",
"220 156 OFFCURVE",
"220 137 CURVE SMOOTH"
);
},
{
closed = 1;
nodes = (
"329 102 LINE",
"369 102 OFFCURVE",
"406 90 OFFCURVE",
"444 80 CURVE SMOOTH",
"483 69 OFFCURVE",
"524 58 OFFCURVE",
"573 58 CURVE SMOOTH",
"598 58 OFFCURVE",
"631 60 OFFCURVE",
"657 72 CURVE SMOOTH",
"683 83 OFFCURVE",
"703 102 OFFCURVE",
"703 136 CURVE SMOOTH",
"703 142 OFFCURVE",
"703 146 OFFCURVE",
"702 152 CURVE",
"722 161 OFFCURVE",
"732 185 OFFCURVE",
"732 206 CURVE SMOOTH",
"732 217 OFFCURVE",
"729 227 OFFCURVE",
"723 235 CURVE",
"740 249 OFFCURVE",
"749 266 OFFCURVE",
"749 287 CURVE SMOOTH",
"749 300 OFFCURVE",
"740 312 OFFCURVE",
"732 320 CURVE",
"741 337 OFFCURVE",
"750 352 OFFCURVE",
"750 371 CURVE SMOOTH",
"750 391 OFFCURVE",
"739 403 OFFCURVE",
"724 409 CURVE SMOOTH",
"710 414 OFFCURVE",
"691 414 OFFCURVE",
"676 414 CURVE SMOOTH",
"663 414 OFFCURVE",
"650 414 OFFCURVE",
"637 413 CURVE SMOOTH",
"624 412 OFFCURVE",
"611 412 OFFCURVE",
"599 412 CURVE SMOOTH",
"581 412 OFFCURVE",
"563 413 OFFCURVE",
"547 420 CURVE",
"547 443 OFFCURVE",
"559 463 OFFCURVE",
"570 485 CURVE SMOOTH",
"581 506 OFFCURVE",
"591 528 OFFCURVE",
"591 557 CURVE SMOOTH",
"591 575 OFFCURVE",
"585 595 OFFCURVE",
"574 610 CURVE SMOOTH",
"563 625 OFFCURVE",
"547 636 OFFCURVE",
"526 636 CURVE SMOOTH",
"525 636 OFFCURVE",
"524 636 OFFCURVE",
"522 636 CURVE SMOOTH",
"518 636 OFFCURVE",
"513 634 OFFCURVE",
"513 632 CURVE",
"513 630 OFFCURVE",
"512 629 OFFCURVE",
"512 626 CURVE",
"508 609 OFFCURVE",
"505 592 OFFCURVE",
"502 574 CURVE SMOOTH",
"496 537 OFFCURVE",
"479 507 OFFCURVE",
"454 486 CURVE SMOOTH",
"428 465 OFFCURVE",
"408 443 OFFCURVE",
"396 429 CURVE SMOOTH",
"385 414 OFFCURVE",
"373 402 OFFCURVE",
"358 391 CURVE SMOOTH",
"350 385 OFFCURVE",
"341 380 OFFCURVE",
"330 375 CURVE",
"329 375 LINE"
);
}
);
width = 953;
}
);
},
{
glyphname = uniE01D;
lastChange = "2012-10-18 20:03:23 -0700";
layers = (
{
layerId = "976E1085-9D9E-4132-ADB4-8B20859A3B8B";
name = Regular;
paths = (
{
closed = 1;
nodes = (
"819 140 LINE",
"819 112 OFFCURVE",
"796 89 OFFCURVE",
"768 89 CURVE SMOOTH",
"620 89 LINE",
"605 81 OFFCURVE",
"601 70 OFFCURVE",
"587 60 CURVE SMOOTH",
"533 20 OFFCURVE",
"468 11 OFFCURVE",
"323 46 CURVE SMOOTH",
"313 48 OFFCURVE",
"303 51 OFFCURVE",
"293 50 CURVE",
"283 49 OFFCURVE",
"273 49 OFFCURVE",
"263 49 CURVE SMOOTH",
"232 49 OFFCURVE",
"202 55 OFFCURVE",
"178 68 CURVE SMOOTH",
"155 82 OFFCURVE",
"139 106 OFFCURVE",
"139 144 CURVE SMOOTH",
"139 160 OFFCURVE",
"142 175 OFFCURVE",
"148 192 CURVE",
"142 204 OFFCURVE",
"140 217 OFFCURVE",
"140 230 CURVE SMOOTH",
"140 253 OFFCURVE",
"146 273 OFFCURVE",
"157 291 CURVE",
"152 324 OFFCURVE",
"162 360 OFFCURVE",
"185 386 CURVE",
"187 433 OFFCURVE",
"213 464 OFFCURVE",
"248 483 CURVE SMOOTH",
"283 502 OFFCURVE",
"327 509 OFFCURVE",
"366 509 CURVE SMOOTH",
"407 509 OFFCURVE",
"449 502 OFFCURVE",
"489 492 CURVE SMOOTH",
"509 487 OFFCURVE",
"528 480 OFFCURVE",
"548 474 CURVE SMOOTH",
"568 468 OFFCURVE",
"588 464 OFFCURVE",
"609 464 CURVE SMOOTH",
"768 464 LINE",
"796 464 OFFCURVE",
"819 442 OFFCURVE",
"819 413 CURVE SMOOTH"
);
},
{
closed = 1;
nodes = (
"719 398 OFFCURVE",
"705 412 OFFCURVE",
"685 412 CURVE SMOOTH",
"666 412 OFFCURVE",
"651 397 OFFCURVE",
"651 378 CURVE SMOOTH",
"651 359 OFFCURVE",
"666 344 OFFCURVE",
"685 344 CURVE SMOOTH",
"705 344 OFFCURVE",
"719 359 OFFCURVE",
"719 378 CURVE SMOOTH"
);
},
{
closed = 1;
nodes = (
"610 413 LINE",
"570 413 OFFCURVE",
"533 425 OFFCURVE",
"495 435 CURVE SMOOTH",
"456 446 OFFCURVE",
"415 457 OFFCURVE",
"366 457 CURVE SMOOTH",
"341 457 OFFCURVE",
"308 455 OFFCURVE",
"282 443 CURVE SMOOTH",
"256 432 OFFCURVE",
"236 413 OFFCURVE",
"236 379 CURVE SMOOTH",
"236 373 OFFCURVE",
"236 369 OFFCURVE",
"237 363 CURVE",
"217 354 OFFCURVE",
"207 330 OFFCURVE",
"207 309 CURVE SMOOTH",
"207 298 OFFCURVE",
"210 288 OFFCURVE",
"216 280 CURVE",
"199 266 OFFCURVE",
"190 249 OFFCURVE",
"190 228 CURVE SMOOTH",
"190 215 OFFCURVE",
"199 203 OFFCURVE",
"207 195 CURVE",
"198 178 OFFCURVE",
"189 163 OFFCURVE",
"189 144 CURVE SMOOTH",
"189 124 OFFCURVE",
"200 112 OFFCURVE",
"215 106 CURVE SMOOTH",
"229 101 OFFCURVE",
"248 101 OFFCURVE",
"263 101 CURVE SMOOTH",
"276 101 OFFCURVE",
"289 101 OFFCURVE",
"302 102 CURVE SMOOTH",
"315 103 OFFCURVE",
"328 109 OFFCURVE",
"340 103 CURVE SMOOTH",
"427 58 OFFCURVE",
"520 49 OFFCURVE",
"581 124 CURVE SMOOTH",
"587 132 OFFCURVE",
"598 135 OFFCURVE",
"609 140 CURVE",
"610 140 LINE"
);
}
);
width = 953;
}
);
},
{
glyphname = uniE01E;
lastChange = "2012-10-18 20:03:26 -0700";
layers = (
{
layerId = "976E1085-9D9E-4132-ADB4-8B20859A3B8B";
name = Regular;
paths = (
{
closed = 1;
nodes = (
"819 141 LINE",
"819 113 OFFCURVE",
"796 90 OFFCURVE",
"768 90 CURVE SMOOTH",
"620 89 LINE",
"605 81 OFFCURVE",
"598 73 OFFCURVE",
"587 60 CURVE SMOOTH",
"578 48 OFFCURVE",
"569 38 OFFCURVE",
"559 27 CURVE SMOOTH",
"540 8 OFFCURVE",
"526 -2 OFFCURVE",
"514 -12 CURVE",
"463 -44 LINE",
"384 -93 OFFCURVE",
"310 21 OFFCURVE",
"323 52 CURVE",
"313 52 OFFCURVE",
"303 51 OFFCURVE",
"293 50 CURVE",
"283 49 OFFCURVE",
"273 49 OFFCURVE",
"263 49 CURVE SMOOTH",
"232 49 OFFCURVE",
"202 54 OFFCURVE",
"178 67 CURVE SMOOTH",
"155 81 OFFCURVE",
"139 105 OFFCURVE",
"139 143 CURVE SMOOTH",
"139 159 OFFCURVE",
"142 174 OFFCURVE",
"148 191 CURVE",
"142 203 OFFCURVE",
"140 216 OFFCURVE",
"140 229 CURVE SMOOTH",
"140 252 OFFCURVE",
"146 272 OFFCURVE",
"157 290 CURVE",
"152 323 OFFCURVE",
"162 359 OFFCURVE",
"185 385 CURVE",
"187 432 OFFCURVE",
"213 464 OFFCURVE",
"248 483 CURVE SMOOTH",
"283 502 OFFCURVE",
"327 509 OFFCURVE",
"366 509 CURVE SMOOTH",
"407 509 OFFCURVE",
"449 502 OFFCURVE",
"489 492 CURVE SMOOTH",
"509 487 OFFCURVE",
"528 480 OFFCURVE",
"548 474 CURVE SMOOTH",
"568 468 OFFCURVE",
"588 464 OFFCURVE",
"609 464 CURVE SMOOTH",
"768 465 LINE",
"796 465 OFFCURVE",
"819 443 OFFCURVE",
"819 414 CURVE SMOOTH"
);
},
{
closed = 1;
nodes = (
"719 399 OFFCURVE",
"705 412 OFFCURVE",
"685 412 CURVE SMOOTH",
"666 412 OFFCURVE",
"651 397 OFFCURVE",
"651 378 CURVE SMOOTH",
"651 359 OFFCURVE",
"666 344 OFFCURVE",
"685 344 CURVE SMOOTH",
"705 344 OFFCURVE",
"719 360 OFFCURVE",
"719 379 CURVE SMOOTH"
);
},
{
closed = 1;
nodes = (
"610 413 LINE",
"570 413 OFFCURVE",
"533 425 OFFCURVE",
"495 435 CURVE SMOOTH",
"456 446 OFFCURVE",
"415 457 OFFCURVE",
"366 457 CURVE SMOOTH",
"341 457 OFFCURVE",
"308 455 OFFCURVE",
"282 443 CURVE SMOOTH",
"256 432 OFFCURVE",
"236 413 OFFCURVE",
"236 379 CURVE SMOOTH",
"236 373 OFFCURVE",
"236 369 OFFCURVE",
"237 363 CURVE",
"217 354 OFFCURVE",
"207 329 OFFCURVE",
"207 308 CURVE SMOOTH",
"207 297 OFFCURVE",
"210 287 OFFCURVE",
"216 280 CURVE",
"199 265 OFFCURVE",
"190 248 OFFCURVE",
"190 227 CURVE SMOOTH",
"190 214 OFFCURVE",
"199 202 OFFCURVE",
"207 194 CURVE",
"198 177 OFFCURVE",
"189 162 OFFCURVE",
"189 143 CURVE SMOOTH",
"189 123 OFFCURVE",
"200 111 OFFCURVE",
"215 106 CURVE SMOOTH",
"229 101 OFFCURVE",
"248 101 OFFCURVE",
"263 101 CURVE SMOOTH",
"276 101 OFFCURVE",
"289 101 OFFCURVE",
"302 102 CURVE SMOOTH",
"315 103 OFFCURVE",
"328 103 OFFCURVE",
"340 103 CURVE SMOOTH",
"358 103 OFFCURVE",
"376 102 OFFCURVE",
"392 95 CURVE",
"392 72 OFFCURVE",
"363 55 OFFCURVE",
"370 30 CURVE SMOOTH",
"390 -57 OFFCURVE",
"464 -5 OFFCURVE",
"494 21 CURVE SMOOTH",
"519 43 OFFCURVE",
"531 72 OFFCURVE",
"543 86 CURVE SMOOTH",
"554 101 OFFCURVE",
"566 113 OFFCURVE",
"581 124 CURVE SMOOTH",
"589 130 OFFCURVE",
"598 135 OFFCURVE",
"609 140 CURVE",
"610 140 LINE"
);
}
);
width = 953;
}
);
},
{
glyphname = uniE01F;
lastChange = "2012-10-18 20:03:29 -0700";
layers = (
{
layerId = "976E1085-9D9E-4132-ADB4-8B20859A3B8B";
name = Regular;
paths = (
{
closed = 1;
nodes = (
"819 141 LINE",
"820 113 OFFCURVE",
"797 89 OFFCURVE",
"769 89 CURVE SMOOTH",
"621 90 LINE",
"606 82 OFFCURVE",
"599 74 OFFCURVE",
"588 61 CURVE SMOOTH",
"579 49 OFFCURVE",
"570 38 OFFCURVE",
"559 27 CURVE SMOOTH",
"550 18 OFFCURVE",
"539 8 OFFCURVE",
"527 -2 CURVE SMOOTH",
"503 -21 OFFCURVE",
"492 -41 OFFCURVE",
"488 -61 CURVE SMOOTH",
"486 -71 OFFCURVE",
"484 -81 OFFCURVE",
"483 -91 CURVE SMOOTH",
"480 -112 OFFCURVE",
"478 -132 OFFCURVE",
"468 -147 CURVE SMOOTH",
"459 -162 OFFCURVE",
"443 -172 OFFCURVE",
"414 -172 CURVE SMOOTH",
"379 -171 OFFCURVE",
"350 -155 OFFCURVE",
"330 -131 CURVE SMOOTH",
"309 -107 OFFCURVE",
"297 -74 OFFCURVE",
"297 -42 CURVE SMOOTH",
"298 -8 OFFCURVE",
"310 21 OFFCURVE",
"324 53 CURVE",
"314 52 OFFCURVE",
"304 51 OFFCURVE",
"294 50 CURVE",
"284 49 OFFCURVE",
"274 49 OFFCURVE",
"264 49 CURVE SMOOTH",
"233 49 OFFCURVE",
"203 55 OFFCURVE",
"179 68 CURVE SMOOTH",
"156 82 OFFCURVE",
"140 107 OFFCURVE",
"139 145 CURVE SMOOTH",
"139 161 OFFCURVE",
"142 176 OFFCURVE",
"148 192 CURVE",
"143 205 OFFCURVE",
"141 218 OFFCURVE",
"141 231 CURVE SMOOTH",
"141 254 OFFCURVE",
"147 274 OFFCURVE",
"158 291 CURVE",
"153 324 OFFCURVE",
"163 360 OFFCURVE",
"185 386 CURVE",
"187 433 OFFCURVE",
"214 464 OFFCURVE",
"249 483 CURVE SMOOTH",
"284 502 OFFCURVE",
"328 510 OFFCURVE",
"367 510 CURVE SMOOTH",
"408 509 OFFCURVE",
"450 502 OFFCURVE",
"490 492 CURVE SMOOTH",
"510 487 OFFCURVE",
"529 480 OFFCURVE",
"549 474 CURVE SMOOTH",
"569 468 OFFCURVE",
"589 465 OFFCURVE",
"610 465 CURVE SMOOTH",
"769 464 LINE",
"797 464 OFFCURVE",
"819 443 OFFCURVE",
"819 414 CURVE SMOOTH"
);
},
{
closed = 1;
nodes = (
"719 398 OFFCURVE",
"705 412 OFFCURVE",
"685 412 CURVE SMOOTH",
"666 412 OFFCURVE",
"651 397 OFFCURVE",
"652 378 CURVE SMOOTH",
"652 359 OFFCURVE",
"667 344 OFFCURVE",
"686 344 CURVE SMOOTH",
"706 344 OFFCURVE",
"720 359 OFFCURVE",
"720 378 CURVE SMOOTH"
);
},
{
closed = 1;
nodes = (
"610 414 LINE",
"570 414 OFFCURVE",
"533 425 OFFCURVE",
"495 435 CURVE SMOOTH",
"457 446 OFFCURVE",
"416 457 OFFCURVE",
"367 458 CURVE SMOOTH",
"342 458 OFFCURVE",
"309 455 OFFCURVE",
"283 443 CURVE SMOOTH",
"256 432 OFFCURVE",
"236 413 OFFCURVE",
"236 379 CURVE SMOOTH",
"237 373 OFFCURVE",
"237 369 OFFCURVE",
"238 363 CURVE",
"218 354 OFFCURVE",
"208 330 OFFCURVE",
"208 309 CURVE SMOOTH",
"208 298 OFFCURVE",
"211 288 OFFCURVE",
"217 280 CURVE",
"200 266 OFFCURVE",
"191 249 OFFCURVE",
"191 228 CURVE SMOOTH",
"191 215 OFFCURVE",
"199 203 OFFCURVE",
"207 195 CURVE",
"198 178 OFFCURVE",
"189 163 OFFCURVE",
"189 144 CURVE SMOOTH",
"190 124 OFFCURVE",
"201 112 OFFCURVE",
"216 106 CURVE SMOOTH",
"230 101 OFFCURVE",
"249 101 OFFCURVE",
"264 101 CURVE SMOOTH",
"277 101 OFFCURVE",
"290 101 OFFCURVE",
"303 102 CURVE SMOOTH",
"316 103 OFFCURVE",
"329 104 OFFCURVE",
"341 104 CURVE SMOOTH",
"359 104 OFFCURVE",
"377 103 OFFCURVE",
"393 95 CURVE",
"393 72 OFFCURVE",
"381 53 OFFCURVE",
"370 31 CURVE SMOOTH",
"359 10 OFFCURVE",
"349 -12 OFFCURVE",
"348 -41 CURVE SMOOTH",
"348 -59 OFFCURVE",
"354 -79 OFFCURVE",
"365 -94 CURVE SMOOTH",
"376 -109 OFFCURVE",
"393 -121 OFFCURVE",
"414 -121 CURVE SMOOTH",
"415 -121 OFFCURVE",
"416 -121 OFFCURVE",
"418 -121 CURVE SMOOTH",
"422 -121 OFFCURVE",
"427 -119 OFFCURVE",
"427 -117 CURVE",
"426 -115 OFFCURVE",
"427 -114 OFFCURVE",
"427 -111 CURVE",
"431 -94 OFFCURVE",
"434 -77 OFFCURVE",
"437 -59 CURVE SMOOTH",
"444 -22 OFFCURVE",
"461 8 OFFCURVE",
"486 29 CURVE SMOOTH",
"512 50 OFFCURVE",
"532 72 OFFCURVE",
"544 86 CURVE SMOOTH",
"555 101 OFFCURVE",
"567 113 OFFCURVE",
"582 125 CURVE SMOOTH",
"590 131 OFFCURVE",
"598 136 OFFCURVE",
"609 141 CURVE",
"610 141 LINE"
);
}
);
width = 953;
}
);
},
{
glyphname = uniE020;
lastChange = "2012-10-18 20:16:38 -0700";
layers = (
{
layerId = "976E1085-9D9E-4132-ADB4-8B20859A3B8B";
name = Regular;
paths = (
{
closed = 1;
nodes = (
"80 412 OFFCURVE",
"101 475 OFFCURVE",
"144 525 CURVE",
"144 526 LINE",
"144 527 LINE",
"135 550 OFFCURVE",
"133 574 OFFCURVE",
"133 599 CURVE SMOOTH",
"133 612 OFFCURVE",
"134 632 OFFCURVE",
"137 651 CURVE SMOOTH",
"141 670 OFFCURVE",
"146 688 OFFCURVE",
"154 700 CURVE",
"157 700 LINE",
"192 700 OFFCURVE",
"220 693 OFFCURVE",
"246 680 CURVE SMOOTH",
"259 673 OFFCURVE",
"271 666 OFFCURVE",
"283 657 CURVE SMOOTH",
"295 649 OFFCURVE",
"308 640 OFFCURVE",
"322 631 CURVE",
"372 646 OFFCURVE",
"425 649 OFFCURVE",
"477 649 CURVE SMOOTH",
"528 649 OFFCURVE",
"583 646 OFFCURVE",
"633 631 CURVE",
"646 640 OFFCURVE",
"659 649 OFFCURVE",
"671 657 CURVE SMOOTH",
"695 674 OFFCURVE",
"721 688 OFFCURVE",
"749 695 CURVE SMOOTH",
"763 698 OFFCURVE",
"778 700 OFFCURVE",
"796 700 CURVE SMOOTH",
"800 700 LINE",
"807 689 OFFCURVE",
"813 670 OFFCURVE",
"816 651 CURVE SMOOTH",
"820 632 OFFCURVE",
"821 612 OFFCURVE",
"821 599 CURVE SMOOTH",
"821 574 OFFCURVE",
"819 550 OFFCURVE",
"811 527 CURVE",
"811 526 LINE",
"810 525 LINE",
"853 475 OFFCURVE",
"873 412 OFFCURVE",
"873 346 CURVE SMOOTH",
"873 212 OFFCURVE",
"834 130 OFFCURVE",
"764 80 CURVE SMOOTH",
"694 30 OFFCURVE",
"595 13 OFFCURVE",
"477 13 CURVE SMOOTH",
"359 13 OFFCURVE",
"259 30 OFFCURVE",
"189 80 CURVE SMOOTH",
"120 130 OFFCURVE",
"80 212 OFFCURVE",
"80 346 CURVE SMOOTH"
);
},
{
closed = 1;
nodes = (
"187 151 OFFCURVE",
"229 109 OFFCURVE",
"286 88 CURVE SMOOTH",
"344 67 OFFCURVE",
"415 67 OFFCURVE",
"478 67 CURVE SMOOTH",
"520 67 OFFCURVE",
"566 68 OFFCURVE",
"609 74 CURVE SMOOTH",
"652 80 OFFCURVE",
"692 92 OFFCURVE",
"721 117 CURVE SMOOTH",
"750 142 OFFCURVE",
"769 180 OFFCURVE",
"769 236 CURVE SMOOTH",
"769 285 OFFCURVE",
"752 321 OFFCURVE",
"725 345 CURVE SMOOTH",
"697 370 OFFCURVE",
"658 382 OFFCURVE",
"613 382 CURVE SMOOTH",
"590 382 OFFCURVE",
"568 381 OFFCURVE",
"545 380 CURVE SMOOTH",
"523 377 OFFCURVE",
"501 376 OFFCURVE",
"478 376 CURVE SMOOTH",
"456 376 OFFCURVE",
"433 377 OFFCURVE",
"411 380 CURVE SMOOTH",
"388 381 OFFCURVE",
"365 382 OFFCURVE",
"343 382 CURVE SMOOTH",
"251 382 OFFCURVE",
"187 332 OFFCURVE",
"187 234 CURVE SMOOTH"
);
},
{
closed = 1;
nodes = (
"292 289 OFFCURVE",
"310 321 OFFCURVE",
"332 321 CURVE SMOOTH",
"355 321 OFFCURVE",
"372 289 OFFCURVE",
"372 252 CURVE SMOOTH",
"372 214 OFFCURVE",
"355 184 OFFCURVE",
"332 184 CURVE SMOOTH",
"310 184 OFFCURVE",
"292 214 OFFCURVE",
"292 252 CURVE SMOOTH"
);
},
{
closed = 1;
nodes = (
"418 147 OFFCURVE",
"433 154 OFFCURVE",
"437 142 CURVE",
"445 121 OFFCURVE",
"458 110 OFFCURVE",
"477 111 CURVE SMOOTH",
"495 111 OFFCURVE",
"511 124 OFFCURVE",
"517 142 CURVE",
"521 155 OFFCURVE",
"535 148 OFFCURVE",
"533 138 CURVE",
"524 111 OFFCURVE",
"503 93 OFFCURVE",
"477 93 CURVE SMOOTH",
"453 93 OFFCURVE",
"431 111 OFFCURVE",
"422 138 CURVE"
);
},
{
closed = 1;
nodes = (
"451 178 OFFCURVE",
"463 172 OFFCURVE",
"477 172 CURVE SMOOTH",
"491 172 OFFCURVE",
"502 178 OFFCURVE",
"502 186 CURVE SMOOTH",
"502 192 OFFCURVE",
"491 199 OFFCURVE",
"477 199 CURVE SMOOTH",
"463 199 OFFCURVE",
"451 192 OFFCURVE",
"451 186 CURVE SMOOTH"
);
},
{
closed = 1;
nodes = (
"582 214 OFFCURVE",
"600 184 OFFCURVE",
"622 184 CURVE SMOOTH",
"644 184 OFFCURVE",
"662 214 OFFCURVE",
"662 252 CURVE SMOOTH",
"662 289 OFFCURVE",
"644 321 OFFCURVE",
"622 321 CURVE SMOOTH",
"600 321 OFFCURVE",
"582 289 OFFCURVE",
"582 252 CURVE SMOOTH"
);
}
);
width = 953;
}
);
},
{
glyphname = uniE021;
lastChange = "2012-10-18 20:17:36 -0700";
layers = (
{
layerId = "976E1085-9D9E-4132-ADB4-8B20859A3B8B";
name = Regular;
paths = (
{
closed = 1;
nodes = (
"80 412 OFFCURVE",
"101 475 OFFCURVE",
"144 525 CURVE",
"144 526 LINE",
"144 527 LINE",
"135 550 OFFCURVE",
"133 574 OFFCURVE",
"133 599 CURVE SMOOTH",
"133 612 OFFCURVE",
"134 632 OFFCURVE",
"137 651 CURVE SMOOTH",
"141 670 OFFCURVE",
"146 688 OFFCURVE",
"154 700 CURVE",
"157 700 LINE",
"192 700 OFFCURVE",
"220 693 OFFCURVE",
"246 680 CURVE SMOOTH",
"259 673 OFFCURVE",
"271 666 OFFCURVE",
"283 657 CURVE SMOOTH",
"295 649 OFFCURVE",
"308 640 OFFCURVE",
"322 631 CURVE",
"372 646 OFFCURVE",
"425 649 OFFCURVE",
"477 649 CURVE SMOOTH",
"528 649 OFFCURVE",
"583 646 OFFCURVE",
"633 631 CURVE",
"646 640 OFFCURVE",
"659 649 OFFCURVE",
"671 657 CURVE SMOOTH",
"695 674 OFFCURVE",
"721 688 OFFCURVE",
"749 695 CURVE SMOOTH",
"763 698 OFFCURVE",
"778 700 OFFCURVE",
"796 700 CURVE SMOOTH",
"800 700 LINE",
"807 689 OFFCURVE",
"813 670 OFFCURVE",
"816 651 CURVE SMOOTH",
"820 632 OFFCURVE",
"821 612 OFFCURVE",
"821 599 CURVE SMOOTH",
"821 574 OFFCURVE",
"819 550 OFFCURVE",
"811 527 CURVE",
"811 526 LINE",
"810 525 LINE",
"853 475 OFFCURVE",
"873 412 OFFCURVE",
"873 346 CURVE SMOOTH",
"873 212 OFFCURVE",
"834 130 OFFCURVE",
"764 80 CURVE SMOOTH",
"694 30 OFFCURVE",
"595 13 OFFCURVE",
"477 13 CURVE SMOOTH",
"359 13 OFFCURVE",
"259 30 OFFCURVE",
"189 80 CURVE SMOOTH",
"120 130 OFFCURVE",
"80 212 OFFCURVE",
"80 346 CURVE SMOOTH"
);
},
{
closed = 1;
nodes = (
"187 151 OFFCURVE",
"229 109 OFFCURVE",
"286 88 CURVE SMOOTH",
"344 67 OFFCURVE",
"415 67 OFFCURVE",
"478 67 CURVE SMOOTH",
"520 67 OFFCURVE",
"566 68 OFFCURVE",
"609 74 CURVE SMOOTH",
"652 80 OFFCURVE",
"692 92 OFFCURVE",
"721 117 CURVE SMOOTH",
"750 142 OFFCURVE",
"769 180 OFFCURVE",
"769 236 CURVE SMOOTH",
"769 285 OFFCURVE",
"752 321 OFFCURVE",
"725 345 CURVE SMOOTH",
"697 370 OFFCURVE",
"658 382 OFFCURVE",
"613 382 CURVE SMOOTH",
"590 382 OFFCURVE",
"568 381 OFFCURVE",
"545 380 CURVE SMOOTH",
"523 377 OFFCURVE",
"501 376 OFFCURVE",
"478 376 CURVE SMOOTH",
"456 376 OFFCURVE",
"433 377 OFFCURVE",
"411 380 CURVE SMOOTH",
"388 381 OFFCURVE",
"365 382 OFFCURVE",
"343 382 CURVE SMOOTH",
"251 382 OFFCURVE",
"187 332 OFFCURVE",
"187 234 CURVE SMOOTH"
);
},
{
closed = 1;
nodes = (
"292 289 OFFCURVE",
"310 321 OFFCURVE",
"332 321 CURVE SMOOTH",
"355 321 OFFCURVE",
"372 289 OFFCURVE",
"372 252 CURVE SMOOTH",
"372 214 OFFCURVE",
"355 184 OFFCURVE",
"332 184 CURVE SMOOTH",
"310 184 OFFCURVE",
"292 214 OFFCURVE",
"292 252 CURVE SMOOTH"
);
},
{
closed = 1;
nodes = (
"418 127 OFFCURVE",
"433 134 OFFCURVE",
"437 122 CURVE",
"445 101 OFFCURVE",
"458 110 OFFCURVE",
"477 111 CURVE SMOOTH",
"495 111 OFFCURVE",
"501 112 OFFCURVE",
"517 112 CURVE",
"526 112 OFFCURVE",
"529 106 OFFCURVE",
"527 96 CURVE",
"503 93 OFFCURVE",
"503 93 OFFCURVE",
"477 93 CURVE SMOOTH",
"453 93 OFFCURVE",
"431 91 OFFCURVE",
"422 118 CURVE"
);
},
{
closed = 1;
nodes = (
"451 178 OFFCURVE",
"463 172 OFFCURVE",
"477 172 CURVE SMOOTH",
"491 172 OFFCURVE",
"502 178 OFFCURVE",
"502 186 CURVE SMOOTH",
"502 192 OFFCURVE",
"491 199 OFFCURVE",
"477 199 CURVE SMOOTH",
"463 199 OFFCURVE",
"451 192 OFFCURVE",
"451 186 CURVE SMOOTH"
);
},
{
closed = 1;
nodes = (
"582 214 OFFCURVE",
"600 184 OFFCURVE",
"622 184 CURVE SMOOTH",
"644 184 OFFCURVE",
"662 214 OFFCURVE",
"662 252 CURVE SMOOTH",
"662 289 OFFCURVE",
"644 321 OFFCURVE",
"622 321 CURVE SMOOTH",
"600 321 OFFCURVE",
"582 289 OFFCURVE",
"582 252 CURVE SMOOTH"
);
}
);
width = 953;
}
);
},
{
glyphname = uniE022;
lastChange = "2012-10-18 20:16:36 -0700";
layers = (
{
layerId = "976E1085-9D9E-4132-ADB4-8B20859A3B8B";
name = Regular;
paths = (
{
closed = 1;
nodes = (
"80 412 OFFCURVE",
"101 475 OFFCURVE",
"144 525 CURVE",
"144 526 LINE",
"144 527 LINE",
"145 530 OFFCURVE",
"145 537 OFFCURVE",
"145 562 CURVE SMOOTH",
"145 575 OFFCURVE",
"146 595 OFFCURVE",
"149 614 CURVE SMOOTH",
"153 633 OFFCURVE",
"158 651 OFFCURVE",
"166 663 CURVE",
"169 663 LINE",
"204 663 OFFCURVE",
"232 656 OFFCURVE",
"258 643 CURVE SMOOTH",
"271 636 OFFCURVE",
"282 636 OFFCURVE",
"294 627 CURVE SMOOTH",
"306 619 OFFCURVE",
"318 620 OFFCURVE",
"322 631 CURVE",
"372 646 OFFCURVE",
"425 649 OFFCURVE",
"477 649 CURVE SMOOTH",
"528 649 OFFCURVE",
"583 646 OFFCURVE",
"633 631 CURVE",
"646 640 OFFCURVE",
"659 649 OFFCURVE",
"671 657 CURVE SMOOTH",
"695 674 OFFCURVE",
"721 688 OFFCURVE",
"749 695 CURVE SMOOTH",
"763 698 OFFCURVE",
"778 700 OFFCURVE",
"796 700 CURVE SMOOTH",
"800 700 LINE",
"807 689 OFFCURVE",
"813 670 OFFCURVE",
"816 651 CURVE SMOOTH",
"820 632 OFFCURVE",
"821 612 OFFCURVE",
"821 599 CURVE SMOOTH",
"821 574 OFFCURVE",
"819 550 OFFCURVE",
"811 527 CURVE",
"811 526 LINE",
"810 525 LINE",
"853 475 OFFCURVE",
"873 412 OFFCURVE",
"873 346 CURVE SMOOTH",
"873 212 OFFCURVE",
"834 130 OFFCURVE",
"764 80 CURVE SMOOTH",
"694 30 OFFCURVE",
"595 13 OFFCURVE",
"477 13 CURVE SMOOTH",
"359 13 OFFCURVE",
"259 30 OFFCURVE",
"189 80 CURVE SMOOTH",
"120 130 OFFCURVE",
"80 212 OFFCURVE",
"80 346 CURVE SMOOTH"
);
},
{
closed = 1;
nodes = (
"187 151 OFFCURVE",
"229 109 OFFCURVE",
"286 88 CURVE SMOOTH",
"344 67 OFFCURVE",
"415 67 OFFCURVE",
"478 67 CURVE SMOOTH",
"520 67 OFFCURVE",
"566 68 OFFCURVE",
"609 74 CURVE SMOOTH",
"652 80 OFFCURVE",
"692 92 OFFCURVE",
"721 117 CURVE SMOOTH",
"750 142 OFFCURVE",
"769 180 OFFCURVE",
"769 236 CURVE SMOOTH",
"769 285 OFFCURVE",
"752 321 OFFCURVE",
"725 345 CURVE SMOOTH",
"697 370 OFFCURVE",
"658 382 OFFCURVE",
"613 382 CURVE SMOOTH",
"590 382 OFFCURVE",
"568 381 OFFCURVE",
"545 380 CURVE SMOOTH",
"523 377 OFFCURVE",
"501 376 OFFCURVE",
"478 376 CURVE SMOOTH",
"456 376 OFFCURVE",
"433 377 OFFCURVE",
"411 380 CURVE SMOOTH",
"388 381 OFFCURVE",
"365 382 OFFCURVE",
"343 382 CURVE SMOOTH",
"251 382 OFFCURVE",
"187 332 OFFCURVE",
"187 234 CURVE SMOOTH"
);
},
{
closed = 1;
nodes = (
"296 289 OFFCURVE",
"310 301 OFFCURVE",
"332 301 CURVE SMOOTH",
"355 301 OFFCURVE",
"368 289 OFFCURVE",
"368 252 CURVE SMOOTH",
"368 214 OFFCURVE",
"355 204 OFFCURVE",
"332 204 CURVE SMOOTH",
"310 204 OFFCURVE",
"296 214 OFFCURVE",
"296 252 CURVE SMOOTH"
);
},
{
closed = 1;
nodes = (
"451 178 OFFCURVE",
"463 172 OFFCURVE",
"477 172 CURVE SMOOTH",
"491 172 OFFCURVE",
"502 178 OFFCURVE",
"502 186 CURVE SMOOTH",
"502 192 OFFCURVE",
"491 199 OFFCURVE",
"477 199 CURVE SMOOTH",
"463 199 OFFCURVE",
"451 192 OFFCURVE",
"451 186 CURVE SMOOTH"
);
},
{
closed = 1;
nodes = (
"582 214 OFFCURVE",
"600 184 OFFCURVE",
"622 184 CURVE SMOOTH",
"644 184 OFFCURVE",
"662 214 OFFCURVE",
"662 252 CURVE SMOOTH",
"662 289 OFFCURVE",
"644 321 OFFCURVE",
"622 321 CURVE SMOOTH",
"600 321 OFFCURVE",
"582 289 OFFCURVE",
"582 252 CURVE SMOOTH"
);
},
{
closed = 1;
nodes = (
"463 99 LINE",
"493 99 LINE",
"493 109 LINE",
"463 109 LINE"
);
}
);
width = 953;
}
);
},
{
glyphname = uniE023;
lastChange = "2012-10-18 20:56:44 -0700";
layers = (
{
layerId = "976E1085-9D9E-4132-ADB4-8B20859A3B8B";
name = Regular;
paths = (
{
closed = 1;
nodes = (
"839 669 LINE",
"872 669 OFFCURVE",
"898 641 OFFCURVE",
"898 610 CURVE SMOOTH",
"898 220 LINE",
"898 189 OFFCURVE",
"872 161 OFFCURVE",
"839 161 CURVE SMOOTH",
"110 161 LINE",
"77 161 OFFCURVE",
"51 189 OFFCURVE",
"51 220 CURVE SMOOTH",
"51 610 LINE",
"51 641 OFFCURVE",
"77 669 OFFCURVE",
"110 669 CURVE SMOOTH"
);
},
{
closed = 1;
nodes = (
"136 585 LINE",
"136 500 LINE",
"220 500 LINE",
"220 585 LINE"
);
},
{
closed = 1;
nodes = (
"263 585 LINE",
"263 500 LINE",
"347 500 LINE",
"347 585 LINE"
);
},
{
closed = 1;
nodes = (
"390 585 LINE",
"390 500 LINE",
"475 500 LINE",
"475 585 LINE"
);
},
{
closed = 1;
nodes = (
"517 585 LINE",
"517 500 LINE",
"602 500 LINE",
"602 585 LINE"
);
},
{
closed = 1;
nodes = (
"814 500 LINE",
"814 585 LINE",
"644 585 LINE",
"644 500 LINE"
);
},
{
closed = 1;
nodes = (
"263 457 LINE",
"178 457 LINE",
"178 373 LINE",
"263 373 LINE"
);
},
{
closed = 1;
nodes = (
"390 457 LINE",
"305 457 LINE",
"305 373 LINE",
"390 373 LINE"
);
},
{
closed = 1;
nodes = (
"517 457 LINE",
"432 457 LINE",
"432 373 LINE",
"517 373 LINE"
);
},
{
closed = 1;
nodes = (
"644 457 LINE",
"559 457 LINE",
"559 373 LINE",
"644 373 LINE"
);
},
{
closed = 1;
nodes = (
"687 373 LINE",
"771 373 LINE",
"771 457 LINE",
"687 457 LINE"
);
},
{
closed = 1;
nodes = (
"220 245 LINE",
"220 330 LINE",
"136 330 LINE",
"136 245 LINE"
);
},
{
closed = 1;
nodes = (
"687 245 LINE",
"687 330 LINE",
"263 330 LINE",
"263 245 LINE"
);
},
{
closed = 1;
nodes = (
"814 245 LINE",
"814 330 LINE",
"729 330 LINE",
"729 245 LINE"
);
}
);
width = 953;
}
);
},
{
glyphname = uniE024;
lastChange = "2012-10-18 20:57:00 -0700";
layers = (
{
layerId = "976E1085-9D9E-4132-ADB4-8B20859A3B8B";
name = Regular;
paths = (
{
closed = 1;
nodes = (
"839 669 LINE",
"872 669 OFFCURVE",
"898 641 OFFCURVE",
"898 610 CURVE SMOOTH",
"898 220 LINE",
"898 189 OFFCURVE",
"872 161 OFFCURVE",
"839 161 CURVE SMOOTH",
"110 161 LINE",
"77 161 OFFCURVE",
"51 189 OFFCURVE",
"51 220 CURVE SMOOTH",
"51 610 LINE",
"51 641 OFFCURVE",
"77 669 OFFCURVE",
"110 669 CURVE SMOOTH"
);
},
{
closed = 1;
nodes = (
"263 585 LINE",
"263 500 LINE",
"347 500 LINE",
"347 585 LINE"
);
},
{
closed = 1;
nodes = (
"390 585 LINE",
"390 500 LINE",
"475 500 LINE",
"475 585 LINE"
);
},
{
closed = 1;
nodes = (
"517 585 LINE",
"517 500 LINE",
"602 500 LINE",
"602 585 LINE"
);
},
{
closed = 1;
nodes = (
"814 500 LINE",
"814 585 LINE",
"644 585 LINE",
"644 500 LINE"
);
},
{
closed = 1;
nodes = (
"263 457 LINE",
"178 457 LINE",
"178 373 LINE",
"263 373 LINE"
);
},
{
closed = 1;
nodes = (
"390 457 LINE",
"305 457 LINE",
"305 373 LINE",
"390 373 LINE"
);
},
{
closed = 1;
nodes = (
"517 457 LINE",
"432 457 LINE",
"432 373 LINE",
"517 373 LINE"
);
},
{
closed = 1;
nodes = (
"687 373 LINE",
"771 373 LINE",
"771 457 LINE",
"687 457 LINE"
);
},
{
closed = 1;
nodes = (
"220 245 LINE",
"220 330 LINE",
"136 330 LINE",
"136 245 LINE"
);
},
{
closed = 1;
nodes = (
"687 245 LINE",
"687 330 LINE",
"263 330 LINE",
"263 245 LINE"
);
},
{
closed = 1;
nodes = (
"814 245 LINE",
"814 330 LINE",
"729 330 LINE",
"729 245 LINE"
);
}
);
width = 953;
}
);
},
{
glyphname = uniE025;
lastChange = "2012-10-18 20:57:15 -0700";
layers = (
{
layerId = "976E1085-9D9E-4132-ADB4-8B20859A3B8B";
name = Regular;
paths = (
{
closed = 1;
nodes = (
"839 669 LINE",
"872 669 OFFCURVE",
"898 641 OFFCURVE",
"898 610 CURVE SMOOTH",
"898 220 LINE",
"898 189 OFFCURVE",
"872 161 OFFCURVE",
"839 161 CURVE SMOOTH",
"110 161 LINE",
"77 161 OFFCURVE",
"51 189 OFFCURVE",
"51 220 CURVE SMOOTH",
"51 610 LINE",
"51 641 OFFCURVE",
"77 669 OFFCURVE",
"110 669 CURVE SMOOTH"
);
},
{
closed = 1;
nodes = (
"136 585 LINE",
"136 500 LINE",
"220 500 LINE",
"220 585 LINE"
);
},
{
closed = 1;
nodes = (
"263 585 LINE",
"263 500 LINE",
"347 500 LINE",
"347 585 LINE"
);
},
{
closed = 1;
nodes = (
"517 585 LINE",
"517 500 LINE",
"602 500 LINE",
"602 585 LINE"
);
},
{
closed = 1;
nodes = (
"814 500 LINE",
"814 585 LINE",
"644 585 LINE",
"644 500 LINE"
);
},
{
closed = 1;
nodes = (
"263 457 LINE",
"178 457 LINE",
"178 373 LINE",
"263 373 LINE"
);
},
{
closed = 1;
nodes = (
"390 457 LINE",
"305 457 LINE",
"305 373 LINE",
"390 373 LINE"
);
},
{
closed = 1;
nodes = (
"517 457 LINE",
"432 457 LINE",
"432 373 LINE",
"517 373 LINE"
);
},
{
closed = 1;
nodes = (
"644 457 LINE",
"559 457 LINE",
"559 373 LINE",
"644 373 LINE"
);
},
{
closed = 1;
nodes = (
"220 245 LINE",
"220 330 LINE",
"136 330 LINE",
"136 245 LINE"
);
},
{
closed = 1;
nodes = (
"687 245 LINE",
"687 330 LINE",
"263 330 LINE",
"263 245 LINE"
);
},
{
closed = 1;
nodes = (
"814 245 LINE",
"814 330 LINE",
"729 330 LINE",
"729 245 LINE"
);
}
);
width = 953;
}
);
},
{
glyphname = uniE026;
lastChange = "2012-10-18 21:00:01 -0700";
layers = (
{
layerId = "976E1085-9D9E-4132-ADB4-8B20859A3B8B";
name = Regular;
paths = (
{
closed = 1;
nodes = (
"136 550 LINE SMOOTH",
"136 579 OFFCURVE",
"160 602 OFFCURVE",
"188 602 CURVE SMOOTH",
"206 602 LINE",
"206 608 LINE SMOOTH",
"206 626 OFFCURVE",
"212 647 OFFCURVE",
"225 661 CURVE SMOOTH",
"238 676 OFFCURVE",
"260 686 OFFCURVE",
"292 686 CURVE SMOOTH",
"323 686 OFFCURVE",
"345 676 OFFCURVE",
"359 661 CURVE SMOOTH",
"372 647 OFFCURVE",
"378 626 OFFCURVE",
"378 608 CURVE SMOOTH",
"378 602 LINE",
"400 602 LINE",
"400 608 LINE SMOOTH",
"400 626 OFFCURVE",
"406 647 OFFCURVE",
"419 661 CURVE SMOOTH",
"432 676 OFFCURVE",
"454 686 OFFCURVE",
"486 686 CURVE SMOOTH",
"517 686 OFFCURVE",
"539 676 OFFCURVE",
"553 661 CURVE SMOOTH",
"567 647 OFFCURVE",
"573 626 OFFCURVE",
"573 608 CURVE SMOOTH",
"573 602 LINE",
"595 602 LINE",
"595 608 LINE SMOOTH",
"595 626 OFFCURVE",
"601 647 OFFCURVE",
"614 661 CURVE SMOOTH",
"628 676 OFFCURVE",
"649 686 OFFCURVE",
"681 686 CURVE SMOOTH",
"713 686 OFFCURVE",
"735 676 OFFCURVE",
"748 661 CURVE SMOOTH",
"761 647 OFFCURVE",
"767 626 OFFCURVE",
"767 608 CURVE SMOOTH",
"767 602 LINE",
"784 602 LINE SMOOTH",
"812 602 OFFCURVE",
"837 579 OFFCURVE",
"837 550 CURVE SMOOTH",
"837 38 LINE SMOOTH",
"837 10 OFFCURVE",
"812 -15 OFFCURVE",
"784 -15 CURVE SMOOTH",
"188 -15 LINE SMOOTH",
"160 -15 OFFCURVE",
"136 10 OFFCURVE",
"136 38 CURVE SMOOTH"
);
},
{
closed = 1;
nodes = (
"207 56 LINE",
"333 56 LINE",
"333 168 LINE",
"207 168 LINE"
);
},
{
closed = 1;
nodes = (
"207 185 LINE",
"333 185 LINE",
"333 297 LINE",
"207 297 LINE"
);
},
{
closed = 1;
nodes = (
"207 315 LINE",
"333 315 LINE",
"333 428 LINE",
"207 428 LINE"
);
},
{
closed = 1;
nodes = (
"258 506 LINE SMOOTH",
"258 489 OFFCURVE",
"269 481 OFFCURVE",
"292 481 CURVE SMOOTH",
"314 481 OFFCURVE",
"326 489 OFFCURVE",
"326 506 CURVE SMOOTH",
"326 608 LINE SMOOTH",
"326 625 OFFCURVE",
"314 634 OFFCURVE",
"292 634 CURVE SMOOTH",
"269 634 OFFCURVE",
"258 625 OFFCURVE",
"258 608 CURVE SMOOTH"
);
},
{
closed = 1;
nodes = (
"350 56 LINE",
"478 56 LINE",
"478 168 LINE",
"350 168 LINE"
);
},
{
closed = 1;
nodes = (
"350 185 LINE",
"478 185 LINE",
"478 297 LINE",
"350 297 LINE"
);
},
{
closed = 1;
nodes = (
"350 315 LINE",
"478 315 LINE",
"478 428 LINE",
"350 428 LINE"
);
},
{
closed = 1;
nodes = (
"453 506 LINE SMOOTH",
"453 488 OFFCURVE",
"461 481 OFFCURVE",
"486 481 CURVE SMOOTH",
"510 481 OFFCURVE",
"520 488 OFFCURVE",
"520 506 CURVE SMOOTH",
"520 608 LINE SMOOTH",
"520 626 OFFCURVE",
"510 634 OFFCURVE",
"486 634 CURVE SMOOTH",
"461 634 OFFCURVE",
"453 625 OFFCURVE",
"453 608 CURVE SMOOTH"
);
},
{
closed = 1;
nodes = (
"495 56 LINE",
"622 56 LINE",
"622 168 LINE",
"495 168 LINE"
);
},
{
closed = 1;
nodes = (
"495 185 LINE",
"622 185 LINE",
"622 297 LINE",
"495 297 LINE"
);
},
{
closed = 1;
nodes = (
"495 315 LINE",
"622 315 LINE",
"622 428 LINE",
"495 428 LINE"
);
},
{
closed = 1;
nodes = (
"639 56 LINE",
"766 56 LINE",
"766 168 LINE",
"639 168 LINE"
);
},
{
closed = 1;
nodes = (
"639 185 LINE",
"766 185 LINE",
"766 297 LINE",
"639 297 LINE"
);
},
{
closed = 1;
nodes = (
"639 315 LINE",
"766 315 LINE",
"766 428 LINE",
"639 428 LINE"
);
},
{
closed = 1;
nodes = (
"647 506 LINE SMOOTH",
"647 489 OFFCURVE",
"658 481 OFFCURVE",
"681 481 CURVE SMOOTH",
"704 481 OFFCURVE",
"715 489 OFFCURVE",
"714 506 CURVE",
"714 608 LINE SMOOTH",
"714 625 OFFCURVE",
"703 634 OFFCURVE",
"681 634 CURVE SMOOTH",
"658 634 OFFCURVE",
"647 625 OFFCURVE",
"647 608 CURVE SMOOTH"
);
}
);
width = 953;
}
);
},
{
glyphname = uniE027;
lastChange = "2012-10-18 21:01:21 -0700";
layers = (
{
layerId = "976E1085-9D9E-4132-ADB4-8B20859A3B8B";
name = Regular;
paths = (
{
closed = 1;
nodes = (
"136 550 LINE SMOOTH",
"136 579 OFFCURVE",
"160 602 OFFCURVE",
"188 602 CURVE SMOOTH",
"206 602 LINE",
"206 608 LINE SMOOTH",
"206 626 OFFCURVE",
"212 647 OFFCURVE",
"225 661 CURVE SMOOTH",
"238 676 OFFCURVE",
"260 686 OFFCURVE",
"292 686 CURVE SMOOTH",
"323 686 OFFCURVE",
"345 676 OFFCURVE",
"359 661 CURVE SMOOTH",
"372 647 OFFCURVE",
"378 626 OFFCURVE",
"378 608 CURVE SMOOTH",
"378 602 LINE",
"400 602 LINE",
"400 608 LINE SMOOTH",
"400 626 OFFCURVE",
"406 647 OFFCURVE",
"419 661 CURVE SMOOTH",
"432 676 OFFCURVE",
"454 686 OFFCURVE",
"486 686 CURVE SMOOTH",
"517 686 OFFCURVE",
"539 676 OFFCURVE",
"553 661 CURVE SMOOTH",
"567 647 OFFCURVE",
"573 626 OFFCURVE",
"573 608 CURVE SMOOTH",
"573 602 LINE",
"595 602 LINE",
"595 608 LINE SMOOTH",
"595 626 OFFCURVE",
"601 647 OFFCURVE",
"614 661 CURVE SMOOTH",
"628 676 OFFCURVE",
"649 686 OFFCURVE",
"681 686 CURVE SMOOTH",
"713 686 OFFCURVE",
"735 676 OFFCURVE",
"748 661 CURVE SMOOTH",
"761 647 OFFCURVE",
"767 626 OFFCURVE",
"767 608 CURVE SMOOTH",
"767 602 LINE",
"784 602 LINE SMOOTH",
"812 602 OFFCURVE",
"837 579 OFFCURVE",
"837 550 CURVE SMOOTH",
"837 38 LINE SMOOTH",
"837 10 OFFCURVE",
"812 -15 OFFCURVE",
"784 -15 CURVE SMOOTH",
"188 -15 LINE SMOOTH",
"160 -15 OFFCURVE",
"136 10 OFFCURVE",
"136 38 CURVE SMOOTH"
);
},
{
closed = 1;
nodes = (
"207 56 LINE",
"333 56 LINE",
"333 168 LINE",
"207 168 LINE"
);
},
{
closed = 1;
nodes = (
"207 185 LINE",
"333 185 LINE",
"333 297 LINE",
"207 297 LINE"
);
},
{
closed = 1;
nodes = (
"207 315 LINE",
"333 315 LINE",
"333 428 LINE",
"207 428 LINE"
);
},
{
closed = 1;
nodes = (
"258 506 LINE SMOOTH",
"258 489 OFFCURVE",
"269 481 OFFCURVE",
"292 481 CURVE SMOOTH",
"314 481 OFFCURVE",
"326 489 OFFCURVE",
"326 506 CURVE SMOOTH",
"326 608 LINE SMOOTH",
"326 625 OFFCURVE",
"314 634 OFFCURVE",
"292 634 CURVE SMOOTH",
"269 634 OFFCURVE",
"258 625 OFFCURVE",
"258 608 CURVE SMOOTH"
);
},
{
closed = 1;
nodes = (
"350 56 LINE",
"478 56 LINE",
"478 168 LINE",
"350 168 LINE"
);
},
{
closed = 1;
nodes = (
"350 185 LINE",
"478 185 LINE",
"478 297 LINE",
"350 297 LINE"
);
},
{
closed = 1;
nodes = (
"350 315 LINE",
"478 315 LINE",
"478 428 LINE",
"350 428 LINE"
);
},
{
closed = 1;
nodes = (
"453 506 LINE SMOOTH",
"453 488 OFFCURVE",
"461 481 OFFCURVE",
"486 481 CURVE SMOOTH",
"510 481 OFFCURVE",
"520 488 OFFCURVE",
"520 506 CURVE SMOOTH",
"520 608 LINE SMOOTH",
"520 626 OFFCURVE",
"510 634 OFFCURVE",
"486 634 CURVE SMOOTH",
"461 634 OFFCURVE",
"453 625 OFFCURVE",
"453 608 CURVE SMOOTH"
);
},
{
closed = 1;
nodes = (
"495 56 LINE",
"622 56 LINE",
"622 168 LINE",
"495 168 LINE"
);
},
{
closed = 1;
nodes = (
"495 185 LINE",
"622 185 LINE",
"622 297 LINE",
"495 297 LINE"
);
},
{
closed = 1;
nodes = (
"495 315 LINE",
"622 315 LINE",
"622 428 LINE",
"495 428 LINE"
);
},
{
closed = 1;
nodes = (
"639 56 LINE",
"766 56 LINE",
"766 168 LINE",
"639 168 LINE"
);
},
{
closed = 1;
nodes = (
"639 185 LINE",
"766 185 LINE",
"766 297 LINE",
"639 297 LINE"
);
},
{
closed = 1;
nodes = (
"639 315 LINE",
"766 315 LINE",
"766 428 LINE",
"639 428 LINE"
);
},
{
closed = 1;
nodes = (
"647 506 LINE SMOOTH",
"647 489 OFFCURVE",
"658 481 OFFCURVE",
"681 481 CURVE SMOOTH",
"704 481 OFFCURVE",
"715 489 OFFCURVE",
"714 506 CURVE",
"714 608 LINE SMOOTH",
"714 625 OFFCURVE",
"703 634 OFFCURVE",
"681 634 CURVE SMOOTH",
"658 634 OFFCURVE",
"647 625 OFFCURVE",
"647 608 CURVE SMOOTH"
);
},
{
closed = 1;
nodes = (
"258 395 LINE SMOOTH",
"263 391 OFFCURVE",
"266 387 OFFCURVE",
"270 382 CURVE",
"271 382 LINE",
"275 387 OFFCURVE",
"279 391 OFFCURVE",
"283 395 CURVE",
"301 412 LINE",
"325 412 LINE",
"283 374 LINE",
"326 334 LINE",
"301 334 LINE",
"283 352 LINE SMOOTH",
"278 356 OFFCURVE",
"274 361 OFFCURVE",
"269 365 CURVE",
"269 365 LINE",
"265 361 OFFCURVE",
"261 356 OFFCURVE",
"256 352 CURVE SMOOTH",
"238 334 LINE",
"213 334 LINE",
"257 374 LINE",
"215 412 LINE",
"240 412 LINE"
);
}
);
width = 953;
}
);
},
{
glyphname = uniE028;
lastChange = "2012-10-18 21:01:32 -0700";
layers = (
{
layerId = "976E1085-9D9E-4132-ADB4-8B20859A3B8B";
name = Regular;
paths = (
{
closed = 1;
nodes = (
"136 550 LINE",
"136 579 OFFCURVE",
"160 602 OFFCURVE",
"188 602 CURVE SMOOTH",
"206 602 LINE",
"206 608 LINE",
"206 626 OFFCURVE",
"212 647 OFFCURVE",
"225 661 CURVE SMOOTH",
"238 676 OFFCURVE",
"260 686 OFFCURVE",
"292 686 CURVE SMOOTH",
"323 686 OFFCURVE",
"345 676 OFFCURVE",
"359 661 CURVE SMOOTH",
"372 647 OFFCURVE",
"378 626 OFFCURVE",
"378 608 CURVE SMOOTH",
"378 602 LINE",
"400 602 LINE",
"400 608 LINE",
"400 626 OFFCURVE",
"406 647 OFFCURVE",
"419 661 CURVE SMOOTH",
"432 676 OFFCURVE",
"454 686 OFFCURVE",
"486 686 CURVE SMOOTH",
"517 686 OFFCURVE",
"539 676 OFFCURVE",
"553 661 CURVE SMOOTH",
"567 647 OFFCURVE",
"573 626 OFFCURVE",
"573 608 CURVE SMOOTH",
"573 602 LINE",
"595 602 LINE",
"595 608 LINE",
"595 626 OFFCURVE",
"601 647 OFFCURVE",
"614 661 CURVE SMOOTH",
"628 676 OFFCURVE",
"649 686 OFFCURVE",
"681 686 CURVE SMOOTH",
"713 686 OFFCURVE",
"735 676 OFFCURVE",
"748 661 CURVE SMOOTH",
"761 647 OFFCURVE",
"767 626 OFFCURVE",
"767 608 CURVE SMOOTH",
"767 602 LINE",
"784 602 LINE",
"812 602 OFFCURVE",
"837 579 OFFCURVE",
"837 550 CURVE SMOOTH",
"837 38 LINE",
"837 10 OFFCURVE",
"812 -15 OFFCURVE",
"784 -15 CURVE SMOOTH",
"188 -15 LINE",
"160 -15 OFFCURVE",
"136 10 OFFCURVE",
"136 38 CURVE SMOOTH"
);
},
{
closed = 1;
nodes = (
"207 56 LINE",
"333 56 LINE",
"333 168 LINE",
"207 168 LINE"
);
},
{
closed = 1;
nodes = (
"207 185 LINE",
"333 185 LINE",
"333 297 LINE",
"207 297 LINE"
);
},
{
closed = 1;
nodes = (
"207 315 LINE",
"333 315 LINE",
"333 428 LINE",
"207 428 LINE"
);
},
{
closed = 1;
nodes = (
"258 506 LINE",
"258 489 OFFCURVE",
"269 481 OFFCURVE",
"292 481 CURVE SMOOTH",
"314 481 OFFCURVE",
"326 489 OFFCURVE",
"326 506 CURVE SMOOTH",
"326 608 LINE",
"326 625 OFFCURVE",
"314 634 OFFCURVE",
"292 634 CURVE SMOOTH",
"269 634 OFFCURVE",
"258 625 OFFCURVE",
"258 608 CURVE SMOOTH"
);
},
{
closed = 1;
nodes = (
"350 56 LINE",
"478 56 LINE",
"478 168 LINE",
"350 168 LINE"
);
},
{
closed = 1;
nodes = (
"350 185 LINE",
"478 185 LINE",
"478 297 LINE",
"350 297 LINE"
);
},
{
closed = 1;
nodes = (
"350 315 LINE",
"478 315 LINE",
"478 428 LINE",
"350 428 LINE"
);
},
{
closed = 1;
nodes = (
"453 506 LINE",
"453 488 OFFCURVE",
"461 481 OFFCURVE",
"486 481 CURVE SMOOTH",
"510 481 OFFCURVE",
"520 488 OFFCURVE",
"520 506 CURVE SMOOTH",
"520 608 LINE",
"520 626 OFFCURVE",
"510 634 OFFCURVE",
"486 634 CURVE SMOOTH",
"461 634 OFFCURVE",
"453 625 OFFCURVE",
"453 608 CURVE SMOOTH"
);
},
{
closed = 1;
nodes = (
"495 56 LINE",
"622 56 LINE",
"622 168 LINE",
"495 168 LINE"
);
},
{
closed = 1;
nodes = (
"495 185 LINE",
"622 185 LINE",
"622 297 LINE",
"495 297 LINE"
);
},
{
closed = 1;
nodes = (
"495 315 LINE",
"622 315 LINE",
"622 428 LINE",
"495 428 LINE"
);
},
{
closed = 1;
nodes = (
"639 56 LINE",
"766 56 LINE",
"766 168 LINE",
"639 168 LINE"
);
},
{
closed = 1;
nodes = (
"639 185 LINE",
"766 185 LINE",
"766 297 LINE",
"639 297 LINE"
);
},
{
closed = 1;
nodes = (
"639 315 LINE",
"766 315 LINE",
"766 428 LINE",
"639 428 LINE"
);
},
{
closed = 1;
nodes = (
"647 506 LINE",
"647 489 OFFCURVE",
"658 481 OFFCURVE",
"681 481 CURVE SMOOTH",
"704 481 OFFCURVE",
"715 489 OFFCURVE",
"714 506 CURVE",
"714 608 LINE",
"714 625 OFFCURVE",
"703 634 OFFCURVE",
"681 634 CURVE SMOOTH",
"658 634 OFFCURVE",
"647 625 OFFCURVE",
"647 608 CURVE SMOOTH"
);
},
{
closed = 1;
nodes = (
"258 395 LINE",
"263 391 OFFCURVE",
"266 387 OFFCURVE",
"270 382 CURVE",
"271 382 LINE",
"275 387 OFFCURVE",
"279 391 OFFCURVE",
"283 395 CURVE",
"301 412 LINE",
"325 412 LINE",
"283 374 LINE",
"326 334 LINE",
"301 334 LINE",
"283 352 LINE",
"278 356 OFFCURVE",
"274 361 OFFCURVE",
"269 365 CURVE",
"269 365 LINE",
"265 361 OFFCURVE",
"261 356 OFFCURVE",
"256 352 CURVE SMOOTH",
"238 334 LINE",
"213 334 LINE",
"257 374 LINE",
"215 412 LINE",
"240 412 LINE"
);
},
{
closed = 1;
nodes = (
"400 395 LINE",
"405 391 OFFCURVE",
"408 387 OFFCURVE",
"412 382 CURVE",
"413 382 LINE",
"417 387 OFFCURVE",
"421 391 OFFCURVE",
"425 395 CURVE",
"443 412 LINE",
"467 412 LINE",
"425 374 LINE",
"468 334 LINE",
"443 334 LINE",
"425 352 LINE",
"420 356 OFFCURVE",
"416 361 OFFCURVE",
"411 365 CURVE",
"411 365 LINE",
"407 361 OFFCURVE",
"403 356 OFFCURVE",
"398 352 CURVE SMOOTH",
"380 334 LINE",
"355 334 LINE",
"399 374 LINE",
"357 412 LINE",
"382 412 LINE"
);
}
);
width = 953;
}
);
},
{
glyphname = uniE029;
lastChange = "2012-10-18 21:01:51 -0700";
layers = (
{
layerId = "976E1085-9D9E-4132-ADB4-8B20859A3B8B";
name = Regular;
paths = (
{
closed = 1;
nodes = (
"136 550 LINE",
"136 579 OFFCURVE",
"160 602 OFFCURVE",
"188 602 CURVE SMOOTH",
"206 602 LINE",
"206 608 LINE",
"206 626 OFFCURVE",
"212 647 OFFCURVE",
"225 661 CURVE SMOOTH",
"238 676 OFFCURVE",
"260 686 OFFCURVE",
"292 686 CURVE SMOOTH",
"323 686 OFFCURVE",
"345 676 OFFCURVE",
"359 661 CURVE SMOOTH",
"372 647 OFFCURVE",
"378 626 OFFCURVE",
"378 608 CURVE SMOOTH",
"378 602 LINE",
"400 602 LINE",
"400 608 LINE",
"400 626 OFFCURVE",
"406 647 OFFCURVE",
"419 661 CURVE SMOOTH",
"432 676 OFFCURVE",
"454 686 OFFCURVE",
"486 686 CURVE SMOOTH",
"517 686 OFFCURVE",
"539 676 OFFCURVE",
"553 661 CURVE SMOOTH",
"567 647 OFFCURVE",
"573 626 OFFCURVE",
"573 608 CURVE SMOOTH",
"573 602 LINE",
"595 602 LINE",
"595 608 LINE",
"595 626 OFFCURVE",
"601 647 OFFCURVE",
"614 661 CURVE SMOOTH",
"628 676 OFFCURVE",
"649 686 OFFCURVE",
"681 686 CURVE SMOOTH",
"713 686 OFFCURVE",
"735 676 OFFCURVE",
"748 661 CURVE SMOOTH",
"761 647 OFFCURVE",
"767 626 OFFCURVE",
"767 608 CURVE SMOOTH",
"767 602 LINE",
"784 602 LINE",
"812 602 OFFCURVE",
"837 579 OFFCURVE",
"837 550 CURVE SMOOTH",
"837 38 LINE",
"837 10 OFFCURVE",
"812 -15 OFFCURVE",
"784 -15 CURVE SMOOTH",
"188 -15 LINE",
"160 -15 OFFCURVE",
"136 10 OFFCURVE",
"136 38 CURVE SMOOTH"
);
},
{
closed = 1;
nodes = (
"207 56 LINE",
"333 56 LINE",
"333 168 LINE",
"207 168 LINE"
);
},
{
closed = 1;
nodes = (
"207 185 LINE",
"333 185 LINE",
"333 297 LINE",
"207 297 LINE"
);
},
{
closed = 1;
nodes = (
"207 315 LINE",
"333 315 LINE",
"333 428 LINE",
"207 428 LINE"
);
},
{
closed = 1;
nodes = (
"258 506 LINE",
"258 489 OFFCURVE",
"269 481 OFFCURVE",
"292 481 CURVE SMOOTH",
"314 481 OFFCURVE",
"326 489 OFFCURVE",
"326 506 CURVE SMOOTH",
"326 608 LINE",
"326 625 OFFCURVE",
"314 634 OFFCURVE",
"292 634 CURVE SMOOTH",
"269 634 OFFCURVE",
"258 625 OFFCURVE",
"258 608 CURVE SMOOTH"
);
},
{
closed = 1;
nodes = (
"350 56 LINE",
"478 56 LINE",
"478 168 LINE",
"350 168 LINE"
);
},
{
closed = 1;
nodes = (
"350 185 LINE",
"478 185 LINE",
"478 297 LINE",
"350 297 LINE"
);
},
{
closed = 1;
nodes = (
"350 315 LINE",
"478 315 LINE",
"478 428 LINE",
"350 428 LINE"
);
},
{
closed = 1;
nodes = (
"453 506 LINE",
"453 488 OFFCURVE",
"461 481 OFFCURVE",
"486 481 CURVE SMOOTH",
"510 481 OFFCURVE",
"520 488 OFFCURVE",
"520 506 CURVE SMOOTH",
"520 608 LINE",
"520 626 OFFCURVE",
"510 634 OFFCURVE",
"486 634 CURVE SMOOTH",
"461 634 OFFCURVE",
"453 625 OFFCURVE",
"453 608 CURVE SMOOTH"
);
},
{
closed = 1;
nodes = (
"495 56 LINE",
"622 56 LINE",
"622 168 LINE",
"495 168 LINE"
);
},
{
closed = 1;
nodes = (
"495 185 LINE",
"622 185 LINE",
"622 297 LINE",
"495 297 LINE"
);
},
{
closed = 1;
nodes = (
"495 315 LINE",
"622 315 LINE",
"622 428 LINE",
"495 428 LINE"
);
},
{
closed = 1;
nodes = (
"639 56 LINE",
"766 56 LINE",
"766 168 LINE",
"639 168 LINE"
);
},
{
closed = 1;
nodes = (
"639 185 LINE",
"766 185 LINE",
"766 297 LINE",
"639 297 LINE"
);
},
{
closed = 1;
nodes = (
"639 315 LINE",
"766 315 LINE",
"766 428 LINE",
"639 428 LINE"
);
},
{
closed = 1;
nodes = (
"647 506 LINE",
"647 489 OFFCURVE",
"658 481 OFFCURVE",
"681 481 CURVE SMOOTH",
"704 481 OFFCURVE",
"715 489 OFFCURVE",
"714 506 CURVE",
"714 608 LINE",
"714 625 OFFCURVE",
"703 634 OFFCURVE",
"681 634 CURVE SMOOTH",
"658 634 OFFCURVE",
"647 625 OFFCURVE",
"647 608 CURVE SMOOTH"
);
},
{
closed = 1;
nodes = (
"258 395 LINE",
"263 391 OFFCURVE",
"266 387 OFFCURVE",
"270 382 CURVE",
"271 382 LINE",
"275 387 OFFCURVE",
"279 391 OFFCURVE",
"283 395 CURVE",
"301 412 LINE",
"325 412 LINE",
"283 374 LINE",
"326 334 LINE",
"301 334 LINE",
"283 352 LINE",
"278 356 OFFCURVE",
"274 361 OFFCURVE",
"269 365 CURVE",
"269 365 LINE",
"265 361 OFFCURVE",
"261 356 OFFCURVE",
"256 352 CURVE SMOOTH",
"238 334 LINE",
"213 334 LINE",
"257 374 LINE",
"215 412 LINE",
"240 412 LINE"
);
},
{
closed = 1;
nodes = (
"398 395 LINE",
"403 391 OFFCURVE",
"406 387 OFFCURVE",
"410 382 CURVE",
"411 382 LINE",
"415 387 OFFCURVE",
"419 391 OFFCURVE",
"423 395 CURVE",
"441 412 LINE",
"465 412 LINE",
"423 374 LINE",
"466 334 LINE",
"441 334 LINE",
"423 352 LINE",
"418 356 OFFCURVE",
"414 361 OFFCURVE",
"409 365 CURVE",
"409 365 LINE",
"405 361 OFFCURVE",
"401 356 OFFCURVE",
"396 352 CURVE SMOOTH",
"378 334 LINE",
"353 334 LINE",
"397 374 LINE",
"355 412 LINE",
"380 412 LINE"
);
},
{
closed = 1;
nodes = (
"544 395 LINE",
"549 391 OFFCURVE",
"552 387 OFFCURVE",
"556 382 CURVE",
"557 382 LINE",
"561 387 OFFCURVE",
"565 391 OFFCURVE",
"569 395 CURVE",
"587 412 LINE",
"611 412 LINE",
"569 374 LINE",
"612 334 LINE",
"587 334 LINE",
"569 352 LINE",
"564 356 OFFCURVE",
"560 361 OFFCURVE",
"555 365 CURVE",
"555 365 LINE",
"551 361 OFFCURVE",
"547 356 OFFCURVE",
"542 352 CURVE SMOOTH",
"524 334 LINE",
"499 334 LINE",
"543 374 LINE",
"501 412 LINE",
"526 412 LINE"
);
}
);
width = 953;
}
);
},
{
glyphname = uniE02A;
lastChange = "2012-10-18 21:03:57 -0700";
layers = (
{
layerId = "976E1085-9D9E-4132-ADB4-8B20859A3B8B";
name = Regular;
paths = (
{
closed = 1;
nodes = (
"136 550 LINE",
"136 579 OFFCURVE",
"160 602 OFFCURVE",
"188 602 CURVE SMOOTH",
"206 602 LINE",
"206 608 LINE",
"206 626 OFFCURVE",
"212 647 OFFCURVE",
"225 661 CURVE SMOOTH",
"238 676 OFFCURVE",
"260 686 OFFCURVE",
"292 686 CURVE SMOOTH",
"323 686 OFFCURVE",
"345 676 OFFCURVE",
"359 661 CURVE SMOOTH",
"372 647 OFFCURVE",
"378 626 OFFCURVE",
"378 608 CURVE SMOOTH",
"378 602 LINE",
"400 602 LINE",
"400 608 LINE",
"400 626 OFFCURVE",
"406 647 OFFCURVE",
"419 661 CURVE SMOOTH",
"432 676 OFFCURVE",
"454 686 OFFCURVE",
"486 686 CURVE SMOOTH",
"517 686 OFFCURVE",
"539 676 OFFCURVE",
"553 661 CURVE SMOOTH",
"567 647 OFFCURVE",
"573 626 OFFCURVE",
"573 608 CURVE SMOOTH",
"573 602 LINE",
"595 602 LINE",
"595 608 LINE",
"595 626 OFFCURVE",
"601 647 OFFCURVE",
"614 661 CURVE SMOOTH",
"628 676 OFFCURVE",
"649 686 OFFCURVE",
"681 686 CURVE SMOOTH",
"713 686 OFFCURVE",
"735 676 OFFCURVE",
"748 661 CURVE SMOOTH",
"761 647 OFFCURVE",
"767 626 OFFCURVE",
"767 608 CURVE SMOOTH",
"767 602 LINE",
"784 602 LINE",
"812 602 OFFCURVE",
"837 579 OFFCURVE",
"837 550 CURVE SMOOTH",
"837 38 LINE",
"837 10 OFFCURVE",
"812 -15 OFFCURVE",
"784 -15 CURVE SMOOTH",
"188 -15 LINE",
"160 -15 OFFCURVE",
"136 10 OFFCURVE",
"136 38 CURVE SMOOTH"
);
},
{
closed = 1;
nodes = (
"207 56 LINE",
"333 56 LINE",
"333 168 LINE",
"207 168 LINE"
);
},
{
closed = 1;
nodes = (
"207 185 LINE",
"333 185 LINE",
"333 297 LINE",
"207 297 LINE"
);
},
{
closed = 1;
nodes = (
"207 315 LINE",
"333 315 LINE",
"333 428 LINE",
"207 428 LINE"
);
},
{
closed = 1;
nodes = (
"258 506 LINE",
"258 489 OFFCURVE",
"269 481 OFFCURVE",
"292 481 CURVE SMOOTH",
"314 481 OFFCURVE",
"326 489 OFFCURVE",
"326 506 CURVE SMOOTH",
"326 608 LINE",
"326 625 OFFCURVE",
"314 634 OFFCURVE",
"292 634 CURVE SMOOTH",
"269 634 OFFCURVE",
"258 625 OFFCURVE",
"258 608 CURVE SMOOTH"
);
},
{
closed = 1;
nodes = (
"350 56 LINE",
"478 56 LINE",
"478 168 LINE",
"350 168 LINE"
);
},
{
closed = 1;
nodes = (
"350 185 LINE",
"478 185 LINE",
"478 297 LINE",
"350 297 LINE"
);
},
{
closed = 1;
nodes = (
"350 315 LINE",
"478 315 LINE",
"478 428 LINE",
"350 428 LINE"
);
},
{
closed = 1;
nodes = (
"453 506 LINE",
"453 488 OFFCURVE",
"461 481 OFFCURVE",
"486 481 CURVE SMOOTH",
"510 481 OFFCURVE",
"520 488 OFFCURVE",
"520 506 CURVE SMOOTH",
"520 608 LINE",
"520 626 OFFCURVE",
"510 634 OFFCURVE",
"486 634 CURVE SMOOTH",
"461 634 OFFCURVE",
"453 625 OFFCURVE",
"453 608 CURVE SMOOTH"
);
},
{
closed = 1;
nodes = (
"495 56 LINE",
"622 56 LINE",
"622 168 LINE",
"495 168 LINE"
);
},
{
closed = 1;
nodes = (
"495 185 LINE",
"622 185 LINE",
"622 297 LINE",
"495 297 LINE"
);
},
{
closed = 1;
nodes = (
"495 315 LINE",
"622 315 LINE",
"622 428 LINE",
"495 428 LINE"
);
},
{
closed = 1;
nodes = (
"639 56 LINE",
"766 56 LINE",
"766 168 LINE",
"639 168 LINE"
);
},
{
closed = 1;
nodes = (
"639 185 LINE",
"766 185 LINE",
"766 297 LINE",
"639 297 LINE"
);
},
{
closed = 1;
nodes = (
"639 315 LINE",
"766 315 LINE",
"766 428 LINE",
"639 428 LINE"
);
},
{
closed = 1;
nodes = (
"647 506 LINE",
"647 489 OFFCURVE",
"658 481 OFFCURVE",
"681 481 CURVE SMOOTH",
"704 481 OFFCURVE",
"715 489 OFFCURVE",
"714 506 CURVE",
"714 608 LINE",
"714 625 OFFCURVE",
"703 634 OFFCURVE",
"681 634 CURVE SMOOTH",
"658 634 OFFCURVE",
"647 625 OFFCURVE",
"647 608 CURVE SMOOTH"
);
},
{
closed = 1;
nodes = (
"258 395 LINE",
"263 391 OFFCURVE",
"266 387 OFFCURVE",
"270 382 CURVE",
"271 382 LINE",
"275 387 OFFCURVE",
"279 391 OFFCURVE",
"283 395 CURVE",
"301 412 LINE",
"325 412 LINE",
"283 374 LINE",
"326 334 LINE",
"301 334 LINE",
"283 352 LINE",
"278 356 OFFCURVE",
"274 361 OFFCURVE",
"269 365 CURVE",
"269 365 LINE",
"265 361 OFFCURVE",
"261 356 OFFCURVE",
"256 352 CURVE SMOOTH",
"238 334 LINE",
"213 334 LINE",
"257 374 LINE",
"215 412 LINE",
"240 412 LINE"
);
},
{
closed = 1;
nodes = (
"399 395 LINE",
"404 391 OFFCURVE",
"407 387 OFFCURVE",
"411 382 CURVE",
"412 382 LINE",
"416 387 OFFCURVE",
"420 391 OFFCURVE",
"424 395 CURVE",
"442 412 LINE",
"466 412 LINE",
"424 374 LINE",
"467 334 LINE",
"442 334 LINE",
"424 352 LINE",
"419 356 OFFCURVE",
"415 361 OFFCURVE",
"410 365 CURVE",
"410 365 LINE",
"406 361 OFFCURVE",
"402 356 OFFCURVE",
"397 352 CURVE SMOOTH",
"379 334 LINE",
"354 334 LINE",
"398 374 LINE",
"356 412 LINE",
"381 412 LINE"
);
},
{
closed = 1;
nodes = (
"545 395 LINE",
"550 391 OFFCURVE",
"553 387 OFFCURVE",
"557 382 CURVE",
"558 382 LINE",
"562 387 OFFCURVE",
"566 391 OFFCURVE",
"570 395 CURVE",
"588 412 LINE",
"612 412 LINE",
"570 374 LINE",
"613 334 LINE",
"588 334 LINE",
"570 352 LINE",
"565 356 OFFCURVE",
"561 361 OFFCURVE",
"556 365 CURVE",
"556 365 LINE",
"552 361 OFFCURVE",
"548 356 OFFCURVE",
"543 352 CURVE SMOOTH",
"525 334 LINE",
"500 334 LINE",
"544 374 LINE",
"502 412 LINE",
"527 412 LINE"
);
},
{
closed = 1;
nodes = (
"688 395 LINE",
"693 391 OFFCURVE",
"696 387 OFFCURVE",
"700 382 CURVE",
"701 382 LINE",
"705 387 OFFCURVE",
"709 391 OFFCURVE",
"713 395 CURVE",
"731 412 LINE",
"755 412 LINE",
"713 374 LINE",
"756 334 LINE",
"731 334 LINE",
"713 352 LINE",
"708 356 OFFCURVE",
"704 361 OFFCURVE",
"699 365 CURVE",
"699 365 LINE",
"695 361 OFFCURVE",
"691 356 OFFCURVE",
"686 352 CURVE SMOOTH",
"668 334 LINE",
"643 334 LINE",
"687 374 LINE",
"645 412 LINE",
"670 412 LINE"
);
}
);
width = 953;
}
);
},
{
glyphname = uniE02B;
lastChange = "2012-10-18 21:04:39 -0700";
layers = (
{
layerId = "976E1085-9D9E-4132-ADB4-8B20859A3B8B";
name = Regular;
paths = (
{
closed = 1;
nodes = (
"31 232 LINE",
"31 240 OFFCURVE",
"32 247 OFFCURVE",
"34 255 CURVE SMOOTH",
"36 262 OFFCURVE",
"37 269 OFFCURVE",
"39 276 CURVE",
"155 628 LINE",
"168 669 OFFCURVE",
"207 697 OFFCURVE",
"250 697 CURVE SMOOTH",
"704 697 LINE",
"746 697 OFFCURVE",
"785 669 OFFCURVE",
"798 628 CURVE SMOOTH",
"914 276 LINE",
"916 269 OFFCURVE",
"917 262 OFFCURVE",
"919 255 CURVE SMOOTH",
"921 247 OFFCURVE",
"922 240 OFFCURVE",
"922 232 CURVE SMOOTH",
"922 48 LINE",
"922 21 OFFCURVE",
"912 -2 OFFCURVE",
"895 -18 CURVE SMOOTH",
"879 -35 OFFCURVE",
"855 -46 OFFCURVE",
"829 -46 CURVE SMOOTH",
"124 -46 LINE",
"72 -46 OFFCURVE",
"31 -4 OFFCURVE",
"31 48 CURVE SMOOTH"
);
},
{
closed = 1;
nodes = (
"105 48 LINE",
"105 37 OFFCURVE",
"113 29 OFFCURVE",
"124 29 CURVE SMOOTH",
"829 29 LINE",
"840 29 OFFCURVE",
"848 36 OFFCURVE",
"848 48 CURVE SMOOTH",
"848 232 LINE",
"848 242 OFFCURVE",
"840 251 OFFCURVE",
"829 251 CURVE SMOOTH",
"124 251 LINE",
"114 251 OFFCURVE",
"105 243 OFFCURVE",
"105 232 CURVE SMOOTH"
);
},
{
closed = 1;
nodes = (
"134 326 LINE",
"819 326 LINE",
"728 605 LINE",
"726 615 OFFCURVE",
"714 623 OFFCURVE",
"704 623 CURVE SMOOTH",
"250 623 LINE",
"240 623 OFFCURVE",
"228 615 OFFCURVE",
"225 605 CURVE SMOOTH"
);
},
{
closed = 1;
nodes = (
"542 166 OFFCURVE",
"562 186 OFFCURVE",
"588 186 CURVE SMOOTH",
"614 186 OFFCURVE",
"634 166 OFFCURVE",
"634 140 CURVE SMOOTH",
"634 114 OFFCURVE",
"614 94 OFFCURVE",
"588 94 CURVE SMOOTH",
"562 94 OFFCURVE",
"542 114 OFFCURVE",
"542 140 CURVE SMOOTH"
);
},
{
closed = 1;
nodes = (
"691 166 OFFCURVE",
"710 186 OFFCURVE",
"737 186 CURVE SMOOTH",
"762 186 OFFCURVE",
"782 166 OFFCURVE",
"782 140 CURVE SMOOTH",
"782 114 OFFCURVE",
"762 94 OFFCURVE",
"737 94 CURVE SMOOTH",
"710 94 OFFCURVE",
"691 114 OFFCURVE",
"691 140 CURVE SMOOTH"
);
}
);
width = 953;
}
);
},
{
glyphname = uniE02C;
lastChange = "2012-10-18 21:05:02 -0700";
layers = (
{
layerId = "976E1085-9D9E-4132-ADB4-8B20859A3B8B";
name = Regular;
paths = (
{
closed = 1;
nodes = (
"31 232 LINE",
"31 240 OFFCURVE",
"32 247 OFFCURVE",
"34 255 CURVE SMOOTH",
"36 262 OFFCURVE",
"37 269 OFFCURVE",
"39 276 CURVE",
"155 628 LINE",
"168 669 OFFCURVE",
"207 697 OFFCURVE",
"250 697 CURVE SMOOTH",
"704 697 LINE",
"746 697 OFFCURVE",
"785 669 OFFCURVE",
"798 628 CURVE SMOOTH",
"914 276 LINE",
"916 269 OFFCURVE",
"917 262 OFFCURVE",
"919 255 CURVE SMOOTH",
"921 247 OFFCURVE",
"922 240 OFFCURVE",
"922 232 CURVE SMOOTH",
"922 48 LINE",
"922 21 OFFCURVE",
"912 -2 OFFCURVE",
"895 -18 CURVE SMOOTH",
"879 -35 OFFCURVE",
"855 -46 OFFCURVE",
"829 -46 CURVE SMOOTH",
"124 -46 LINE",
"72 -46 OFFCURVE",
"31 -4 OFFCURVE",
"31 48 CURVE SMOOTH"
);
},
{
closed = 1;
nodes = (
"105 48 LINE",
"105 37 OFFCURVE",
"113 29 OFFCURVE",
"124 29 CURVE SMOOTH",
"829 29 LINE",
"840 29 OFFCURVE",
"848 36 OFFCURVE",
"848 48 CURVE SMOOTH",
"848 232 LINE",
"848 242 OFFCURVE",
"840 251 OFFCURVE",
"829 251 CURVE SMOOTH",
"124 251 LINE",
"114 251 OFFCURVE",
"105 243 OFFCURVE",
"105 232 CURVE SMOOTH"
);
},
{
closed = 1;
nodes = (
"134 326 LINE",
"819 326 LINE",
"728 605 LINE",
"726 615 OFFCURVE",
"714 623 OFFCURVE",
"704 623 CURVE SMOOTH",
"250 623 LINE",
"240 623 OFFCURVE",
"228 615 OFFCURVE",
"225 605 CURVE SMOOTH"
);
},
{
closed = 1;
nodes = (
"691 166 OFFCURVE",
"710 186 OFFCURVE",
"737 186 CURVE SMOOTH",
"762 186 OFFCURVE",
"782 166 OFFCURVE",
"782 140 CURVE SMOOTH",
"782 114 OFFCURVE",
"762 94 OFFCURVE",
"737 94 CURVE SMOOTH",
"710 94 OFFCURVE",
"691 114 OFFCURVE",
"691 140 CURVE SMOOTH"
);
}
);
width = 953;
}
);
},
{
glyphname = uniE02D;
lastChange = "2012-10-18 21:41:30 -0700";
layers = (
{
layerId = "976E1085-9D9E-4132-ADB4-8B20859A3B8B";
name = Regular;
paths = (
{
closed = 1;
nodes = (
"81 118 OFFCURVE",
"86 126 OFFCURVE",
"94 133 CURVE SMOOTH",
"767 665 LINE",
"773 669 OFFCURVE",
"780 672 OFFCURVE",
"787 672 CURVE SMOOTH",
"797 672 OFFCURVE",
"806 668 OFFCURVE",
"812 660 CURVE SMOOTH",
"815 656 OFFCURVE",
"820 651 OFFCURVE",
"825 645 CURVE SMOOTH",
"836 633 OFFCURVE",
"847 620 OFFCURVE",
"855 606 CURVE SMOOTH",
"859 599 OFFCURVE",
"861 593 OFFCURVE",
"861 588 CURVE SMOOTH",
"861 577 OFFCURVE",
"856 568 OFFCURVE",
"848 562 CURVE SMOOTH",
"175 29 LINE",
"169 25 OFFCURVE",
"162 23 OFFCURVE",
"155 23 CURVE SMOOTH",
"144 23 OFFCURVE",
"136 27 OFFCURVE",
"129 35 CURVE",
"126 38 OFFCURVE",
"122 43 OFFCURVE",
"117 50 CURVE",
"105 61 OFFCURVE",
"95 74 OFFCURVE",
"87 88 CURVE SMOOTH",
"83 95 OFFCURVE",
"81 101 OFFCURVE",
"81 107 CURVE SMOOTH"
);
},
{
closed = 1;
nodes = (
"630 515 LINE",
"670 463 LINE",
"827 587 LINE",
"787 639 LINE"
);
}
);
width = 953;
}
);
},
{
glyphname = uniE02E;
lastChange = "2012-10-18 21:42:20 -0700";
layers = (
{
layerId = "976E1085-9D9E-4132-ADB4-8B20859A3B8B";
name = Regular;
paths = (
{
closed = 1;
nodes = (
"81 118 OFFCURVE",
"86 126 OFFCURVE",
"94 133 CURVE SMOOTH",
"767 665 LINE",
"773 669 OFFCURVE",
"780 672 OFFCURVE",
"787 672 CURVE SMOOTH",
"797 672 OFFCURVE",
"806 668 OFFCURVE",
"812 660 CURVE SMOOTH",
"815 656 OFFCURVE",
"820 651 OFFCURVE",
"825 645 CURVE SMOOTH",
"836 633 OFFCURVE",
"847 620 OFFCURVE",
"855 606 CURVE SMOOTH",
"859 599 OFFCURVE",
"861 593 OFFCURVE",
"861 588 CURVE SMOOTH",
"861 577 OFFCURVE",
"856 568 OFFCURVE",
"848 562 CURVE SMOOTH",
"175 29 LINE",
"169 25 OFFCURVE",
"162 23 OFFCURVE",
"155 23 CURVE SMOOTH",
"144 23 OFFCURVE",
"136 27 OFFCURVE",
"129 35 CURVE",
"126 38 OFFCURVE",
"122 43 OFFCURVE",
"117 50 CURVE",
"105 61 OFFCURVE",
"95 74 OFFCURVE",
"87 88 CURVE SMOOTH",
"83 95 OFFCURVE",
"81 101 OFFCURVE",
"81 107 CURVE SMOOTH"
);
},
{
closed = 1;
nodes = (
"190 416 LINE",
"240 431 LINE",
"256 481 LINE",
"271 431 LINE",
"321 416 LINE",
"271 400 LINE",
"256 350 LINE",
"240 400 LINE"
);
},
{
closed = 1;
nodes = (
"483 612 LINE",
"533 628 LINE",
"549 678 LINE",
"565 628 LINE",
"614 612 LINE",
"565 597 LINE",
"549 547 LINE",
"533 597 LINE"
);
},
{
closed = 1;
nodes = (
"630 515 LINE",
"670 463 LINE",
"827 587 LINE",
"787 639 LINE"
);
},
{
closed = 1;
nodes = (
"580 226 LINE",
"630 241 LINE",
"646 291 LINE",
"661 241 LINE",
"711 226 LINE",
"661 210 LINE",
"646 160 LINE",
"630 210 LINE"
);
}
);
width = 953;
}
);
},
{
glyphname = uniE02F;
lastChange = "2012-10-18 21:42:29 -0700";
layers = (
{
layerId = "976E1085-9D9E-4132-ADB4-8B20859A3B8B";
name = Regular;
paths = (
{
closed = 1;
nodes = (
"81 118 OFFCURVE",
"86 126 OFFCURVE",
"94 133 CURVE SMOOTH",
"767 665 LINE",
"773 669 OFFCURVE",
"780 672 OFFCURVE",
"787 672 CURVE SMOOTH",
"797 672 OFFCURVE",
"806 668 OFFCURVE",
"812 660 CURVE SMOOTH",
"815 656 OFFCURVE",
"820 651 OFFCURVE",
"825 645 CURVE SMOOTH",
"836 633 OFFCURVE",
"847 620 OFFCURVE",
"855 606 CURVE SMOOTH",
"859 599 OFFCURVE",
"861 593 OFFCURVE",
"861 588 CURVE SMOOTH",
"861 577 OFFCURVE",
"856 568 OFFCURVE",
"848 562 CURVE SMOOTH",
"175 29 LINE",
"169 25 OFFCURVE",
"162 23 OFFCURVE",
"155 23 CURVE SMOOTH",
"144 23 OFFCURVE",
"136 27 OFFCURVE",
"129 35 CURVE",
"126 38 OFFCURVE",
"122 43 OFFCURVE",
"117 50 CURVE",
"105 61 OFFCURVE",
"95 74 OFFCURVE",
"87 88 CURVE SMOOTH",
"83 95 OFFCURVE",
"81 101 OFFCURVE",
"81 107 CURVE SMOOTH"
);
},
{
closed = 1;
nodes = (
"190 416 LINE",
"240 431 LINE",
"256 481 LINE",
"271 431 LINE",
"321 416 LINE",
"271 400 LINE",
"256 350 LINE",
"240 400 LINE"
);
},
{
closed = 1;
nodes = (
"240 547 LINE",
"341 577 LINE",
"371 678 LINE",
"402 577 LINE",
"502 547 LINE",
"402 516 LINE",
"371 416 LINE",
"341 516 LINE"
);
},
{
closed = 1;
nodes = (
"483 612 LINE",
"533 628 LINE",
"549 678 LINE",
"565 628 LINE",
"614 612 LINE",
"565 597 LINE",
"549 547 LINE",
"533 597 LINE"
);
},
{
closed = 1;
nodes = (
"630 515 LINE",
"670 463 LINE",
"827 587 LINE",
"787 639 LINE"
);
},
{
closed = 1;
nodes = (
"736 400 LINE",
"786 415 LINE",
"802 465 LINE",
"818 415 LINE",
"867 400 LINE",
"818 384 LINE",
"802 334 LINE",
"786 384 LINE"
);
},
{
closed = 1;
nodes = (
"550 206 LINE",
"600 221 LINE",
"616 271 LINE",
"631 221 LINE",
"681 206 LINE",
"631 190 LINE",
"616 140 LINE",
"600 190 LINE"
);
}
);
width = 953;
}
);
},
{
glyphname = uniE030;
lastChange = "2012-10-18 21:12:39 -0700";
layers = (
{
layerId = "976E1085-9D9E-4132-ADB4-8B20859A3B8B";
name = Regular;
paths = (
{
closed = 1;
nodes = (
"265 329 OFFCURVE",
"265 334 OFFCURVE",
"265 338 CURVE SMOOTH",
"265 342 OFFCURVE",
"265 346 OFFCURVE",
"265 350 CURVE SMOOTH",
"265 354 OFFCURVE",
"265 358 OFFCURVE",
"265 362 CURVE SMOOTH",
"265 367 OFFCURVE",
"265 370 OFFCURVE",
"265 375 CURVE",
"277 381 OFFCURVE",
"300 385 OFFCURVE",
"324 389 CURVE SMOOTH",
"336 389 OFFCURVE",
"348 390 OFFCURVE",
"359 391 CURVE SMOOTH",
"370 392 OFFCURVE",
"380 393 OFFCURVE",
"386 393 CURVE",
"382 431 OFFCURVE",
"392 450 OFFCURVE",
"411 461 CURVE SMOOTH",
"429 471 OFFCURVE",
"457 473 OFFCURVE",
"490 473 CURVE SMOOTH",
"516 473 OFFCURVE",
"542 473 OFFCURVE",
"562 466 CURVE SMOOTH",
"582 457 OFFCURVE",
"594 442 OFFCURVE",
"594 410 CURVE SMOOTH",
"594 407 OFFCURVE",
"594 405 OFFCURVE",
"594 401 CURVE SMOOTH",
"594 399 OFFCURVE",
"594 396 OFFCURVE",
"593 393 CURVE",
"600 393 OFFCURVE",
"609 392 OFFCURVE",
"621 391 CURVE SMOOTH",
"644 390 OFFCURVE",
"669 387 OFFCURVE",
"691 383 CURVE SMOOTH",
"702 380 OFFCURVE",
"710 378 OFFCURVE",
"715 375 CURVE",
"715 350 LINE",
"715 326 LINE",
"698 317 OFFCURVE",
"655 311 OFFCURVE",
"609 308 CURVE SMOOTH",
"563 306 OFFCURVE",
"516 306 OFFCURVE",
"490 306 CURVE SMOOTH",
"465 306 OFFCURVE",
"417 306 OFFCURVE",
"371 308 CURVE SMOOTH",
"326 311 OFFCURVE",
"282 316 OFFCURVE",
"265 326 CURVE"
);
},
{
closed = 1;
nodes = (
"310 274 LINE",
"367 267 OFFCURVE",
"423 265 OFFCURVE",
"479 265 CURVE SMOOTH",
"490 265 LINE",
"549 266 OFFCURVE",
"609 267 OFFCURVE",
"669 274 CURVE",
"669 -15 LINE",
"669 -44 OFFCURVE",
"645 -68 OFFCURVE",
"616 -68 CURVE SMOOTH",
"364 -68 LINE",
"334 -68 OFFCURVE",
"310 -44 OFFCURVE",
"310 -15 CURVE SMOOTH"
);
},
{
closed = 1;
nodes = (
"369 0 LINE",
"369 -7 OFFCURVE",
"375 -12 OFFCURVE",
"381 -12 CURVE SMOOTH",
"396 -12 LINE",
"402 -12 OFFCURVE",
"409 -8 OFFCURVE",
"409 0 CURVE SMOOTH",
"409 212 LINE",
"409 220 OFFCURVE",
"402 226 OFFCURVE",
"396 226 CURVE SMOOTH",
"381 226 LINE",
"375 226 OFFCURVE",
"369 220 OFFCURVE",
"369 212 CURVE SMOOTH"
);
},
{
closed = 1;
nodes = (
"439 410 LINE",
"439 406 OFFCURVE",
"439 400 OFFCURVE",
"440 395 CURVE",
"473 395 OFFCURVE",
"507 395 OFFCURVE",
"541 395 CURVE",
"541 397 OFFCURVE",
"541 400 OFFCURVE",
"541 403 CURVE SMOOTH",
"541 406 OFFCURVE",
"541 408 OFFCURVE",
"541 410 CURVE",
"541 415 LINE",
"525 420 OFFCURVE",
"506 420 OFFCURVE",
"490 420 CURVE SMOOTH",
"473 420 OFFCURVE",
"455 420 OFFCURVE",
"439 415 CURVE"
);
},
{
closed = 1;
nodes = (
"470 0 LINE",
"470 -7 OFFCURVE",
"475 -12 OFFCURVE",
"484 -12 CURVE SMOOTH",
"497 -12 LINE",
"504 -12 OFFCURVE",
"511 -8 OFFCURVE",
"511 0 CURVE SMOOTH",
"511 212 LINE",
"511 220 OFFCURVE",
"504 226 OFFCURVE",
"497 226 CURVE SMOOTH",
"484 226 LINE",
"476 226 OFFCURVE",
"470 220 OFFCURVE",
"470 212 CURVE SMOOTH"
);
},
{
closed = 1;
nodes = (
"571 0 LINE",
"571 -7 OFFCURVE",
"576 -12 OFFCURVE",
"584 -12 CURVE SMOOTH",
"598 -12 LINE",
"605 -12 OFFCURVE",
"611 -8 OFFCURVE",
"611 0 CURVE SMOOTH",
"611 212 LINE",
"611 220 OFFCURVE",
"605 226 OFFCURVE",
"598 226 CURVE SMOOTH",
"584 226 LINE",
"577 226 OFFCURVE",
"571 220 OFFCURVE",
"571 212 CURVE SMOOTH"
);
}
);
width = 953;
}
);
},
{
glyphname = uniE031;
lastChange = "2012-10-18 21:13:06 -0700";
layers = (
{
layerId = "976E1085-9D9E-4132-ADB4-8B20859A3B8B";
name = Regular;
paths = (
{
closed = 1;
nodes = (
"259 330 OFFCURVE",
"258 335 OFFCURVE",
"257 339 CURVE SMOOTH",
"256 342 OFFCURVE",
"254 346 OFFCURVE",
"253 350 CURVE SMOOTH",
"252 354 OFFCURVE",
"251 358 OFFCURVE",
"250 362 CURVE SMOOTH",
"249 366 OFFCURVE",
"248 369 OFFCURVE",
"247 374 CURVE",
"256 383 OFFCURVE",
"278 393 OFFCURVE",
"300 404 CURVE SMOOTH",
"311 407 OFFCURVE",
"322 411 OFFCURVE",
"333 415 CURVE SMOOTH",
"343 419 OFFCURVE",
"352 423 OFFCURVE",
"358 424 CURVE",
"344 460 OFFCURVE",
"348 481 OFFCURVE",
"364 497 CURVE SMOOTH",
"378 511 OFFCURVE",
"405 521 OFFCURVE",
"437 530 CURVE SMOOTH",
"462 537 OFFCURVE",
"487 544 OFFCURVE",
"508 542 CURVE SMOOTH",
"529 539 OFFCURVE",
"545 528 OFFCURVE",
"554 497 CURVE SMOOTH",
"555 494 OFFCURVE",
"555 492 OFFCURVE",
"556 488 CURVE SMOOTH",
"557 487 OFFCURVE",
"558 484 OFFCURVE",
"557 480 CURVE",
"564 482 OFFCURVE",
"573 484 OFFCURVE",
"585 486 CURVE SMOOTH",
"607 491 OFFCURVE",
"632 495 OFFCURVE",
"654 497 CURVE SMOOTH",
"666 498 OFFCURVE",
"674 498 OFFCURVE",
"680 496 CURVE",
"686 472 LINE",
"693 449 LINE",
"679 436 OFFCURVE",
"639 418 OFFCURVE",
"596 403 CURVE SMOOTH",
"552 389 OFFCURVE",
"507 376 OFFCURVE",
"482 369 CURVE SMOOTH",
"458 362 OFFCURVE",
"412 349 OFFCURVE",
"367 338 CURVE SMOOTH",
"323 329 OFFCURVE",
"279 322 OFFCURVE",
"260 327 CURVE"
);
},
{
closed = 1;
nodes = (
"310 274 LINE",
"367 267 OFFCURVE",
"423 265 OFFCURVE",
"479 265 CURVE SMOOTH",
"490 265 LINE",
"549 266 OFFCURVE",
"609 267 OFFCURVE",
"669 274 CURVE",
"669 -15 LINE",
"669 -44 OFFCURVE",
"645 -68 OFFCURVE",
"616 -68 CURVE SMOOTH",
"364 -68 LINE",
"334 -68 OFFCURVE",
"310 -44 OFFCURVE",
"310 -15 CURVE SMOOTH"
);
},
{
closed = 1;
nodes = (
"369 0 LINE",
"369 -7 OFFCURVE",
"375 -12 OFFCURVE",
"381 -12 CURVE SMOOTH",
"396 -12 LINE",
"402 -12 OFFCURVE",
"409 -8 OFFCURVE",
"409 0 CURVE SMOOTH",
"409 212 LINE",
"409 220 OFFCURVE",
"402 226 OFFCURVE",
"396 226 CURVE SMOOTH",
"381 226 LINE",
"375 226 OFFCURVE",
"369 220 OFFCURVE",
"369 212 CURVE SMOOTH"
);
},
{
closed = 1;
nodes = (
"405 455 LINE",
"406 451 OFFCURVE",
"407 445 OFFCURVE",
"410 441 CURVE",
"441 450 OFFCURVE",
"474 459 OFFCURVE",
"507 468 CURVE",
"506 470 OFFCURVE",
"505 473 OFFCURVE",
"505 476 CURVE SMOOTH",
"504 479 OFFCURVE",
"503 481 OFFCURVE",
"503 483 CURVE",
"501 488 LINE",
"485 488 OFFCURVE",
"466 483 OFFCURVE",
"451 479 CURVE SMOOTH",
"435 474 OFFCURVE",
"417 469 OFFCURVE",
"403 460 CURVE"
);
},
{
closed = 1;
nodes = (
"470 0 LINE",
"470 -7 OFFCURVE",
"475 -12 OFFCURVE",
"484 -12 CURVE SMOOTH",
"497 -12 LINE",
"504 -12 OFFCURVE",
"511 -8 OFFCURVE",
"511 0 CURVE SMOOTH",
"511 212 LINE",
"511 220 OFFCURVE",
"504 226 OFFCURVE",
"497 226 CURVE SMOOTH",
"484 226 LINE",
"476 226 OFFCURVE",
"470 220 OFFCURVE",
"470 212 CURVE SMOOTH"
);
},
{
closed = 1;
nodes = (
"571 0 LINE",
"571 -7 OFFCURVE",
"576 -12 OFFCURVE",
"584 -12 CURVE SMOOTH",
"598 -12 LINE",
"605 -12 OFFCURVE",
"611 -8 OFFCURVE",
"611 0 CURVE SMOOTH",
"611 212 LINE",
"611 220 OFFCURVE",
"605 226 OFFCURVE",
"598 226 CURVE SMOOTH",
"584 226 LINE",
"577 226 OFFCURVE",
"571 220 OFFCURVE",
"571 212 CURVE SMOOTH"
);
}
);
width = 953;
}
);
},
{
glyphname = uniE032;
lastChange = "2012-10-18 21:13:36 -0700";
layers = (
{
layerId = "976E1085-9D9E-4132-ADB4-8B20859A3B8B";
name = Regular;
paths = (
{
closed = 1;
nodes = (
"250 330 OFFCURVE",
"247 334 OFFCURVE",
"244 337 CURVE SMOOTH",
"242 340 OFFCURVE",
"238 342 OFFCURVE",
"236 345 CURVE SMOOTH",
"233 348 OFFCURVE",
"230 351 OFFCURVE",
"227 354 CURVE SMOOTH",
"224 357 OFFCURVE",
"222 359 OFFCURVE",
"219 363 CURVE",
"222 375 OFFCURVE",
"237 395 OFFCURVE",
"251 415 CURVE SMOOTH",
"259 423 OFFCURVE",
"267 432 OFFCURVE",
"274 441 CURVE SMOOTH",
"281 449 OFFCURVE",
"287 457 OFFCURVE",
"292 461 CURVE",
"262 485 OFFCURVE",
"256 506 OFFCURVE",
"262 527 CURVE SMOOTH",
"268 546 OFFCURVE",
"287 568 OFFCURVE",
"310 591 CURVE SMOOTH",
"329 610 OFFCURVE",
"347 628 OFFCURVE",
"367 636 CURVE SMOOTH",
"387 644 OFFCURVE",
"406 642 OFFCURVE",
"429 619 CURVE SMOOTH",
"431 617 OFFCURVE",
"432 615 OFFCURVE",
"435 612 CURVE SMOOTH",
"436 611 OFFCURVE",
"439 609 OFFCURVE",
"440 605 CURVE",
"445 610 OFFCURVE",
"452 617 OFFCURVE",
"461 624 CURVE SMOOTH",
"478 639 OFFCURVE",
"498 655 OFFCURVE",
"516 667 CURVE SMOOTH",
"526 674 OFFCURVE",
"533 677 OFFCURVE",
"540 679 CURVE",
"557 660 LINE",
"574 644 LINE",
"568 625 OFFCURVE",
"541 590 OFFCURVE",
"511 557 CURVE SMOOTH",
"479 523 OFFCURVE",
"446 490 OFFCURVE",
"427 472 CURVE SMOOTH",
"410 454 OFFCURVE",
"375 421 OFFCURVE",
"341 389 CURVE SMOOTH",
"307 360 OFFCURVE",
"272 333 OFFCURVE",
"253 328 CURVE"
);
},
{
closed = 1;
nodes = (
"310 274 LINE",
"367 267 OFFCURVE",
"423 265 OFFCURVE",
"479 265 CURVE SMOOTH",
"490 265 LINE",
"549 266 OFFCURVE",
"609 267 OFFCURVE",
"669 274 CURVE",
"669 -15 LINE",
"669 -44 OFFCURVE",
"645 -68 OFFCURVE",
"616 -68 CURVE SMOOTH",
"364 -68 LINE",
"334 -68 OFFCURVE",
"310 -44 OFFCURVE",
"310 -15 CURVE SMOOTH"
);
},
{
closed = 1;
nodes = (
"369 0 LINE",
"369 -7 OFFCURVE",
"375 -12 OFFCURVE",
"381 -12 CURVE SMOOTH",
"396 -12 LINE",
"402 -12 OFFCURVE",
"409 -8 OFFCURVE",
"409 0 CURVE SMOOTH",
"409 212 LINE",
"409 220 OFFCURVE",
"402 226 OFFCURVE",
"396 226 CURVE SMOOTH",
"381 226 LINE",
"375 226 OFFCURVE",
"369 220 OFFCURVE",
"369 212 CURVE SMOOTH"
);
},
{
closed = 1;
nodes = (
"318 510 LINE",
"321 507 OFFCURVE",
"325 502 OFFCURVE",
"329 500 CURVE",
"352 523 OFFCURVE",
"377 547 OFFCURVE",
"402 571 CURVE",
"400 572 OFFCURVE",
"397 574 OFFCURVE",
"396 577 CURVE SMOOTH",
"394 579 OFFCURVE",
"392 580 OFFCURVE",
"391 582 CURVE",
"387 585 LINE",
"373 578 OFFCURVE",
"358 564 OFFCURVE",
"347 553 CURVE SMOOTH",
"336 541 OFFCURVE",
"322 528 OFFCURVE",
"314 514 CURVE"
);
},
{
closed = 1;
nodes = (
"470 0 LINE",
"470 -7 OFFCURVE",
"475 -12 OFFCURVE",
"484 -12 CURVE SMOOTH",
"497 -12 LINE",
"504 -12 OFFCURVE",
"511 -8 OFFCURVE",
"511 0 CURVE SMOOTH",
"511 212 LINE",
"511 220 OFFCURVE",
"504 226 OFFCURVE",
"497 226 CURVE SMOOTH",
"484 226 LINE",
"476 226 OFFCURVE",
"470 220 OFFCURVE",
"470 212 CURVE SMOOTH"
);
},
{
closed = 1;
nodes = (
"571 0 LINE",
"571 -7 OFFCURVE",
"576 -12 OFFCURVE",
"584 -12 CURVE SMOOTH",
"598 -12 LINE",
"605 -12 OFFCURVE",
"611 -8 OFFCURVE",
"611 0 CURVE SMOOTH",
"611 212 LINE",
"611 220 OFFCURVE",
"605 226 OFFCURVE",
"598 226 CURVE SMOOTH",
"584 226 LINE",
"577 226 OFFCURVE",
"571 220 OFFCURVE",
"571 212 CURVE SMOOTH"
);
}
);
width = 953;
}
);
},
{
glyphname = uniE033;
lastChange = "2012-10-18 21:13:59 -0700";
layers = (
{
layerId = "976E1085-9D9E-4132-ADB4-8B20859A3B8B";
name = Regular;
paths = (
{
closed = 1;
nodes = (
"238 318 OFFCURVE",
"233 317 OFFCURVE",
"229 316 CURVE SMOOTH",
"225 316 OFFCURVE",
"221 313 OFFCURVE",
"218 313 CURVE SMOOTH",
"214 312 OFFCURVE",
"210 310 OFFCURVE",
"206 309 CURVE SMOOTH",
"201 308 OFFCURVE",
"199 307 OFFCURVE",
"194 306 CURVE",
"185 315 OFFCURVE",
"174 338 OFFCURVE",
"163 359 CURVE SMOOTH",
"160 370 OFFCURVE",
"156 382 OFFCURVE",
"151 392 CURVE SMOOTH",
"148 402 OFFCURVE",
"143 411 OFFCURVE",
"142 417 CURVE",
"107 402 OFFCURVE",
"86 407 OFFCURVE",
"70 422 CURVE SMOOTH",
"56 437 OFFCURVE",
"46 464 OFFCURVE",
"37 495 CURVE SMOOTH",
"29 521 OFFCURVE",
"22 545 OFFCURVE",
"24 567 CURVE SMOOTH",
"27 588 OFFCURVE",
"37 604 OFFCURVE",
"69 613 CURVE SMOOTH",
"71 614 OFFCURVE",
"73 614 OFFCURVE",
"78 615 CURVE SMOOTH",
"79 615 OFFCURVE",
"82 617 OFFCURVE",
"86 616 CURVE",
"84 623 OFFCURVE",
"81 632 OFFCURVE",
"79 644 CURVE SMOOTH",
"74 666 OFFCURVE",
"70 691 OFFCURVE",
"68 712 CURVE SMOOTH",
"66 724 OFFCURVE",
"67 732 OFFCURVE",
"69 739 CURVE",
"93 745 LINE",
"116 752 LINE",
"129 738 OFFCURVE",
"147 698 OFFCURVE",
"162 656 CURVE SMOOTH",
"177 611 OFFCURVE",
"190 567 OFFCURVE",
"197 541 CURVE SMOOTH",
"205 518 OFFCURVE",
"217 471 OFFCURVE",
"229 426 CURVE SMOOTH",
"238 382 OFFCURVE",
"245 339 OFFCURVE",
"241 320 CURVE"
);
},
{
closed = 1;
nodes = (
"310 274 LINE",
"367 267 OFFCURVE",
"423 265 OFFCURVE",
"479 265 CURVE SMOOTH",
"490 265 LINE",
"549 266 OFFCURVE",
"609 267 OFFCURVE",
"669 274 CURVE",
"669 -15 LINE",
"669 -44 OFFCURVE",
"645 -68 OFFCURVE",
"616 -68 CURVE SMOOTH",
"364 -68 LINE",
"334 -68 OFFCURVE",
"310 -44 OFFCURVE",
"310 -15 CURVE SMOOTH"
);
},
{
closed = 1;
nodes = (
"369 0 LINE",
"369 -7 OFFCURVE",
"375 -12 OFFCURVE",
"381 -12 CURVE SMOOTH",
"396 -12 LINE",
"402 -12 OFFCURVE",
"409 -8 OFFCURVE",
"409 0 CURVE SMOOTH",
"409 212 LINE",
"409 220 OFFCURVE",
"402 226 OFFCURVE",
"396 226 CURVE SMOOTH",
"381 226 LINE",
"375 226 OFFCURVE",
"369 220 OFFCURVE",
"369 212 CURVE SMOOTH"
);
},
{
closed = 1;
nodes = (
"112 463 LINE",
"116 465 OFFCURVE",
"122 466 OFFCURVE",
"126 468 CURVE",
"116 500 OFFCURVE",
"107 533 OFFCURVE",
"98 566 CURVE",
"96 565 OFFCURVE",
"93 563 OFFCURVE",
"90 564 CURVE SMOOTH",
"87 563 OFFCURVE",
"85 562 OFFCURVE",
"83 562 CURVE",
"78 560 LINE",
"78 544 OFFCURVE",
"83 524 OFFCURVE",
"88 509 CURVE SMOOTH",
"93 494 OFFCURVE",
"98 476 OFFCURVE",
"106 462 CURVE"
);
},
{
closed = 1;
nodes = (
"470 0 LINE",
"470 -7 OFFCURVE",
"475 -12 OFFCURVE",
"484 -12 CURVE SMOOTH",
"497 -12 LINE",
"504 -12 OFFCURVE",
"511 -8 OFFCURVE",
"511 0 CURVE SMOOTH",
"511 212 LINE",
"511 220 OFFCURVE",
"504 226 OFFCURVE",
"497 226 CURVE SMOOTH",
"484 226 LINE",
"476 226 OFFCURVE",
"470 220 OFFCURVE",
"470 212 CURVE SMOOTH"
);
},
{
closed = 1;
nodes = (
"571 0 LINE",
"571 -7 OFFCURVE",
"576 -12 OFFCURVE",
"584 -12 CURVE SMOOTH",
"598 -12 LINE",
"605 -12 OFFCURVE",
"611 -8 OFFCURVE",
"611 0 CURVE SMOOTH",
"611 212 LINE",
"611 220 OFFCURVE",
"605 226 OFFCURVE",
"598 226 CURVE SMOOTH",
"584 226 LINE",
"577 226 OFFCURVE",
"571 220 OFFCURVE",
"571 212 CURVE SMOOTH"
);
}
);
width = 953;
}
);
},
{
glyphname = uniE034;
lastChange = "2012-10-18 21:17:32 -0700";
layers = (
{
layerId = "976E1085-9D9E-4132-ADB4-8B20859A3B8B";
name = Regular;
paths = (
{
closed = 1;
nodes = (
"164 -3 LINE",
"214 151 LINE",
"533 470 LINE",
"636 367 LINE",
"318 48 LINE"
);
},
{
closed = 1;
nodes = (
"273 156 LINE",
"271 153 OFFCURVE",
"269 150 OFFCURVE",
"269 147 CURVE SMOOTH",
"269 141 OFFCURVE",
"274 136 OFFCURVE",
"281 136 CURVE SMOOTH",
"284 136 OFFCURVE",
"286 137 OFFCURVE",
"289 139 CURVE",
"543 393 LINE",
"547 397 OFFCURVE",
"547 403 OFFCURVE",
"543 409 CURVE",
"541 411 OFFCURVE",
"538 412 OFFCURVE",
"534 412 CURVE SMOOTH",
"532 412 OFFCURVE",
"529 411 OFFCURVE",
"527 409 CURVE"
);
},
{
closed = 1;
nodes = (
"569 506 LINE",
"613 550 LINE",
"622 558 OFFCURVE",
"632 563 OFFCURVE",
"644 563 CURVE SMOOTH",
"656 563 OFFCURVE",
"666 558 OFFCURVE",
"675 550 CURVE SMOOTH",
"696 529 LINE",
"716 508 LINE",
"724 500 OFFCURVE",
"729 490 OFFCURVE",
"729 477 CURVE SMOOTH",
"729 465 OFFCURVE",
"724 455 OFFCURVE",
"716 447 CURVE SMOOTH",
"672 403 LINE"
);
}
);
width = 953;
}
);
},
{
glyphname = uniE035;
lastChange = "2012-10-18 21:18:03 -0700";
layers = (
{
layerId = "976E1085-9D9E-4132-ADB4-8B20859A3B8B";
name = Regular;
paths = (
{
closed = 1;
nodes = (
"151 -1 LINE",
"98 152 LINE",
"159 599 LINE",
"304 579 LINE",
"243 133 LINE"
);
},
{
closed = 1;
nodes = (
"142 192 LINE",
"142 188 OFFCURVE",
"142 185 OFFCURVE",
"144 182 CURVE SMOOTH",
"148 178 OFFCURVE",
"155 177 OFFCURVE",
"160 181 CURVE SMOOTH",
"163 183 OFFCURVE",
"164 185 OFFCURVE",
"165 188 CURVE",
"214 544 LINE",
"215 549 OFFCURVE",
"211 554 OFFCURVE",
"204 557 CURVE",
"201 557 OFFCURVE",
"198 556 OFFCURVE",
"195 554 CURVE SMOOTH",
"193 552 OFFCURVE",
"192 550 OFFCURVE",
"191 547 CURVE"
);
},
{
closed = 1;
nodes = (
"166 650 LINE",
"175 711 LINE",
"177 723 OFFCURVE",
"182 733 OFFCURVE",
"191 740 CURVE SMOOTH",
"201 748 OFFCURVE",
"212 750 OFFCURVE",
"224 749 CURVE SMOOTH",
"253 745 LINE",
"282 740 LINE",
"293 739 OFFCURVE",
"303 734 OFFCURVE",
"311 723 CURVE SMOOTH",
"318 714 OFFCURVE",
"320 703 OFFCURVE",
"319 691 CURVE SMOOTH",
"310 630 LINE"
);
}
);
width = 953;
}
);
},
{
glyphname = uniE036;
lastChange = "2012-10-18 21:19:03 -0700";
layers = (
{
layerId = "976E1085-9D9E-4132-ADB4-8B20859A3B8B";
name = Regular;
paths = (
{
closed = 1;
nodes = (
"321 -31 LINE",
"268 122 LINE",
"329 569 LINE",
"474 549 LINE",
"413 103 LINE"
);
},
{
closed = 1;
nodes = (
"312 162 LINE",
"312 158 OFFCURVE",
"312 155 OFFCURVE",
"314 152 CURVE SMOOTH",
"318 148 OFFCURVE",
"325 147 OFFCURVE",
"330 151 CURVE SMOOTH",
"333 153 OFFCURVE",
"334 155 OFFCURVE",
"335 158 CURVE",
"384 514 LINE",
"385 519 OFFCURVE",
"381 524 OFFCURVE",
"374 527 CURVE",
"371 527 OFFCURVE",
"368 526 OFFCURVE",
"365 524 CURVE SMOOTH",
"363 522 OFFCURVE",
"362 520 OFFCURVE",
"361 517 CURVE"
);
},
{
closed = 1;
nodes = (
"336 620 LINE",
"345 681 LINE",
"347 693 OFFCURVE",
"352 703 OFFCURVE",
"361 710 CURVE SMOOTH",
"371 718 OFFCURVE",
"382 720 OFFCURVE",
"394 719 CURVE SMOOTH",
"423 715 LINE",
"452 710 LINE",
"463 709 OFFCURVE",
"473 704 OFFCURVE",
"481 693 CURVE SMOOTH",
"488 684 OFFCURVE",
"490 673 OFFCURVE",
"489 661 CURVE SMOOTH",
"480 600 LINE"
);
},
{
closed = 1;
nodes = (
"324 -27 LINE",
"327 -43 LINE",
"116 -84 LINE",
"108 -75 LINE"
);
}
);
width = 953;
}
);
},
{
glyphname = uniE037;
lastChange = "2012-10-18 21:20:34 -0700";
layers = (
{
layerId = "976E1085-9D9E-4132-ADB4-8B20859A3B8B";
name = Regular;
paths = (
{
closed = 1;
nodes = (
"462 -63 LINE",
"385 80 LINE",
"372 531 LINE",
"519 534 LINE",
"531 84 LINE"
);
},
{
closed = 1;
nodes = (
"422 126 LINE",
"423 122 OFFCURVE",
"423 119 OFFCURVE",
"426 117 CURVE SMOOTH",
"430 113 OFFCURVE",
"437 114 OFFCURVE",
"442 118 CURVE SMOOTH",
"444 121 OFFCURVE",
"445 123 OFFCURVE",
"445 126 CURVE",
"436 485 LINE",
"436 490 OFFCURVE",
"431 495 OFFCURVE",
"424 496 CURVE",
"421 496 OFFCURVE",
"418 494 OFFCURVE",
"415 492 CURVE SMOOTH",
"414 490 OFFCURVE",
"413 488 OFFCURVE",
"412 484 CURVE"
);
},
{
closed = 1;
nodes = (
"371 582 LINE",
"370 644 LINE",
"370 656 OFFCURVE",
"373 667 OFFCURVE",
"381 675 CURVE SMOOTH",
"390 684 OFFCURVE",
"400 688 OFFCURVE",
"412 689 CURVE SMOOTH",
"441 690 LINE",
"471 690 LINE",
"482 691 OFFCURVE",
"492 687 OFFCURVE",
"502 678 CURVE SMOOTH",
"511 670 OFFCURVE",
"514 659 OFFCURVE",
"515 647 CURVE SMOOTH",
"516 586 LINE"
);
},
{
closed = 1;
nodes = (
"324 -47 LINE",
"327 -63 LINE",
"116 -84 LINE",
"108 -75 LINE"
);
},
{
closed = 1;
nodes = (
"465 -76 LINE",
"459 -92 LINE",
"328 -60 LINE",
"326 -49 LINE"
);
}
);
width = 953;
}
);
},
{
glyphname = uniE038;
lastChange = "2012-10-18 21:22:56 -0700";
layers = (
{
layerId = "976E1085-9D9E-4132-ADB4-8B20859A3B8B";
name = Regular;
paths = (
{
closed = 1;
nodes = (
"683 -32 LINE",
"583 96 LINE",
"492 538 LINE",
"637 566 LINE",
"726 125 LINE"
);
},
{
closed = 1;
nodes = (
"611 147 LINE",
"613 144 OFFCURVE",
"613 141 OFFCURVE",
"617 139 CURVE SMOOTH",
"621 136 OFFCURVE",
"628 138 OFFCURVE",
"632 143 CURVE SMOOTH",
"634 146 OFFCURVE",
"634 148 OFFCURVE",
"634 151 CURVE",
"563 503 LINE",
"563 508 OFFCURVE",
"557 512 OFFCURVE",
"550 512 CURVE",
"547 512 OFFCURVE",
"544 509 OFFCURVE",
"541 507 CURVE SMOOTH",
"541 505 OFFCURVE",
"540 502 OFFCURVE",
"540 498 CURVE"
);
},
{
closed = 1;
nodes = (
"483 588 LINE",
"471 649 LINE",
"469 661 OFFCURVE",
"470 672 OFFCURVE",
"477 681 CURVE SMOOTH",
"484 692 OFFCURVE",
"493 697 OFFCURVE",
"505 700 CURVE SMOOTH",
"533 706 LINE",
"563 711 LINE",
"573 714 OFFCURVE",
"584 712 OFFCURVE",
"595 705 CURVE SMOOTH",
"606 699 OFFCURVE",
"610 688 OFFCURVE",
"613 677 CURVE SMOOTH",
"625 617 LINE"
);
},
{
closed = 1;
nodes = (
"324 -47 LINE",
"327 -63 LINE",
"116 -84 LINE",
"108 -75 LINE"
);
},
{
closed = 1;
nodes = (
"465 -76 LINE",
"459 -92 LINE",
"328 -60 LINE",
"326 -49 LINE"
);
},
{
closed = 1;
nodes = (
"463 -89 LINE",
"685 -51 LINE",
"684 -41 LINE",
"461 -78 LINE"
);
}
);
width = 953;
}
);
},
{
glyphname = uniE039;
lastChange = "2012-10-18 21:24:09 -0700";
layers = (
{
layerId = "976E1085-9D9E-4132-ADB4-8B20859A3B8B";
name = Regular;
paths = (
{
closed = 1;
nodes = (
"793 -72 LINE",
"736 80 LINE",
"782 529 LINE",
"929 512 LINE",
"881 65 LINE"
);
},
{
closed = 1;
nodes = (
"778 120 LINE",
"779 117 OFFCURVE",
"778 114 OFFCURVE",
"781 111 CURVE SMOOTH",
"784 107 OFFCURVE",
"792 106 OFFCURVE",
"797 110 CURVE SMOOTH",
"800 112 OFFCURVE",
"800 114 OFFCURVE",
"801 117 CURVE",
"839 474 LINE",
"841 479 OFFCURVE",
"836 485 OFFCURVE",
"829 487 CURVE",
"827 488 OFFCURVE",
"823 486 OFFCURVE",
"819 485 CURVE SMOOTH",
"819 483 OFFCURVE",
"817 480 OFFCURVE",
"816 476 CURVE"
);
},
{
closed = 1;
nodes = (
"788 579 LINE",
"795 641 LINE",
"797 653 OFFCURVE",
"801 663 OFFCURVE",
"811 670 CURVE SMOOTH",
"821 678 OFFCURVE",
"831 680 OFFCURVE",
"843 679 CURVE SMOOTH",
"871 677 LINE",
"902 673 LINE",
"912 672 OFFCURVE",
"922 667 OFFCURVE",
"930 657 CURVE SMOOTH",
"939 648 OFFCURVE",
"940 637 OFFCURVE",
"939 625 CURVE SMOOTH",
"933 564 LINE"
);
},
{
closed = 1;
nodes = (
"324 -47 LINE",
"327 -63 LINE",
"116 -84 LINE",
"108 -75 LINE"
);
},
{
closed = 1;
nodes = (
"465 -76 LINE",
"459 -92 LINE",
"328 -60 LINE",
"326 -49 LINE"
);
},
{
closed = 1;
nodes = (
"463 -89 LINE",
"685 -51 LINE",
"684 -41 LINE",
"461 -78 LINE"
);
},
{
closed = 1;
nodes = (
"685 -51 LINE",
"789 -94 LINE",
"793 -82 LINE",
"689 -39 LINE"
);
}
);
width = 953;
}
);
},
{
glyphname = uniE03A;
lastChange = "2012-10-18 21:26:45 -0700";
layers = (
{
layerId = "976E1085-9D9E-4132-ADB4-8B20859A3B8B";
name = Regular;
paths = (
{
closed = 1;
nodes = (
"629 335 LINE",
"629 349 OFFCURVE",
"633 364 OFFCURVE",
"639 379 CURVE SMOOTH",
"646 393 OFFCURVE",
"655 408 OFFCURVE",
"664 416 CURVE SMOOTH",
"756 509 LINE",
"765 517 OFFCURVE",
"780 527 OFFCURVE",
"795 533 CURVE SMOOTH",
"809 539 OFFCURVE",
"824 543 OFFCURVE",
"838 543 CURVE SMOOTH",
"871 543 LINE",
"871 625 LINE",
"871 642 OFFCURVE",
"886 657 OFFCURVE",
"902 657 CURVE",
"948 657 LINE",
"948 136 LINE",
"948 133 LINE",
"948 98 OFFCURVE",
"934 66 OFFCURVE",
"911 43 CURVE SMOOTH",
"888 20 OFFCURVE",
"856 6 OFFCURVE",
"821 6 CURVE SMOOTH",
"786 6 OFFCURVE",
"754 20 OFFCURVE",
"731 43 CURVE SMOOTH",
"708 66 OFFCURVE",
"693 98 OFFCURVE",
"693 133 CURVE SMOOTH",
"693 136 LINE",
"661 136 LINE",
"644 136 OFFCURVE",
"629 151 OFFCURVE",
"629 167 CURVE SMOOTH"
);
},
{
closed = 1;
nodes = (
"710 309 LINE",
"870 309 LINE",
"870 463 LINE",
"838 463 LINE",
"833 463 OFFCURVE",
"817 457 OFFCURVE",
"812 452 CURVE SMOOTH",
"720 360 LINE",
"715 356 OFFCURVE",
"710 340 OFFCURVE",
"710 335 CURVE SMOOTH"
);
},
{
closed = 1;
nodes = (
"773 107 OFFCURVE",
"795 86 OFFCURVE",
"821 86 CURVE SMOOTH",
"847 86 OFFCURVE",
"868 107 OFFCURVE",
"868 133 CURVE SMOOTH",
"868 159 OFFCURVE",
"847 181 OFFCURVE",
"821 181 CURVE SMOOTH",
"795 181 OFFCURVE",
"773 160 OFFCURVE",
"773 133 CURVE SMOOTH"
);
}
);
width = 953;
}
);
},
{
glyphname = uniE03B;
lastChange = "2012-10-18 21:27:44 -0700";
layers = (
{
layerId = "976E1085-9D9E-4132-ADB4-8B20859A3B8B";
name = Regular;
paths = (
{
closed = 1;
nodes = (
"183 335 LINE",
"183 349 OFFCURVE",
"187 364 OFFCURVE",
"193 379 CURVE SMOOTH",
"200 393 OFFCURVE",
"209 408 OFFCURVE",
"218 416 CURVE SMOOTH",
"310 509 LINE",
"319 517 OFFCURVE",
"334 527 OFFCURVE",
"349 533 CURVE SMOOTH",
"363 539 OFFCURVE",
"378 543 OFFCURVE",
"392 543 CURVE SMOOTH",
"425 543 LINE",
"425 625 LINE",
"425 642 OFFCURVE",
"440 657 OFFCURVE",
"456 657 CURVE SMOOTH",
"916 657 LINE",
"935 657 OFFCURVE",
"949 642 OFFCURVE",
"949 625 CURVE SMOOTH",
"949 167 LINE",
"949 150 OFFCURVE",
"935 136 OFFCURVE",
"916 136 CURVE SMOOTH",
"885 136 LINE",
"885 133 LINE",
"885 98 OFFCURVE",
"870 66 OFFCURVE",
"848 43 CURVE SMOOTH",
"826 20 OFFCURVE",
"793 6 OFFCURVE",
"757 6 CURVE SMOOTH",
"723 6 OFFCURVE",
"690 20 OFFCURVE",
"667 43 CURVE SMOOTH",
"644 66 OFFCURVE",
"630 98 OFFCURVE",
"630 133 CURVE SMOOTH",
"630 136 LINE",
"502 136 LINE",
"502 133 LINE",
"502 98 OFFCURVE",
"488 66 OFFCURVE",
"465 43 CURVE SMOOTH",
"442 20 OFFCURVE",
"410 6 OFFCURVE",
"375 6 CURVE SMOOTH",
"340 6 OFFCURVE",
"308 20 OFFCURVE",
"285 43 CURVE SMOOTH",
"262 66 OFFCURVE",
"247 98 OFFCURVE",
"247 133 CURVE SMOOTH",
"247 136 LINE",
"215 136 LINE",
"198 136 OFFCURVE",
"183 151 OFFCURVE",
"183 167 CURVE SMOOTH"
);
},
{
closed = 1;
nodes = (
"264 309 LINE",
"424 309 LINE",
"424 463 LINE",
"392 463 LINE",
"387 463 OFFCURVE",
"371 457 OFFCURVE",
"366 452 CURVE SMOOTH",
"274 360 LINE",
"269 356 OFFCURVE",
"264 340 OFFCURVE",
"264 335 CURVE SMOOTH"
);
},
{
closed = 1;
nodes = (
"327 107 OFFCURVE",
"349 86 OFFCURVE",
"375 86 CURVE SMOOTH",
"401 86 OFFCURVE",
"422 107 OFFCURVE",
"422 133 CURVE SMOOTH",
"422 159 OFFCURVE",
"401 181 OFFCURVE",
"375 181 CURVE SMOOTH",
"349 181 OFFCURVE",
"327 160 OFFCURVE",
"327 133 CURVE SMOOTH"
);
},
{
closed = 1;
nodes = (
"710 107 OFFCURVE",
"731 86 OFFCURVE",
"757 86 CURVE SMOOTH",
"784 86 OFFCURVE",
"805 107 OFFCURVE",
"805 133 CURVE SMOOTH",
"805 159 OFFCURVE",
"784 181 OFFCURVE",
"757 181 CURVE SMOOTH",
"731 181 OFFCURVE",
"710 160 OFFCURVE",
"710 133 CURVE SMOOTH"
);
}
);
width = 953;
}
);
},
{
glyphname = uniE03C;
lastChange = "2012-10-18 21:28:04 -0700";
layers = (
{
layerId = "976E1085-9D9E-4132-ADB4-8B20859A3B8B";
name = Regular;
paths = (
{
closed = 1;
nodes = (
"2 335 LINE",
"2 349 OFFCURVE",
"6 364 OFFCURVE",
"12 379 CURVE SMOOTH",
"19 393 OFFCURVE",
"28 408 OFFCURVE",
"37 416 CURVE SMOOTH",
"129 509 LINE",
"138 517 OFFCURVE",
"153 527 OFFCURVE",
"168 533 CURVE SMOOTH",
"182 539 OFFCURVE",
"197 543 OFFCURVE",
"211 543 CURVE SMOOTH",
"244 543 LINE",
"244 625 LINE",
"244 642 OFFCURVE",
"259 657 OFFCURVE",
"275 657 CURVE SMOOTH",
"735 657 LINE",
"754 657 OFFCURVE",
"768 642 OFFCURVE",
"768 625 CURVE SMOOTH",
"768 167 LINE",
"768 150 OFFCURVE",
"754 136 OFFCURVE",
"735 136 CURVE SMOOTH",
"704 136 LINE",
"704 133 LINE",
"704 98 OFFCURVE",
"689 66 OFFCURVE",
"667 43 CURVE SMOOTH",
"645 20 OFFCURVE",
"612 6 OFFCURVE",
"576 6 CURVE SMOOTH",
"542 6 OFFCURVE",
"509 20 OFFCURVE",
"486 43 CURVE SMOOTH",
"463 66 OFFCURVE",
"449 98 OFFCURVE",
"449 133 CURVE SMOOTH",
"449 136 LINE",
"321 136 LINE",
"321 133 LINE",
"321 98 OFFCURVE",
"307 66 OFFCURVE",
"284 43 CURVE SMOOTH",
"261 20 OFFCURVE",
"229 6 OFFCURVE",
"194 6 CURVE SMOOTH",
"159 6 OFFCURVE",
"127 20 OFFCURVE",
"104 43 CURVE SMOOTH",
"81 66 OFFCURVE",
"66 98 OFFCURVE",
"66 133 CURVE SMOOTH",
"66 136 LINE",
"34 136 LINE",
"17 136 OFFCURVE",
"2 151 OFFCURVE",
"2 167 CURVE SMOOTH"
);
},
{
closed = 1;
nodes = (
"83 309 LINE",
"243 309 LINE",
"243 463 LINE",
"211 463 LINE",
"206 463 OFFCURVE",
"190 457 OFFCURVE",
"185 452 CURVE SMOOTH",
"93 360 LINE",
"88 356 OFFCURVE",
"83 340 OFFCURVE",
"83 335 CURVE SMOOTH"
);
},
{
closed = 1;
nodes = (
"146 107 OFFCURVE",
"168 86 OFFCURVE",
"194 86 CURVE SMOOTH",
"220 86 OFFCURVE",
"241 107 OFFCURVE",
"241 133 CURVE SMOOTH",
"241 159 OFFCURVE",
"220 181 OFFCURVE",
"194 181 CURVE SMOOTH",
"168 181 OFFCURVE",
"146 160 OFFCURVE",
"146 133 CURVE SMOOTH"
);
},
{
closed = 1;
nodes = (
"529 107 OFFCURVE",
"550 86 OFFCURVE",
"576 86 CURVE SMOOTH",
"603 86 OFFCURVE",
"624 107 OFFCURVE",
"624 133 CURVE SMOOTH",
"624 159 OFFCURVE",
"603 181 OFFCURVE",
"576 181 CURVE SMOOTH",
"550 181 OFFCURVE",
"529 160 OFFCURVE",
"529 133 CURVE SMOOTH"
);
}
);
width = 953;
}
);
},
{
glyphname = uniE03D;
lastChange = "2012-10-18 21:27:53 -0700";
layers = (
{
layerId = "976E1085-9D9E-4132-ADB4-8B20859A3B8B";
name = Regular;
paths = (
{
closed = 1;
nodes = (
"1 657 LINE",
"288 657 LINE",
"307 657 OFFCURVE",
"321 642 OFFCURVE",
"321 625 CURVE SMOOTH",
"321 167 LINE",
"321 150 OFFCURVE",
"307 136 OFFCURVE",
"288 136 CURVE SMOOTH",
"257 136 LINE",
"257 133 LINE",
"257 98 OFFCURVE",
"242 66 OFFCURVE",
"220 43 CURVE SMOOTH",
"198 20 OFFCURVE",
"165 6 OFFCURVE",
"129 6 CURVE SMOOTH",
"95 6 OFFCURVE",
"62 20 OFFCURVE",
"39 43 CURVE SMOOTH",
"16 66 OFFCURVE",
"2 98 OFFCURVE",
"2 133 CURVE SMOOTH",
"2 136 LINE"
);
},
{
closed = 1;
nodes = (
"82 107 OFFCURVE",
"103 86 OFFCURVE",
"129 86 CURVE SMOOTH",
"156 86 OFFCURVE",
"177 107 OFFCURVE",
"177 133 CURVE SMOOTH",
"177 159 OFFCURVE",
"156 181 OFFCURVE",
"129 181 CURVE SMOOTH",
"103 181 OFFCURVE",
"82 160 OFFCURVE",
"82 133 CURVE SMOOTH"
);
}
